<svg xmlns="http://www.w3.org/2000/svg" xmlns:xlink="http://www.w3.org/1999/xlink" version="1.1" width="231" height="165" viewBox="0 0 231 165">
<defs>
<path id="font_1_1" d="M.10398865-2.177124C.13598633-2.1751099 .15299988-2.1531068 .15299988-2.1281129 .15299988-2.095108 .12799073-2.0791016 .10499573-2.0791016 .08099365-2.0791016 .055999757-2.0941163 .055999757-2.1291047 .055999757-2.18013 .10598755-2.2221986 .16699219-2.2221986 .31900025-2.2221986 .37599183-1.9880982 .44699098-1.6980591 .5239868-1.382019 .58898928-1.062973 .6429901-.7419281 .6799927-.52890017 .71699526-.32887269 .7509918-.19985962 .7630005-.15084839 .7969971-.022003174 .83599856-.022003174 .86698916-.022003174 .8919983-.040893556 .8959961-.0448761 .86299136-.04685974 .84599307-.068862918 .84599307-.09385681 .84599307-.12686157 .87098696-.14285279 .8939972-.14285279 .91799929-.14285279 .94299319-.1278534 .94299319-.09286499 .94299319-.038909913 .8889923 0 .83399966 0 .7579956 0 .70199587-.1088562 .6469879-.3128662 .6439972-.3238678 .5079956-.825943 .397995-1.4800263 .37199403-1.6330414 .34298707-1.8000641 .30999757-1.9390869 .2919922-2.0121003 .24598694-2.2001954 .16499329-2.2001954 .1289978-2.2001954 .10499573-2.177124 .10398865-2.177124Z"/>
<path id="font_2_6" d="M.36698915 .3996582H.45298768C.47299195 .3996582 .48298646 .3996582 .48298646 .41966249 .48298646 .43066407 .47299195 .43066407 .45599366 .43066407H.37298585L.3939972 .5449524C.397995 .5660095 .4119873 .6370239 .41799928 .6490326 .4269867 .66804507 .44400025 .68307498 .46499635 .68307498 .46899415 .68307498 .49499513 .68307498 .5139923 .66503909 .46998597 .661026 .45999146 .6260376 .45999146 .6110382 .45999146 .58802798 .47799684 .57603457 .49699403 .57603457 .522995 .57603457 .5519867 .5980377 .5519867 .6360321 .5519867 .6820679 .5059967 .7050781 .46499635 .7050781 .43099977 .7050781 .36799623 .68707278 .33799745 .58802798 .33198548 .56700137 .32899476 .5569763 .30499269 .43066407H.23599243C.21699524 .43066407 .20599365 .43066407 .20599365 .4116516 .20599365 .3996582 .21499634 .3996582 .23399353 .3996582H.2999878L.22499085 .0048828127C.20698548-.09207153 .18998719-.18309021 .13798523-.18309021 .13398743-.18309021 .10899353-.18309021 .08999634-.16506958 .13598633-.1620636 .14498902-.12606812 .14498902-.111068729 .14498902-.08807373 .1269989-.07606506 .10798645-.07606506 .08198547-.07606506 .052993776-.09806824 .052993776-.13606262 .052993776-.18109131 .09700012-.20507813 .13798523-.20507813 .19299317-.20507813 .23298645-.14607239 .25099183-.108062747 .2829895-.04508972 .30599977 .07583618 .30699159 .082839969L.36698915 .3996582Z"/>
<path id="font_3_1" d="M.33099366-.2400055C.33099366-.23701477 .33099366-.23500061 .31399537-.21800232 .18899536-.0920105 .15699768 .09700012 .15699768 .25 .15699768 .42399598 .19499207 .59799197 .31799317 .72299197 .33099366 .73498538 .33099366 .7369995 .33099366 .73999026 .33099366 .746994 .32699586 .75 .32099916 .75 .31098939 .75 .22099304 .6819916 .1619873 .5549927 .11099243 .44499208 .09899902 .33399964 .09899902 .25 .09899902 .17199707 .10998535 .050994874 .16499329-.06201172 .22499085-.18501282 .31098939-.25 .32099916-.25 .32699586-.25 .33099366-.24700928 .33099366-.2400055Z"/>
<path id="font_2_8" d="M.33399964 .30233766C.33999635 .32835389 .36299134 .42037965 .43299867 .42037965 .43798829 .42037965 .46199037 .42037965 .48298646 .40734864 .45498658 .402359 .43499757 .37734986 .43499757 .35334779 .43499757 .33735658 .44599916 .31835938 .47299195 .31835938 .49499513 .31835938 .5269928 .3363495 .5269928 .37635804 .5269928 .42837525 .46798707 .4423828 .43399049 .4423828 .37599183 .4423828 .34098817 .38935853 .32899476 .36634828 .3039856 .43237306 .25 .4423828 .22099304 .4423828 .116989139 .4423828 .05999756 .3133545 .05999756 .28834535 .05999756 .27833558 .069992069 .27833558 .07199097 .27833558 .07998657 .27833558 .08299255 .28033448 .084991458 .28933717 .11898804 .39535523 .18499756 .42037965 .21899414 .42037965 .23799134 .42037965 .272995 .4113617 .272995 .35334779 .272995 .32235719 .2559967 .25532533 .21899414 .11528015 .20298767 .053268434 .16799927 .011245728 .12399292 .011245728 .117996219 .011245728 .09498596 .011245728 .07398987 .024276734 .09899902 .029266358 .12098694 .05027771 .12098694 .07827759 .12098694 .105270389 .09899902 .11328125 .083999637 .11328125 .053985597 .11328125 .0289917 .08728027 .0289917 .055267335 .0289917 .009246826 .07899475-.0107421879 .12298584-.0107421879 .18899536-.0107421879 .22499085 .059280397 .22799683 .0652771 .23999024 .028274537 .27598573-.0107421879 .33599855-.0107421879 .43899537-.0107421879 .49598695 .118270877 .49598695 .14328003 .49598695 .1532898 .4869995 .1532898 .48399354 .1532898 .47499085 .1532898 .47299195 .14929199 .47099305 .14228821 .43798829 .03527832 .36999513 .011245728 .33799745 .011245728 .29899598 .011245728 .2829895 .043273927 .2829895 .07727051 .2829895 .09927368 .2889862 .121276859 .2999878 .16529846L.33399964 .30233766Z"/>
<path id="font_3_2" d="M.2889862 .25C.2889862 .32798768 .27799989 .44898988 .22299195 .56199648 .16299439 .68499758 .07699585 .75 .066986087 .75 .06098938 .75 .056991579 .74598696 .056991579 .73999026 .056991579 .7369995 .056991579 .73498538 .07598877 .71699526 .17399597 .6179962 .23098755 .45899964 .23098755 .25 .23098755 .07899475 .19400025-.09700012 .069992069-.2230072 .056991579-.23500061 .056991579-.23701477 .056991579-.2400055 .056991579-.2460022 .06098938-.25 .066986087-.25 .07699585-.25 .16699219-.18200684 .22599793-.055007936 .2769928 .054992677 .2889862 .16600037 .2889862 .25Z"/>
<path id="font_2_5" d="M.5159912 .68333438C.5159912 .6843262 .5159912 .69433596 .5029907 .69433596 .48799134 .69433596 .3929901 .68533328 .37599183 .68333438 .36799623 .6823273 .3619995 .6773224 .3619995 .6643219 .3619995 .6523285 .37098695 .6523285 .38598634 .6523285 .43399049 .6523285 .43598939 .6453247 .43598939 .6353302L.43299867 .6153412 .37298585 .37835694C.35499574 .41537477 .32598878 .4423828 .2809906 .4423828 .1639862 .4423828 .039993287 .29533387 .039993287 .14929199 .039993287 .055267335 .09498596-.0107421879 .17298889-.0107421879 .19299317-.0107421879 .24299622-.0067443849 .30299378 .06427002 .31098939 .022247315 .34599305-.0107421879 .3939972-.0107421879 .42900086-.0107421879 .45199586 .012252808 .46798707 .044265748 .4850006 .08027649 .49798585 .14129639 .49798585 .14329529 .49798585 .1532898 .4889984 .1532898 .48599244 .1532898 .47599793 .1532898 .47499085 .14929199 .47200013 .13528443 .45498658 .07026672 .43699647 .011245728 .3959961 .011245728 .36898805 .011245728 .3659973 .037261964 .3659973 .057266237 .3659973 .08126831 .36799623 .088272098 .37199403 .105285648L.5159912 .68333438M.30799867 .119277957C.30299378 .10127258 .30299378 .09927368 .28799439 .08227539 .24398804 .027252198 .20298767 .011245728 .1749878 .011245728 .125 .011245728 .11099243 .06626892 .11099243 .105285648 .11099243 .1552887 .14299011 .27833558 .1659851 .32434083 .19699097 .38336183 .24198914 .42037965 .28199769 .42037965 .34700013 .42037965 .36099244 .3383484 .36099244 .33235169 .36099244 .32633973 .35899354 .32034303 .35798646 .31533814L.30799867 .119277957Z"/>
<path id="font_2_3" d="M.30299378 .3244629H.3999939C.47499085 .3244629 .48298646 .30848695 .48298646 .27954103 .48298646 .2725525 .48298646 .26057435 .47599793 .2306366 .47399903 .22564698 .47299195 .22164917 .47299195 .21965027 .47299195 .21166992 .47898866 .20767212 .4850006 .20767212 .49499513 .20767212 .49499513 .21066284 .5 .2286377L.5549927 .44551087C.55799868 .45651246 .55799868 .45851136 .55799868 .46151734 .55799868 .46351625 .55599978 .47251893 .54599 .47251893 .5359955 .47251893 .5349884 .46751405 .5309906 .45150758 .5099945 .37347413 .4869995 .35546876 .4019928 .35546876H.31098939L.375 .6095886C.38398744 .64460757 .3849945 .64860537 .42900086 .64860537H.5609894C.6839905 .64860537 .70700076 .6156006 .70700076 .53855898 .70700076 .5155487 .70700076 .51153567 .70399478 .4845276 .70199587 .4715271 .70199587 .46951295 .70199587 .46652223 .70199587 .46151734 .7049866 .45451356 .71398928 .45451356 .72499087 .45451356 .7259979 .46051026 .7279968 .4795227L.7480011 .65260317C.7509918 .6796112 .74598696 .6796112 .72099307 .6796112H.23098755C.21099854 .6796112 .20098877 .6796112 .20098877 .65960696 .20098877 .64860537 .20999146 .64860537 .22898865 .64860537 .2659912 .64860537 .2939911 .64860537 .2939911 .6306 .2939911 .6266022 .2939911 .6246033 .2889862 .60658267L.15699768 .07791138C.14698792 .038970949 .14498902 .0309906 .06599426 .0309906 .04899597 .0309906 .037994386 .0309906 .037994386 .011993408 .037994386 0 .049987794 0 .052993776 0 .08198547 0 .1559906 .0029907227 .18499756 .0029907227 .21798706 .0029907227 .30099488 0 .33399964 0 .34298707 0 .35499574 0 .35499574 .018997193 .35499574 .026992798 .34899903 .0289917 .34899903 .02999878 .34599305 .0309906 .34399415 .0309906 .32099916 .0309906 .29899598 .0309906 .2939911 .0309906 .2689972 .032989503 .23999024 .035980226 .23699951 .039978029 .23699951 .052947999 .23699951 .0549469 .23699951 .060943605 .24099732 .075912479L.30299378 .3244629Z"/>
<path id="font_3_3" d="M.40899659 .23046875H.6879883C.70199587 .23046875 .72099307 .23046875 .72099307 .25045777 .72099307 .27046205 .70199587 .27046205 .6879883 .27046205H.40899659V.5500183C.40899659 .56399539 .40899659 .5830078 .3889923 .5830078 .36898805 .5830078 .36898805 .56399539 .36898805 .5500183V.27046205H.08898926C.07499695 .27046205 .055999757 .27046205 .055999757 .25045777 .055999757 .23046875 .07499695 .23046875 .08898926 .23046875H.36898805V-.05000305C.36898805-.06401062 .36898805-.08300781 .3889923-.08300781 .40899659-.08300781 .40899659-.06401062 .40899659-.05000305V.23046875Z"/>
<path id="font_2_2" d="M.7599945 .69506838C.7599945 .69807437 .7579956 .7050781 .7489929 .7050781 .74598696 .7050781 .7449951 .70407107 .73399356 .69306948L.6639862 .61602786C.6549988 .6300354 .60899356 .7050781 .49798585 .7050781 .2749939 .7050781 .049987794 .48391725 .049987794 .25172425 .049987794 .08659363 .16799927-.022460938 .32099916-.022460938 .4079895-.022460938 .48399354 .017532349 .5369873 .063583377 .6299896 .14564514 .6469879 .2367096 .6469879 .23971558 .6469879 .24972534 .6369934 .24972534 .6349945 .24972534 .6289978 .24972534 .6239929 .24772644 .621994 .23971558 .61299136 .21069336 .58999636 .13963318 .5209961 .081588748 .45199586 .025543213 .3889923 .008529663 .33699037 .008529663 .24699402 .008529663 .14099121 .060577394 .14099121 .21670532 .14099121 .27374269 .1619873 .43588258 .2619934 .55296328 .32299806 .62402346 .4169922 .67407229 .5059967 .67407229 .60798647 .67407229 .6669922 .5970001 .6669922 .48091126 .6669922 .44088746 .6639862 .43988038 .6639862 .4298706 .6639862 .41986085 .6749878 .41986085 .67900088 .41986085 .69200137 .41986085 .69200137 .42185975 .69699099 .43988038L.7599945 .69506838Z"/>
<path id="font_4_2" d="M.47399903 .40820313C.44198609 .40219117 .42999269 .3781891 .42999269 .3591919 .42999269 .33518983 .44898988 .3271942 .46299745 .3271942 .49299623 .3271942 .5139923 .3531952 .5139923 .380188 .5139923 .4223938 .46598817 .44140626 .42399598 .44140626 .36299134 .44140626 .32899476 .38119508 .31999208 .36219789 .29699708 .4373932 .23498535 .44140626 .21699524 .44140626 .114990238 .44140626 .06098938 .31021119 .06098938 .28822328 .06098938 .28422547 .06498718 .27923585 .07199097 .27923585 .07998657 .27923585 .08198547 .28523255 .083999637 .2892151 .117996219 .40019227 .18499756 .42140199 .21398926 .42140199 .25898744 .42140199 .2679901 .37919618 .2679901 .3551941 .2679901 .33319093 .2619934 .31021119 .25 .26223756L.21598816 .12535095C.20098877 .06535339 .17199707 .010223389 .11898804 .010223389 .11399841 .010223389 .08898926 .010223389 .067993167 .023330689 .10398865 .03036499 .11199951 .06036377 .11199951 .07235718 .11199951 .09236145 .09700012 .10435486 .07798767 .10435486 .053985597 .10435486 .027999878 .083358768 .027999878 .051361085 .027999878 .009231567 .07499695-.009765625 .117996219-.009765625 .1659851-.009765625 .19999695 .028366089 .22099304 .069366458 .23699951 .010223389 .2869873-.009765625 .32398988-.009765625 .42599488-.009765625 .47999574 .12135315 .47999574 .1433258 .47999574 .14833069 .47599793 .15232849 .46998597 .15232849 .46099855 .15232849 .45999146 .14732361 .45700074 .139328 .42999269 .051361085 .37199403 .010223389 .32699586 .010223389 .2919922 .010223389 .272995 .036361696 .272995 .07736206 .272995 .099365238 .2769928 .115356449 .29299928 .18130493L.32798768 .3171997C.34298707 .37719728 .3769989 .42140199 .4229889 .42140199 .4249878 .42140199 .45298768 .42140199 .47399903 .40820313Z"/>
<path id="font_5_42" d="M.6519928 .23170471C.6519928 .24272156 .6519928 .24871826 .6409912 .24871826 .6309967 .24871826 .6299896 .24371338 .6299896 .2367096 .62098696 .07757568 .5049896 .007507324 .4079895 .007507324 .33799745 .007507324 .14698792 .049545289 .14698792 .34179688 .14698792 .63105776 .33499146 .6750946 .40699769 .6750946 .5119934 .6750946 .60398867 .5860138 .6239929 .43588258 .6259918 .4238739 .6259918 .42086793 .6380005 .42086793 .6519928 .42086793 .6519928 .4238739 .6519928 .44389344V.6810913C.6519928 .6990967 .6519928 .70410159 .6419983 .70410159 .6359863 .70410159 .6349945 .7020874 .6289978 .6920929L.5799866 .6130371C.5349884 .6690979 .46699525 .70410159 .394989 .70410159 .21199036 .70410159 .053985597 .54597476 .053985597 .34179688 .053985597 .13461304 .21398926-.021484375 .394989-.021484375 .5589905-.021484375 .6519928 .12161255 .6519928 .23170471Z"/>
<path id="font_5_81" d="M.45899964 .21424866C.45899964 .34326173 .36099244 .44628907 .24499512 .44628907 .125 .44628907 .02999878 .340271 .02999878 .21424866 .02999878 .086242679 .12998963-.009765625 .24398804-.009765625 .3619995-.009765625 .45899964 .08824158 .45899964 .21424866M.3829956 .22325135C.3829956 .18824768 .3829956 .12623596 .35699464 .07923889 .32899476 .031234742 .2829895 .01222229 .24499512 .01222229 .20799256 .01222229 .16299439 .02822876 .13398743 .07723999 .10699463 .12223816 .10598755 .1812439 .10598755 .22325135 .10598755 .261261 .10598755 .32226563 .13699341 .3672638 .16499329 .41027833 .20899964 .42626954 .24398804 .42626954 .2829895 .42626954 .32499696 .40827943 .35198976 .3692627 .3829956 .32325746 .3829956 .2602539 .3829956 .22325135Z"/>
<path id="font_5_77" d="M.5209961 0V.0289917C.47099305 .0289917 .44599916 .0289917 .44499208 .059051515V.24342346C.44499208 .3365631 .44499208 .36450196 .42199708 .39640809 .3929901 .4353943 .34599305 .44140626 .31199647 .44140626 .21499634 .44140626 .1769867 .35850526 .16899109 .338562H.16799927V.44140626L.03199768 .4303589V.4013672C.099990848 .4013672 .10798645 .39437867 .10798645 .34553529V.07408142C.10798645 .0289917 .09700012 .0289917 .03199768 .0289917V0C.057998659 .0019989014 .11199951 .0019989014 .13999939 .0019989014 .16899109 .0019989014 .22299195 .0019989014 .24899292 0V.0289917C.18499756 .0289917 .17298889 .0289917 .17298889 .07408142V.26046754C.17298889 .36547853 .24198914 .4213562 .3039856 .4213562 .3659973 .4213562 .37998963 .37045289 .37998963 .3095703V.07408142C.37998963 .0289917 .36898805 .0289917 .3039856 .0289917V0C.32998658 .0019989014 .38398744 .0019989014 .4119873 .0019989014 .44099427 .0019989014 .49499513 .0019989014 .5209961 0Z"/>
<path id="font_5_105" d="M.32598878 .124069217V.1809845H.3039856V.12606812C.3039856 .0541687 .2749939 .01222229 .23599243 .01222229 .16799927 .01222229 .16799927 .10508728 .16799927 .12207031V.4016571H.30899049V.43066407H.16799927V.6142578H.1459961C.14498902 .52046206 .10899353 .4246521 .017990113 .42166139V.4016571H.102996829V.124069217C.102996829 .01322937 .1769867-.009765625 .22999573-.009765625 .29299928-.009765625 .32598878 .0521698 .32598878 .124069217Z"/>
<path id="font_5_50" d="M.40699769 .11932373C.40699769 .1253357 .4019928 .1293335 .3959961 .1293335 .3880005 .1293335 .38598634 .12432861 .38398744 .11932373 .35798646 .035247804 .29100038 .01222229 .24899292 .01222229 .20698548 .01222229 .10598755 .040252687 .10598755 .21340943V.23242188H.3829956C.40499879 .23242188 .40699769 .23242188 .40699769 .25141908 .40699769 .3523407 .35299684 .44628907 .23199463 .44628907 .117996219 .44628907 .02999878 .34335328 .02999878 .21940613 .02999878 .08729553 .13198853-.009765625 .24299622-.009765625 .3619995-.009765625 .40699769 .09829712 .40699769 .11932373M.34498597 .25141908H.10699463C.114990238 .40830995 .20298767 .42630006 .23098755 .42630006 .33799745 .42630006 .34399415 .28538514 .34498597 .25141908Z"/>
<path id="font_5_116" d="M.5059967 0V.0289917C.45298768 .0289917 .43499757 .0309906 .41099549 .06295776L.27999879 .23580933C.30899049 .2737732 .35099793 .32772828 .36999513 .3487091 .41099549 .39465333 .45799256 .4016571 .48999024 .4016571V.43066407C.44699098 .4286499 .44499208 .4286499 .4059906 .4286499L.31599427 .43066407V.4016571C.32899476 .3996582 .34498597 .3936615 .34498597 .37068177 .34498597 .35369874 .33599855 .3427124 .32998658 .3347168L.2659912 .25378419 .18798828 .35668946C.18499756 .36068727 .1789856 .36968995 .1789856 .37667848 .1789856 .38267518 .18399048 .40065003 .21398926 .4016571V.43066407C.18899536 .4286499 .13798523 .4286499 .11099243 .4286499L.01499939 .43066407V.4016571C.06599426 .4013672 .084991458 .39935304 .10598755 .37236024L.22299195 .21972656C.22499085 .2177124 .22898865 .2117157 .22898865 .20872498 .22898865 .205719 .15098572 .10786438 .14099121 .09487915 .09700012 .04096985 .052993776 .02998352 .009994507 .0289917V0C.04798889 .0019989014 .049987794 .0019989014 .09298706 .0019989014L.18299866 0V.0289917C.15899658 .031982423 .15499878 .046966554 .15499878 .060943605 .15499878 .0769043 .1619873 .0848999 .17199707 .09786987L.24398804 .1907196 .32598878 .08389282C.34298707 .061935426 .34298707 .059936525 .34298707 .053955079 .34298707 .045959474 .33499146 .02998352 .30799867 .0289917V0C.33399964 .0019989014 .3829956 .0019989014 .41099549 .0019989014L.5059967 0Z"/>
<path id="font_2_7" d="M.47099305 .3773346C.47200013 .3833313 .47399903 .38833619 .47399903 .39535523 .47399903 .41236878 .46199037 .42237855 .44499208 .42237855 .43499757 .42237855 .4079895 .41537477 .4039917 .3793335 .38598634 .41636659 .35099793 .4423828 .31098939 .4423828 .19699097 .4423828 .07299805 .30226136 .07299805 .15812683 .07299805 .059020997 .13398743 0 .20599365 0 .2649994 0 .31199647 .04701233 .32199098 .058029176L.32299806 .057022096C.3019867-.031982423 .2899933-.07295227 .2899933-.07495117 .28599549-.08395386 .2519989-.18309021 .1459961-.18309021 .1269989-.18309021 .09399414-.18206787 .06599426-.17297364 .09599304-.16394043 .10699463-.13793946 .10699463-.12094116 .10699463-.10494995 .09599304-.0859375 .068984989-.0859375 .04699707-.0859375 .01499939-.10394287 .01499939-.14395142 .01499939-.18508911 .051986696-.20507813 .147995-.20507813 .272995-.20507813 .34498597-.12693787 .3600006-.06695557L.47099305 .3773346M.34098817 .12809754C.33499146 .10206604 .31199647 .077041629 .2899933 .058029176 .2689972 .040008546 .23799134 .021987915 .20899964 .021987915 .15899658 .021987915 .14399719 .074035648 .14399719 .11407471 .14399719 .16212464 .17298889 .28024293 .19999695 .33128358 .22698975 .38034059 .269989 .42037965 .31199647 .42037965 .37799073 .42037965 .3919983 .33929444 .3919983 .33428956 .3919983 .32928468 .3899994 .3232727 .3889923 .3192749L.34098817 .12809754Z"/>
<path id="font_2_1" d="M.45498658 .5001831C.45498658 .56614688 .43699647 .7050781 .33499146 .7050781 .19599915 .7050781 .041992189 .42323304 .041992189 .19425965 .041992189 .100250247 .070999149-.0107421879 .1619873-.0107421879 .30299378-.0107421879 .45498658 .27627564 .45498658 .5001831M.147995 .36328126C.16499329 .42723084 .18499756 .5071869 .22499085 .57814028 .2519989 .6271057 .2889862 .68307498 .33399964 .68307498 .3829956 .68307498 .3889923 .6191101 .3889923 .56214907 .3889923 .5131836 .3809967 .46220399 .35699464 .36328126H.147995M.34799195 .3312683C.33699037 .28527833 .31599427 .2002716 .27799989 .12826538 .24299622 .060256959 .20498657 .011245728 .1619873 .011245728 .1289978 .011245728 .10798645 .040252687 .10798645 .133255 .10798645 .17526245 .11399841 .23326111 .13999939 .3312683H.34799195Z"/>
<path id="font_2_4" d="M.7599945 .69506838C.7599945 .69807437 .7579956 .7050781 .7489929 .7050781 .74598696 .7050781 .7449951 .70407107 .73399356 .69306948L.6639862 .61598208C.6549988 .6300049 .60899356 .7050781 .49798585 .7050781 .2749939 .7050781 .049987794 .4837799 .049987794 .25144959 .049987794 .09249878 .16099549-.022460938 .32299806-.022460938 .36698915-.022460938 .4119873-.013473511 .44799806 .0015258789 .49798585 .021530152 .5169983 .042526246 .5349884 .06251526 .5439911 .037521364 .56999209 .0005340576 .5799866 .0005340576 .58499148 .0005340576 .58699038 .0035247803 .58699038 .0045318605 .58898928 .0065307619 .598999 .044525148 .60398867 .06550598L.6230011 .14248657C.6269989 .15948487 .6319885 .1764679 .6359863 .19346619 .6469879 .2384491 .647995 .240448 .7049866 .24145508 .70999148 .24145508 .72099307 .2424469 .72099307 .26145936 .72099307 .26844789 .71598818 .27246095 .70799258 .27246095 .68499758 .27246095 .6259918 .26945497 .6029968 .26945497 .57199099 .26945497 .49398805 .27246095 .46299745 .27246095 .45399476 .27246095 .44198609 .27246095 .44198609 .25245667 .44198609 .24145508 .44999696 .24145508 .47200013 .24145508 .47299195 .24145508 .5019989 .24145508 .5249939 .23945618 .5509949 .2364502 .55599978 .23345948 .55599978 .22045899 .55599978 .2114563 .54499819 .16647339 .5349884 .12948609 .5069885 .01953125 .3769989 .008529663 .34199525 .008529663 .24598694 .008529663 .14099121 .06550598 .14099121 .21846009 .14099121 .24945069 .15098572 .41467286 .2559967 .5448761 .30999757 .6129761 .40699769 .67407229 .5059967 .67407229 .60798647 .67407229 .6669922 .59695437 .6669922 .48077394 .6669922 .44070436 .6639862 .43971253 .6639862 .4296875 .6639862 .41967774 .6749878 .41967774 .67900088 .41967774 .69200137 .41967774 .69200137 .42167665 .69699099 .43971253L.7599945 .69506838Z"/>
<path id="font_4_1" d="M.44299317 .50320437C.44299317 .6051483 .41099549 .70410159 .32899476 .70410159 .18899536 .70410159 .039993287 .41127015 .039993287 .19126892 .039993287 .14524842 .049987794-.009765625 .15499878-.009765625 .29100038-.009765625 .44299317 .27627564 .44299317 .50320437M.13999939 .3623047C.15499878 .42126466 .17599488 .50520327 .21598816 .5761566 .24899292 .63612368 .28399659 .6840973 .32798768 .6840973 .36099244 .6840973 .3829956 .6561127 .3829956 .56018069 .3829956 .52420046 .37998963 .4742279 .35099793 .3623047H.13999939M.34399415 .33229066C.31900025 .23426819 .2979889 .17126465 .2619934 .10824585 .23298645 .057235719 .19799805 .010223389 .1559906 .010223389 .125 .010223389 .099990848 .034225465 .099990848 .133255 .099990848 .1982727 .115997318 .26628114 .13198853 .33229066H.34399415Z"/>
<path id="font_6_4" d="M.49198915 .40434266C.45498658 .39733888 .44400025 .3653412 .44400025 .3503418 .44400025 .33132936 .45799256 .31433106 .48298646 .31433106 .5109863 .31433106 .5379944 .33833314 .5379944 .3733368 .5379944 .41937257 .48799134 .4423828 .44099427 .4423828 .3809967 .4423828 .34599305 .38934327 .33399964 .3683319 .31498719 .41737367 .2709961 .4423828 .22299195 .4423828 .115997318 .4423828 .057998659 .31433106 .057998659 .28833009 .057998659 .2793274 .06498718 .2763214 .07199097 .2763214 .08099365 .2763214 .083999637 .2813263 .085998538 .287323 .116989139 .38633729 .18299866 .41737367 .22099304 .41737367 .25 .41737367 .27598573 .3983307 .27598573 .35133363 .27598573 .31533814 .23298645 .15530396 .21998596 .107284549 .21199036 .076293949 .18199158 .014251709 .1269989 .014251709 .10699463 .014251709 .085998538 .021270752 .07598877 .027282715 .102996829 .032287599 .12298584 .055282594 .12298584 .08128357 .12298584 .106292728 .10398865 .11729431 .084991458 .11729431 .055999757 .11729431 .02999878 .092285159 .02999878 .058288576 .02999878 .009246826 .083999637-.0107421879 .12599182-.0107421879 .18399048-.0107421879 .21798706 .03729248 .23298645 .06428528 .2579956-.0017547608 .31698609-.0107421879 .34399415-.0107421879 .45199586-.0107421879 .5089874 .11929321 .5089874 .14329529 .5089874 .14830017 .5059967 .15530396 .49598695 .15530396 .4850006 .15530396 .48399354 .1512909 .47898866 .1362915 .45700074 .06428528 .39898683 .014251709 .34700013 .014251709 .31799317 .014251709 .29100038 .032287599 .29100038 .08029175 .29100038 .10229492 .30499269 .15730286 .31399537 .1953125 .31799317 .21331787 .34498597 .32133485 .34700013 .32833863 .35899354 .3643341 .3889923 .41737367 .43998719 .41737367 .45799256 .41737367 .47698976 .41436769 .49198915 .40434266Z"/>
<path id="font_7_3" d="M.70799258 .3310089C.7220001 .3310089 .7409973 .3310089 .7409973 .35202027 .7409973 .37402345 .71899417 .37402345 .70399478 .37402345H.09399414C.07899475 .37402345 .056991579 .37402345 .056991579 .35202027 .056991579 .3310089 .07699585 .3310089 .08999634 .3310089H.70799258M.70399478 .12695313C.71899417 .12695313 .7409973 .12695313 .7409973 .14894104 .7409973 .1699524 .7220001 .1699524 .70799258 .1699524H.08999634C.07699585 .1699524 .056991579 .1699524 .056991579 .14894104 .056991579 .12695313 .07899475 .12695313 .09399414 .12695313H.70399478Z"/>
<path id="font_6_2" d="M.43899537 .6086273C.44499208 .63061526 .44699098 .64060977 .46398927 .6436157 .47200013 .6456146 .5039978 .6456146 .5249939 .6456146 .6399994 .6456146 .673996 .63861086 .673996 .56066897 .673996 .54766848 .673996 .5326843 .6649933 .4737091L.6639862 .4657135C.6639862 .45872499 .66799929 .45173646 .6779938 .45173646 .6899872 .45173646 .69200137 .46072389 .69400027 .475708L.7200012 .64860537C.72099307 .6536102 .7220001 .65960696 .7220001 .6626129 .7220001 .6766052 .71199038 .6766052 .69299319 .6766052H.12399292C.099990848 .6766052 .09899902 .6756134 .09199524 .6566162L.02999878 .4807129C.025985718 .4677124 .025985718 .4657135 .025985718 .46472169 .025985718 .45973207 .0289917 .45173646 .038986207 .45173646 .049987794 .45173646 .051986696 .45773316 .057998659 .475708 .11299133 .6316223 .14399719 .6456146 .2889862 .6456146H.32798768C.35598756 .6456146 .35598756 .64260867 .35598756 .63461306 .35598756 .62861636 .35398866 .6216278 .35198976 .6136322L.21798706 .07896423C.20899964 .04298401 .20599365 .0309906 .099990848 .0309906 .067993167 .0309906 .05899048 .0309906 .05899048 .0129852299 .05899048 0 .07199097 0 .07598877 0 .101989749 0 .1309967 .0019989014 .1579895 .0019989014 .18598938 .0019989014 .21499634 .0029907227 .24299622 .0029907227 .2869873 .0029907227 .2889862 .0029907227 .32598878 .0019989014 .33898927 .0019989014 .40499879 0 .41299439 0 .42199708 0 .43399049 0 .43399049 .017990113 .43399049 .0309906 .4249878 .0309906 .3999939 .0309906 .375 .0309906 .36299134 .0309906 .33599855 .032989503 .31298829 .035995485 .30099488 .036987306 .30099488 .053985597 .30099488 .05897522 .30299378 .066970828 .30499269 .07395935L.43899537 .6086273Z"/>
<path id="font_7_1" d="M.34098817-.23803711C.34098817-.23303223 .33799745-.23002625 .33198548-.22303772 .20298767-.105026248 .1639862 .07498169 .1639862 .24996948 .1639862 .40498353 .19400025 .59298709 .33499146 .72698977 .33898927 .73098757 .34098817 .73399356 .34098817 .7389984 .34098817 .74598696 .33599855 .75 .32899476 .75 .31698609 .75 .22698975 .6779785 .17298889 .568985 .125 .47297669 .100997928 .36997987 .100997928 .25097657 .100997928 .17897034 .10998535 .064971927 .16499329-.053024293 .22399903-.17602539 .31698609-.24902344 .32899476-.24902344 .33599855-.24902344 .34098817-.24502564 .34098817-.23803711Z"/>
<path id="font_6_1" d="M.46598817 .49519349C.46598817 .5981293 .43199159 .7050781 .33999635 .7050781 .19400025 .7050781 .040985109 .4202423 .040985109 .19825745 .040985109 .12625122 .06298828-.0107421879 .16699219-.0107421879 .31298829-.0107421879 .46598817 .27127076 .46598817 .49519349M.1499939 .36328126C.16999817 .44223023 .19099427 .5151825 .23199463 .58413699 .2559967 .62409976 .29299928 .68006899 .33898927 .68006899 .3929901 .68006899 .39698792 .59413149 .39698792 .55615237 .39698792 .4961853 .3809967 .426239 .3659973 .36328126H.1499939M.35699464 .3312683C.34098817 .26826478 .32199098 .19326782 .28199769 .12225342 .2559967 .07525635 .21598816 .014251709 .16799927 .014251709 .125 .014251709 .11099243 .06625366 .11099243 .13926697 .11099243 .20326233 .1269989 .26826478 .14199829 .3312683H.35699464Z"/>
<path id="font_7_2" d="M.2979889 .25097657C.2979889 .3329773 .28599549 .4429779 .23399353 .5539856 .1749878 .6769867 .08198547 .75 .069992069 .75 .05999756 .75 .057998659 .74198916 .057998659 .7389984 .057998659 .73399356 .05999756 .73098757 .066986087 .72398379 .125 .6719818 .23498535 .5359802 .23498535 .25097657 .23498535 .10797119 .20899964-.091033939 .06399536-.22602844 .06199646-.22903443 .057998659-.23303223 .057998659-.23803711 .057998659-.24102783 .05999756-.24902344 .069992069-.24902344 .08198547-.24902344 .17199707-.17703247 .22599793-.06802368 .27398683 .02796936 .2979889 .13098145 .2979889 .25097657Z"/>
<path id="font_6_3" d="M.5239868 .6603241C.5279999 .67433169 .5279999 .67633059 .5279999 .68032839 .5279999 .68933108 .5219879 .69433596 .5130005 .69433596 .49899293 .69433596 .41099549 .6863251 .3909912 .6843262 .3809967 .68333438 .36999513 .6823273 .36999513 .665329 .36999513 .6523285 .3809967 .6523285 .39698792 .6523285 .44400025 .6523285 .44400025 .6453247 .44400025 .6363373 .44400025 .6293335 .43499757 .5943451 .42999269 .573349L.41099549 .4963684C.40098573 .45837403 .3909912 .41937257 .38198854 .3803711 .36299134 .41638185 .33198548 .4423828 .2869873 .4423828 .17098999 .4423828 .041992189 .30433656 .041992189 .1512909 .041992189 .041259767 .11199951-.0107421879 .1789856-.0107421879 .24398804-.0107421879 .29699708 .043258668 .31298829 .06227112 .32398988 .007247925 .37399293-.0107421879 .4059906-.0107421879 .43499757-.0107421879 .45999146 .002243042 .48199464 .044265748 .5 .07727051 .5139923 .13928223 .5139923 .14329529 .5139923 .14828491 .5109863 .1552887 .5009918 .1552887 .4889984 .1552887 .48799134 .15029907 .48399354 .13128662 .46199037 .044265748 .43998719 .014251709 .40899659 .014251709 .38398744 .014251709 .37799073 .038253786 .37799073 .060272218 .37799073 .073272708 .3829956 .10127258 .38398744 .104278568L.5239868 .6603241M.31698609 .121276859C.31298829 .105285648 .31199647 .103271488 .29599 .08326721 .2599945 .040252687 .21899414 .014251709 .18199158 .014251709 .1329956 .014251709 .115997318 .06526184 .115997318 .10827637 .115997318 .15730286 .14498902 .27233888 .16899109 .32034303 .20098877 .3803711 .24699402 .41737367 .2869873 .41737367 .35398866 .41737367 .36898805 .3363495 .36898805 .3313446 .36898805 .32635499 .36698915 .32034303 .3659973 .3163452L.31698609 .121276859Z"/>
<path id="font_8_1" d="M.31399537 .47006227C.32099916 .48506166 .32299806 .49606324 .32299806 .50205996 .32299806 .53305056 .29499818 .5590515 .2619934 .5590515 .22200012 .5590515 .20999146 .5240631 .20599365 .51005557L.06599426 .08206177C.06399536 .076049808 .06098938 .0680542 .06098938 .0640564 .06098938 .047058107 .100997928 .0390625 .101989749 .0390625 .11099243 .0390625 .114990238 .048049928 .11898804 .05606079L.31399537 .47006227Z"/>
</defs>
<path transform="matrix(1.00003,0,0,-1.00003,2.0964967,163.24752)" stroke-width=".3985" stroke-linecap="butt" stroke-miterlimit="10" stroke-linejoin="miter" fill="none" stroke="#085646" d="M0 0V141.73404"/>
<path transform="matrix(1.00003,0,0,-1.00003,2.0964967,163.24752)" stroke-width=".3985" stroke-linecap="butt" stroke-miterlimit="10" stroke-linejoin="miter" fill="none" stroke="#085646" d="M0 141.73404H85.04042"/>
<path transform="matrix(1.00003,0,0,-1.00003,2.0964967,163.24752)" stroke-width=".3985" stroke-linecap="butt" stroke-miterlimit="10" stroke-linejoin="miter" fill="none" stroke="#085646" d="M85.04042 141.73404V0"/>
<path transform="matrix(1.00003,0,0,-1.00003,2.0964967,163.24752)" stroke-width=".3985" stroke-linecap="butt" stroke-miterlimit="10" stroke-linejoin="miter" fill="none" stroke="#085646" d="M85.04042 0H0"/>
<use data-text="&#x222b;" xlink:href="#font_1_1" transform="matrix(9.962899,0,0,-9.962899,22.286103,24.196328)" fill="#085646"/>
<use data-text="f" xlink:href="#font_2_6" transform="matrix(9.962899,0,0,-9.962899,33.909456,37.757745)" fill="#085646"/>
<use data-text="(" xlink:href="#font_3_1" transform="matrix(9.962899,0,0,-9.962899,39.859628,37.757745)" fill="#085646"/>
<use data-text="x" xlink:href="#font_2_8" transform="matrix(9.962899,0,0,-9.962899,43.73375,37.757745)" fill="#085646"/>
<use data-text=")" xlink:href="#font_3_2" transform="matrix(9.962899,0,0,-9.962899,49.427919,37.757745)" fill="#085646"/>
<use data-text="d" xlink:href="#font_2_5" transform="matrix(9.962899,0,0,-9.962899,56.070116,37.757745)" fill="#085646"/>
<use data-text="x" xlink:href="#font_2_8" transform="matrix(9.962899,0,0,-9.962899,61.250825,37.757745)" fill="#085646"/>
<use data-text="F" xlink:href="#font_2_3" transform="matrix(9.962899,0,0,-9.962899,23.996155,145.892)" fill="#085646"/>
<use data-text="(" xlink:href="#font_3_1" transform="matrix(9.962899,0,0,-9.962899,31.786393,145.892)" fill="#085646"/>
<use data-text="x" xlink:href="#font_2_8" transform="matrix(9.962899,0,0,-9.962899,35.661508,145.892)" fill="#085646"/>
<use data-text=")" xlink:href="#font_3_2" transform="matrix(9.962899,0,0,-9.962899,41.354684,145.892)" fill="#085646"/>
<use data-text="+" xlink:href="#font_3_3" transform="matrix(9.962899,0,0,-9.962899,47.432046,145.892)" fill="#085646"/>
<use data-text="C" xlink:href="#font_2_2" transform="matrix(9.962899,0,0,-9.962899,57.406167,145.892)" fill="#085646"/>
<path transform="matrix(1.00003,0,0,-1.00003,2.0964967,163.24752)" stroke-width="1.49442" stroke-linecap="butt" stroke-miterlimit="10" stroke-linejoin="miter" fill="none" stroke="#085646" d="M42.5202 113.38724V34.8923"/>
<path transform="matrix(0,1.00003,1.00003,0,44.617975,128.35416)" d="M6.54549 0C4.60605 .36362 1.45454 1.45454-.72726 2.72728V-2.72728C1.45454-1.45454 4.60605-.36362 6.54549 0" fill="#085646"/>
<use data-text="x" xlink:href="#font_4_2" transform="matrix(14.346631,0,0,-14.346631,13.697845,12.018967)" fill="#085646"/>
<use data-text="C" xlink:href="#font_5_42" transform="matrix(14.346631,0,0,-14.346631,26.357232,12.018967)" fill="#085646"/>
<use data-text="o" xlink:href="#font_5_81" transform="matrix(14.346631,0,0,-14.346631,36.500299,12.018967)" fill="#085646"/>
<use data-text="n" xlink:href="#font_5_77" transform="matrix(14.346631,0,0,-14.346631,43.53015,12.018967)" fill="#085646"/>
<use data-text="t" xlink:href="#font_5_105" transform="matrix(14.346631,0,0,-14.346631,50.961709,12.018967)" fill="#085646"/>
<use data-text="e" xlink:href="#font_5_50" transform="matrix(14.346631,0,0,-14.346631,56.427774,12.018967)" fill="#085646"/>
<use data-text="x" xlink:href="#font_5_116" transform="matrix(14.346631,0,0,-14.346631,62.668565,12.018967)" fill="#085646"/>
<use data-text="t" xlink:href="#font_5_105" transform="matrix(14.346631,0,0,-14.346631,70.085788,12.018967)" fill="#085646"/>
<path transform="matrix(1.00003,0,0,-1.00003,2.0964967,163.24752)" stroke-width=".3985" stroke-linecap="butt" stroke-miterlimit="10" stroke-linejoin="miter" fill="none" stroke="#5762d5" d="M141.73404 0V141.73404"/>
<path transform="matrix(1.00003,0,0,-1.00003,2.0964967,163.24752)" stroke-width=".3985" stroke-linecap="butt" stroke-miterlimit="10" stroke-linejoin="miter" fill="none" stroke="#5762d5" d="M141.73404 141.73404H226.77448"/>
<path transform="matrix(1.00003,0,0,-1.00003,2.0964967,163.24752)" stroke-width=".3985" stroke-linecap="butt" stroke-miterlimit="10" stroke-linejoin="miter" fill="none" stroke="#5762d5" d="M226.77448 141.73404V0"/>
<path transform="matrix(1.00003,0,0,-1.00003,2.0964967,163.24752)" stroke-width=".3985" stroke-linecap="butt" stroke-miterlimit="10" stroke-linejoin="miter" fill="none" stroke="#5762d5" d="M226.77448 0H141.73404"/>
<use data-text="&#x222b;" xlink:href="#font_1_1" transform="matrix(9.962899,0,0,-9.962899,165.18439,24.196328)" fill="#5762d5"/>
<use data-text="g" xlink:href="#font_2_7" transform="matrix(9.962899,0,0,-9.962899,176.80774,37.757745)" fill="#5762d5"/>
<use data-text="(" xlink:href="#font_3_1" transform="matrix(9.962899,0,0,-9.962899,181.9169,37.757745)" fill="#5762d5"/>
<use data-text="&#x03b8;" xlink:href="#font_2_1" transform="matrix(9.962899,0,0,-9.962899,185.792,37.757745)" fill="#5762d5"/>
<use data-text=")" xlink:href="#font_3_2" transform="matrix(9.962899,0,0,-9.962899,190.74517,37.757745)" fill="#5762d5"/>
<use data-text="d" xlink:href="#font_2_5" transform="matrix(9.962899,0,0,-9.962899,197.38736,37.757745)" fill="#5762d5"/>
<use data-text="&#x03b8;" xlink:href="#font_2_1" transform="matrix(9.962899,0,0,-9.962899,202.56806,37.757745)" fill="#5762d5"/>
<use data-text="G" xlink:href="#font_2_4" transform="matrix(9.962899,0,0,-9.962899,166.08243,145.892)" fill="#5762d5"/>
<use data-text="(" xlink:href="#font_3_1" transform="matrix(9.962899,0,0,-9.962899,173.91567,145.892)" fill="#5762d5"/>
<use data-text="&#x03b8;" xlink:href="#font_2_1" transform="matrix(9.962899,0,0,-9.962899,177.78978,145.892)" fill="#5762d5"/>
<use data-text=")" xlink:href="#font_3_2" transform="matrix(9.962899,0,0,-9.962899,182.74393,145.892)" fill="#5762d5"/>
<use data-text="+" xlink:href="#font_3_3" transform="matrix(9.962899,0,0,-9.962899,188.8213,145.892)" fill="#5762d5"/>
<use data-text="C" xlink:href="#font_2_2" transform="matrix(9.962899,0,0,-9.962899,198.79541,145.892)" fill="#5762d5"/>
<path transform="matrix(1.00003,0,0,-1.00003,2.0964967,163.24752)" stroke-width="1.49442" stroke-linecap="butt" stroke-miterlimit="10" stroke-linejoin="miter" fill="none" stroke="#5762d5" d="M184.25424 113.38724V34.8923"/>
<path transform="matrix(0,1.00003,1.00003,0,186.35628,128.35416)" d="M6.54549 0C4.60605 .36362 1.45454 1.45454-.72726 2.72728V-2.72728C1.45454-1.45454 4.60605-.36362 6.54549 0" fill="#5762d5"/>
<use data-text="&#x03b8;" xlink:href="#font_4_1" transform="matrix(14.346631,0,0,-14.346631,155.95912,12.018967)" fill="#5762d5"/>
<use data-text="C" xlink:href="#font_5_42" transform="matrix(14.346631,0,0,-14.346631,167.57248,12.018967)" fill="#5762d5"/>
<use data-text="o" xlink:href="#font_5_81" transform="matrix(14.346631,0,0,-14.346631,177.71555,12.018967)" fill="#5762d5"/>
<use data-text="n" xlink:href="#font_5_77" transform="matrix(14.346631,0,0,-14.346631,184.74539,12.018967)" fill="#5762d5"/>
<use data-text="t" xlink:href="#font_5_105" transform="matrix(14.346631,0,0,-14.346631,192.17694,12.018967)" fill="#5762d5"/>
<use data-text="e" xlink:href="#font_5_50" transform="matrix(14.346631,0,0,-14.346631,197.643,12.018967)" fill="#5762d5"/>
<use data-text="x" xlink:href="#font_5_116" transform="matrix(14.346631,0,0,-14.346631,203.8838,12.018967)" fill="#5762d5"/>
<use data-text="t" xlink:href="#font_5_105" transform="matrix(14.346631,0,0,-14.346631,211.30103,12.018967)" fill="#5762d5"/>
<path transform="matrix(1.00003,0,0,-1.00003,2.0964967,163.24752)" stroke-width="1.19553" stroke-linecap="butt" stroke-miterlimit="10" stroke-linejoin="miter" fill="none" stroke="#ad343e" d="M70.867 127.56062C90.7097 141.73404 136.06476 141.73404 151.23813 130.89592"/>
<path transform="matrix(.8136944,.58121749,.58121749,-.8136944,153.33916,32.347658)" d="M5.73854 0C4.0382 .31879 1.27522 1.27522-.6376 2.39105V-2.39105C1.27522-1.27522 4.0382-.31879 5.73854 0" fill="#ad343e"/>
<use data-text="x" xlink:href="#font_6_4" transform="matrix(8.966669,0,0,-8.966669,97.53436,18.582169)" fill="#ad343e"/>
<use data-text="=" xlink:href="#font_7_3" transform="matrix(8.966669,0,0,-8.966669,105.3176,18.582169)" fill="#ad343e"/>
<use data-text="T" xlink:href="#font_6_2" transform="matrix(8.966669,0,0,-8.966669,115.04588,18.582169)" fill="#ad343e"/>
<use data-text="(" xlink:href="#font_7_1" transform="matrix(8.966669,0,0,-8.966669,121.70108,18.582169)" fill="#ad343e"/>
<use data-text="&#x03b8;" xlink:href="#font_6_1" transform="matrix(8.966669,0,0,-8.966669,125.28519,18.582169)" fill="#ad343e"/>
<use data-text=")" xlink:href="#font_7_2" transform="matrix(8.966669,0,0,-8.966669,129.85532,18.582169)" fill="#ad343e"/>
<use data-text="d" xlink:href="#font_6_3" transform="matrix(8.966669,0,0,-8.966669,87.85207,37.828744)" fill="#ad343e"/>
<use data-text="x" xlink:href="#font_6_4" transform="matrix(8.966669,0,0,-8.966669,92.622348,37.828744)" fill="#ad343e"/>
<use data-text="=" xlink:href="#font_7_3" transform="matrix(8.966669,0,0,-8.966669,100.41045,37.828744)" fill="#ad343e"/>
<use data-text="T" xlink:href="#font_6_2" transform="matrix(8.966669,0,0,-8.966669,110.13774,37.828744)" fill="#ad343e"/>
<use data-text="&#x2032;" xlink:href="#font_8_1" transform="matrix(5.97778,0,0,-5.97778,116.79394,34.019617)" fill="#ad343e"/>
<use data-text="(" xlink:href="#font_7_1" transform="matrix(8.966669,0,0,-8.966669,119.47902,37.828744)" fill="#ad343e"/>
<use data-text="&#x03b8;" xlink:href="#font_6_1" transform="matrix(8.966669,0,0,-8.966669,123.062129,37.828744)" fill="#ad343e"/>
<use data-text=")" xlink:href="#font_7_2" transform="matrix(8.966669,0,0,-8.966669,127.63226,37.828744)" fill="#ad343e"/>
<use data-text="d" xlink:href="#font_6_3" transform="matrix(8.966669,0,0,-8.966669,133.77646,37.828744)" fill="#ad343e"/>
<use data-text="&#x03b8;" xlink:href="#font_6_1" transform="matrix(8.966669,0,0,-8.966669,138.54673,37.828744)" fill="#ad343e"/>
<path transform="matrix(1.00003,0,0,-1.00003,2.0964967,163.24752)" stroke-width="1.19553" stroke-linecap="butt" stroke-miterlimit="10" stroke-linejoin="miter" fill="none" stroke="#ad343e" d="M155.90744 19.84267C136.06476 5.66927 90.7097 5.66927 75.53632 16.50739"/>
<path transform="matrix(-.8136944,-.58121749,-.58121749,.8136944,77.63509,146.73963)" d="M5.73854 0C4.0382 .31879 1.27522 1.27522-.6376 2.39105V-2.39105C1.27522-1.27522 4.0382-.31879 5.73854 0" fill="#ad343e"/>
<use data-text="x" xlink:href="#font_6_4" transform="matrix(8.966669,0,0,-8.966669,97.53436,148.98108)" fill="#ad343e"/>
<use data-text="=" xlink:href="#font_7_3" transform="matrix(8.966669,0,0,-8.966669,105.3176,148.98108)" fill="#ad343e"/>
<use data-text="T" xlink:href="#font_6_2" transform="matrix(8.966669,0,0,-8.966669,115.04588,148.98108)" fill="#ad343e"/>
<use data-text="(" xlink:href="#font_7_1" transform="matrix(8.966669,0,0,-8.966669,121.70108,148.98108)" fill="#ad343e"/>
<use data-text="&#x03b8;" xlink:href="#font_6_1" transform="matrix(8.966669,0,0,-8.966669,125.28519,148.98108)" fill="#ad343e"/>
<use data-text=")" xlink:href="#font_7_2" transform="matrix(8.966669,0,0,-8.966669,129.85532,148.98108)" fill="#ad343e"/>
</svg>
