<svg xmlns="http://www.w3.org/2000/svg" xmlns:xlink="http://www.w3.org/1999/xlink" version="1.1" width="257" height="174" viewBox="0 0 257 174">
<defs>
<path id="font_1_2" d="M.5779877 .27427674C.5249939 .3363037 .5089874 .353302 .47099305 .38031007 .4099884 .4243164 .34599305 .4413147 .29100038 .4413147 .16699219 .4413147 .07699585 .33529664 .07699585 .215271 .07699585 .098236087 .16299439-.009765625 .28799439-.009765625 .4269867-.009765625 .5239868 .10424805 .55999758 .15725708 .61299136 .09524536 .6289978 .07823181 .6669922 .051239015 .7279968 .007232666 .7919922-.009765625 .8470001-.009765625 .97099307-.009765625 1.0609894 .09623718 1.0609894 .21626282 1.0609894 .33329774 .97499087 .4413147 .84999087 .4413147 .71099856 .4413147 .6139984 .32730104 .5779877 .27427674M.6100006 .23727417C.6499939 .30229188 .7369995 .4033203 .85899356 .4033203 .96199038 .4033203 1.0329895 .31228639 1.0329895 .21626282 1.0329895 .12025452 .95500186 .04522705 .86299136 .04522705 .769989 .04522705 .70599368 .12124634 .6100006 .23727417M.5279999 .19425965C.48799134 .1292572 .40098573 .02822876 .2789917 .02822876 .17599488 .02822876 .10499573 .11924744 .10499573 .215271 .10499573 .31129457 .18299866 .38630677 .2749939 .38630677 .36799623 .38630677 .43199159 .31028749 .5279999 .19425965Z"/>
<path id="font_2_1" d="M1.2659912-1.4003906 1.3869934-1.0803223H1.3619995C1.322998-1.1843567 1.2169952-1.2523804 1.1019898-1.2823944 1.0809937-1.287384 .9830017-1.3134003 .79100039-1.3134003H.18798828L.69699099-.71621707C.70399478-.7082062 .70599368-.7052002 .70599368-.7002106 .70599368-.69821169 .70599368-.6952057 .69898989-.6851959L.23298645-.04800415H.7809906C.9149933-.04800415 1.0059967-.06199646 1.0149994-.06401062 1.0690003-.072006229 1.1559906-.089019779 1.2350006-.13902283 1.2599945-.1550293 1.3279877-.20004273 1.3619995-.2810669H1.3869934L1.2659912 0H.083999637C.06098938 0 .05999756-.0010070801 .056991579-.007003784 .055999757-.010009766 .055999757-.029006958 .055999757-.040008546L.58499148-.7642212 .066986087-1.3713989C.056991579-1.3833923 .056991579-1.3883972 .056991579-1.3894043 .056991579-1.4003906 .06599426-1.4003906 .083999637-1.4003906H1.2659912Z"/>
<path id="font_3_1" d="M.31298829 .66430667C.31399537 .66630557 .31698609 .67930606 .31698609 .68029788 .31698609 .68530276 .31298829 .6943054 .30099488 .6943054 .2809906 .6943054 .19799805 .6863098 .17298889 .6843109 .16499329 .68330386 .15098572 .682312 .15098572 .66130068 .15098572 .64730837 .16499329 .64730837 .1769867 .64730837 .22499085 .64730837 .22499085 .64030459 .22499085 .63230898 .22499085 .62532046 .22299195 .61932376 .22099304 .61032107L.07998657 .04425049C.07499695 .026229859 .07499695 .024230957 .07499695 .022232056 .07499695 .007232666 .08699036-.009765625 .10899353-.009765625 .13598633-.009765625 .14898682 .010223389 .15499878 .03224182 .15699768 .036239625 .19999695 .21234131 .20399475 .22636414 .2749939 .21936035 .33198548 .19633484 .33198548 .14430237 .33198548 .13929749 .33198548 .1342926 .32998658 .124298099 .32598878 .10928345 .32598878 .104278568 .32598878 .09327698 .32598878 .022232056 .38398744-.009765625 .43199159-.009765625 .5289917-.009765625 .5589905 .14230347 .5589905 .14331055 .5589905 .15631104 .54599 .15631104 .54299929 .15631104 .5289917 .15631104 .5279999 .15130615 .522995 .1322937 .5109863 .089263919 .48399354 .018234253 .43499757 .018234253 .4079895 .018234253 .3999939 .04324341 .3999939 .07026672 .3999939 .087265018 .3999939 .089263919 .4059906 .11528015 .40699769 .11828613 .41099549 .13529969 .41099549 .14630127 .41099549 .23536682 .29100038 .24937439 .24899292 .25238038 .27799989 .27038575 .31498719 .30340577 .33198548 .31840516 .3829956 .3664093 .43299867 .4133911 .4889984 .4133911 .5009918 .4133911 .5139923 .4104004 .5219879 .40040589 .47898866 .3934021 .46998597 .35940553 .46998597 .34440614 .46998597 .32240296 .4869995 .30740357 .5099945 .30740357 .5369873 .30740357 .5669861 .32940675 .5669861 .37139894 .5669861 .4044037 .54299929 .44140626 .48999024 .44140626 .43299867 .44140626 .3809967 .40040589 .32998658 .3534088 .28799439 .31340028 .25498963 .2823944 .21398926 .26538087L.31298829 .66430667Z"/>
<path id="font_4_2" d="M.7679901 .3359375C.7829895 .3359375 .80599978 .3359375 .80599978 .3609314 .80599978 .38493348 .7819977 .38493348 .7689972 .38493348H.10699463C.09399414 .38493348 .069992069 .38493348 .069992069 .3609314 .069992069 .3359375 .09298706 .3359375 .10798645 .3359375H.7679901M.7689972 .11602783C.7819977 .11602783 .80599978 .11602783 .80599978 .1400299 .80599978 .16503906 .7829895 .16503906 .7679901 .16503906H.10798645C.09298706 .16503906 .069992069 .16503906 .069992069 .1400299 .069992069 .11602783 .09399414 .11602783 .10699463 .11602783H.7689972Z"/>
<path id="font_4_1" d="M.5159912 .31925965C.5159912 .42918397 .5029907 .50813296 .45700074 .5780945 .42599488 .62405398 .3639984 .6640625 .28399659 .6640625 .051986696 .6640625 .051986696 .39120484 .051986696 .31925965 .051986696 .2472992 .051986696-.01953125 .28399659-.01953125 .5159912-.01953125 .5159912 .2472992 .5159912 .31925965M.28399659 .008468628C.23799134 .008468628 .1769867 .035446168 .15699768 .117385867 .14299011 .17634583 .14299011 .25830079 .14299011 .33224488 .14299011 .40519715 .14299011 .4811554 .1579895 .53611758 .1789856 .6150665 .24299622 .63604739 .28399659 .63604739 .33799745 .63604739 .3899994 .6030731 .4079895 .545105 .42399598 .4911499 .4249878 .41918946 .4249878 .33224488 .4249878 .25830079 .4249878 .18434143 .4119873 .12138367 .3919983 .030441285 .32398988 .008468628 .28399659 .008468628Z"/>
<path id="font_5_1" d="M.37298585 .37835694C.35499574 .41537477 .32598878 .4423828 .2809906 .4423828 .1639862 .4423828 .039993287 .29533387 .039993287 .14929199 .039993287 .055267335 .09498596-.0107421879 .17298889-.0107421879 .19299317-.0107421879 .24299622-.0067443849 .30299378 .06427002 .31098939 .022247315 .34599305-.0107421879 .3939972-.0107421879 .42900086-.0107421879 .45199586 .012252808 .46798707 .044265748 .4850006 .08027649 .49798585 .14129639 .49798585 .14329529 .49798585 .1532898 .4889984 .1532898 .48599244 .1532898 .47599793 .1532898 .47499085 .14929199 .47200013 .13528443 .45498658 .07026672 .43699647 .011245728 .3959961 .011245728 .36898805 .011245728 .3659973 .037261964 .3659973 .057266237 .3659973 .07926941 .36799623 .08728027 .3789978 .13128662 .3899994 .17329407 .3919983 .18330384 .40098573 .22131348L.43699647 .36135865C.44400025 .38935853 .44400025 .39135743 .44400025 .39537049 .44400025 .41236878 .43199159 .42237855 .4149933 .42237855 .3909912 .42237855 .37599183 .4003601 .37298585 .37835694M.30799867 .119277957C.30299378 .10127258 .30299378 .09927368 .28799439 .08227539 .24398804 .027252198 .20298767 .011245728 .1749878 .011245728 .125 .011245728 .11099243 .06626892 .11099243 .105285648 .11099243 .1552887 .14299011 .27833558 .1659851 .32434083 .19699097 .38336183 .24198914 .42037965 .28199769 .42037965 .34700013 .42037965 .36099244 .3383484 .36099244 .33235169 .36099244 .32633973 .35899354 .32034303 .35798646 .31533814L.30799867 .119277957Z"/>
<path id="font_6_4" d="M.1769867 .69433596 .032989503 .68333438V.6523285C.102996829 .6523285 .11099243 .6453247 .11099243 .5962982V.07601929C.11099243 .0309906 .099990848 .0309906 .032989503 .0309906V0C.06599426 .0009918213 .11898804 .0029907227 .14399719 .0029907227 .16899109 .0029907227 .21798706 .0009918213 .25498963 0V.0309906C.18798828 .0309906 .1769867 .0309906 .1769867 .07601929V.69433596Z"/>
<path id="font_6_3" d="M.1769867 .4423828 .036987306 .43138124V.40037538C.101989749 .40037538 .11099243 .3943634 .11099243 .34532167V.076034549C.11099243 .0309906 .099990848 .0309906 .032989503 .0309906V0C.06498718 .0009918213 .11898804 .0029907227 .14299011 .0029907227 .17799378 .0029907227 .21299744 .0009918213 .24699402 0V.0309906C.18099976 .0309906 .1769867 .035995485 .1769867 .075042728V.4423828M.18099976 .6159363C.18099976 .64793398 .1559906 .6689453 .12799073 .6689453 .09700012 .6689453 .07499695 .64193728 .07499695 .6159363 .07499695 .5889435 .09700012 .5629425 .12799073 .5629425 .1559906 .5629425 .18099976 .5839386 .18099976 .6159363Z"/>
<path id="font_6_5" d="M.10998535 .34429933V.076034549C.10998535 .0309906 .09899902 .0309906 .03199768 .0309906V0C.066986087 .0009918213 .117996219 .0029907227 .14498902 .0029907227 .17098999 .0029907227 .22299195 .0009918213 .25698854 0V.0309906C.18998719 .0309906 .1789856 .0309906 .1789856 .076034549V.2602234C.1789856 .36431886 .25 .42037965 .31399537 .42037965 .3769989 .42037965 .3880005 .36631776 .3880005 .30926515V.076034549C.3880005 .0309906 .3769989 .0309906 .30999757 .0309906V0C.34498597 .0009918213 .3959961 .0029907227 .4229889 .0029907227 .44898988 .0029907227 .5009918 .0009918213 .5349884 0V.0309906C.46798707 .0309906 .45700074 .0309906 .45700074 .076034549V.2602234C.45700074 .36431886 .5279999 .42037965 .59199526 .42037965 .6549988 .42037965 .66600039 .36631776 .66600039 .30926515V.076034549C.66600039 .0309906 .6549988 .0309906 .58799746 .0309906V0C.6230011 .0009918213 .673996 .0029907227 .70098879 .0029907227 .72698977 .0029907227 .7789917 .0009918213 .8129883 0V.0309906C.7609863 .0309906 .73599246 .0309906 .7350006 .061019899V.25221253C.7350006 .3383026 .7350006 .36932374 .70399478 .405365 .6899872 .42237855 .6569977 .4423828 .598999 .4423828 .5149994 .4423828 .47099305 .38233949 .45399476 .34429933 .43998719 .43138124 .3659973 .4423828 .32099916 .4423828 .24798584 .4423828 .20098877 .39935304 .17298889 .33729554V.4423828L.03199768 .43138124V.40037538C.101989749 .4003601 .10998535 .39335633 .10998535 .34429933Z"/>
<path id="font_3_2" d="M.12199402 .06324768C.117996219 .050247194 .11199951 .025222779 .11199951 .022232056 .11199951 .00022888184 .12998963-.009765625 .1459961-.009765625 .1639862-.009765625 .17999268 .0032196046 .18499756 .01222229 .18998719 .021224976 .19799805 .053237916 .20298767 .07424927 .20799256 .09326172 .21899414 .13928223 .22499085 .16429138 .23098755 .18629456 .23699951 .20831299 .24198914 .23132324 .25299073 .27233888 .25498963 .28033448 .28399659 .32136537 .31199647 .3613739 .35899354 .4133911 .43399049 .4133911 .49198915 .4133911 .49299623 .36238099 .49299623 .34336854 .49299623 .28334046 .44999696 .17228699 .43399049 .13027954 .4229889 .102264408 .4189911 .09326172 .4189911 .07624817 .4189911 .023223877 .46299745-.009765625 .5139923-.009765625 .6139984-.009765625 .6579895 .12828064 .6579895 .14328003 .6579895 .15628052 .644989 .15628052 .6419983 .15628052 .6279907 .15628052 .6269989 .15028382 .6230011 .13928223 .59999087 .059249879 .5569916 .018234253 .5169983 .018234253 .49598695 .018234253 .49198915 .032226564 .49198915 .053237916 .49198915 .07624817 .49699403 .089263919 .5149994 .13427735 .5269928 .1652832 .56799319 .2713318 .56799319 .32736207 .56799319 .4243927 .4909973 .44140626 .43798829 .44140626 .35499574 .44140626 .29899598 .39038087 .2689972 .3503723 .2619934 .41940309 .20298767 .44140626 .1619873 .44140626 .11898804 .44140626 .09599304 .4104004 .08299255 .38739015 .06098938 .3503723 .04699707 .29335023 .04699707 .28834535 .04699707 .27534486 .06098938 .27534486 .06399536 .27534486 .07798767 .27534486 .07899475 .27833558 .085998538 .3053589 .100997928 .36437989 .11999512 .4133911 .15899658 .4133911 .18499756 .4133911 .19198609 .39138795 .19198609 .36437989 .19198609 .34536744 .18299866 .3083496 .17599488 .28134156 .16899109 .2543335 .15899658 .21331787 .1539917 .19129944L.12199402 .06324768Z"/>
<path id="font_1_1" d="M.91999819 .2263794C.7939911 .13398743 .7769928 .0028076173 .7769928 .0018157959 .7769928-.013183594 .7869873-.013183594 .8009949-.013183594 .81900027-.013183594 .82199099-.013183594 .82699587 .0038146973 .83299258 .028808594 .848999 .092819217 .901001 .14805603 .95899966 .20930481 1.0089874 .2243805 1.0509949 .23738098 1.0569916 .23937989 1.0609894 .24537659 1.0609894 .25038148 1.0609894 .26037599 1.0549927 .26239015 1.0419922 .26638795 .897995 .3123169 .8470001 .41412355 .82598879 .502121 .82199099 .51412966 .8149872 .51412966 .8009949 .51412966 .7869873 .51412966 .7769928 .51412966 .7769928 .49913026 .7769928 .49713136 .7869873 .43013 .83599856 .3612213 .85899356 .32728578 .8869934 .29933167 .91999819 .27539063H.116989139C.100997928 .27539063 .07699585 .27539063 .07699585 .25138856 .07699585 .2263794 .099990848 .2263794 .116989139 .2263794H.91999819Z"/>
<path id="font_7_49" d="M.6519928 .2579193H.6269989C.60198977 .10397339 .57899478 .0309906 .40699769 .0309906H.27398683C.22698975 .0309906 .22499085 .037994386 .22499085 .07098389V.33789063H.31498719C.4119873 .33789063 .4229889 .30589295 .4229889 .220932H.44799806V.48606874H.4229889C.4229889 .39994813 .4119873 .36888124 .31498719 .36888124H.22499085V.6087799C.22499085 .6416931 .22698975 .64868167 .27398683 .64868167H.40299989C.55599978 .64868167 .58299258 .59381106 .598999 .45507813H.6239929L.59599307 .6796875H.032989503V.64868167H.056991579C.13398743 .64868167 .13598633 .6377106 .13598633 .6017914V.07797241C.13598633 .041992189 .13398743 .0309906 .056991579 .0309906H.032989503V0H.6100006L.6519928 .2579193Z"/>
<path id="font_7_116" d="M.5159912 0V.0309906C.46199037 .03125 .44400025 .0332489 .42099 .0622406L.2869873 .23493958C.31698609 .27287293 .35499574 .3217926 .3789978 .3477478 .4099884 .38368226 .45098878 .39866639 .49798585 .3996582V.43066407C.47200013 .4286499 .44198609 .42765809 .41600038 .42765809 .38598634 .42765809 .33299256 .42965699 .31999208 .43066407V.3996582C.34098817 .3973999 .34899903 .3843994 .34899903 .3684082 .34899903 .35240174 .33898927 .33940126 .33399964 .33340455L.27198792 .2554016 .19400025 .35639955C.18499756 .3664093 .18499756 .3684082 .18499756 .3744049 .18499756 .3894043 .19999695 .39840699 .21998596 .39941407V.43066407L.11199951 .42765809C.09098816 .42765809 .04399109 .4286499 .016998291 .43066407V.3996582C.08699036 .3996582 .08799744 .39865113 .1349945 .3387146L.23399353 .20982361C.18699646 .14988709 .18699646 .14788819 .13999939 .09094238 .09199524 .032989503 .032989503 .0309906 .011993408 .0309906V0C.037994386 .0019989014 .068984989 .0029907227 .09498596 .0029907227L.18998719 0V.0309906C.16799927 .034240724 .16099549 .04724121 .16099549 .0622406 .16099549 .084243778 .18998719 .117248538 .25099183 .1892395L.32699586 .08924866C.33499146 .07824707 .34799195 .0622406 .34799195 .056243898 .34799195 .04724121 .33898927 .03224182 .31199647 .03125V0L.41999818 .0029907227C.44699098 .0029907227 .48599244 .0019989014 .5159912 0Z"/>
<path id="font_7_66" d="M.24699402 0V.0309906C.18099976 .0309906 .1769867 .035995485 .1769867 .075042728V.4423828L.036987306 .43066407V.3996582C.101989749 .3996582 .11099243 .3936615 .11099243 .3447113V.07595825C.11099243 .0309906 .099990848 .0309906 .032989503 .0309906V0L.14299011 .0029907227C.17799378 .0029907227 .21299744 .0009918213 .24699402 0M.19198609 .603775C.19198609 .6307678 .16899109 .6567688 .13899231 .6567688 .10499573 .6567688 .084991458 .6287689 .084991458 .603775 .084991458 .57676699 .10798645 .55078127 .13798523 .55078127 .17199707 .55078127 .19198609 .5787811 .19198609 .603775Z"/>
<path id="font_7_98" d="M.3600006 .12823487C.3600006 .18122864 .32998658 .21122742 .31799317 .22323609 .2849884 .25523377 .24598694 .26322938 .20399475 .27124024 .147995 .28224183 .08099365 .29522706 .08099365 .35324098 .08099365 .38822938 .10699463 .42922975 .19299317 .42922975 .30299378 .42922975 .30799867 .3392334 .30999757 .30822755 .31098939 .2992401 .32199098 .2992401 .32199098 .2992401 .33499146 .2992401 .33499146 .30422975 .33499146 .32322694V.4242401C.33499146 .4412384 .33499146 .4482422 .32398988 .4482422 .31900025 .4482422 .31698609 .4482422 .3039856 .43623353 .30099488 .43223573 .29100038 .42323304 .2869873 .42022706 .24899292 .4482422 .20799256 .4482422 .19299317 .4482422 .070999149 .4482422 .032989503 .38124085 .032989503 .3252411 .032989503 .29023744 .04899597 .26223756 .07598877 .24023438 .10798645 .2142334 .13598633 .2082367 .20799256 .19422913 .22999573 .19021607 .31199647 .17422486 .31199647 .10221863 .31199647 .051223756 .2769928 .011245728 .19898987 .011245728 .114990238 .011245728 .07899475 .068222049 .05999756 .1532135 .056991579 .16621399 .055999757 .17021179 .04598999 .17021179 .032989503 .17021179 .032989503 .16322327 .032989503 .1452179V.013214111C.032989503-.003753662 .032989503-.0107421879 .04399109-.0107421879 .04899597-.0107421879 .049987794-.009750366 .068984989 .009246826 .070999149 .011245728 .070999149 .013214111 .08898926 .032226564 .1329956-.009750366 .17799378-.0107421879 .19898987-.0107421879 .31399537-.0107421879 .3600006 .05621338 .3600006 .1282196V.12823487Z"/>
<path id="font_7_105" d="M.33198548 .12385559V.18066406H.30699159V.12585449C.30699159 .052108766 .2769928 .014251709 .23999024 .014251709 .17298889 .014251709 .17298889 .10491943 .17298889 .12187195V.3996582H.31599427V.43066407H.17298889V.6142578H.147995C.14698792 .5324249 .116989139 .42565919 .018997193 .42166139V.3996582H.10398865V.12408447C.10398865 .0012512207 .19699097-.0107421879 .23298645-.0107421879 .3039856-.0107421879 .33198548 .060180665 .33198548 .12408447V.12385559Z"/>
<path id="font_7_50" d="M.4149933 .11933899C.4149933 .12934876 .40699769 .13134766 .4019928 .13134766 .3929901 .13134766 .3909912 .12535095 .3889923 .11734009 .35398866 .014251709 .2639923 .014251709 .2539978 .014251709 .20399475 .014251709 .1639862 .044281007 .14099121 .08131409 .11099243 .12934876 .11099243 .19540406 .11099243 .23144531H.3899994C.4119873 .23144531 .4149933 .23144531 .4149933 .2524414 .4149933 .35131837 .36099244 .4482422 .23599243 .4482422 .11999512 .4482422 .027999878 .34532167 .027999878 .22042847 .027999878 .08631897 .1329956-.0107421879 .24798584-.0107421879 .36999513-.0107421879 .4149933 .10032654 .4149933 .11933899M.34899903 .2524414H.11199951C.117996219 .40126039 .20199585 .426239 .23599243 .426239 .33898927 .426239 .34899903 .2913971 .34899903 .2524414Z"/>
<path id="font_7_77" d="M.5349884 0V.0309906C.48298646 .0309906 .45799256 .0309906 .45700074 .061019899V.25221253C.45700074 .3383026 .45700074 .36932374 .42599488 .405365 .4119873 .42237855 .3789978 .4423828 .32099916 .4423828 .24798584 .4423828 .20098877 .39935304 .17298889 .33729554V.4423828L.03199768 .43066407V.3996582C.101989749 .3996582 .10998535 .39266969 .10998535 .34370423V.07595825C.10998535 .0309906 .09899902 .0309906 .03199768 .0309906V0L.14498902 .0029907227 .25698854 0V.0309906C.18998719 .0309906 .1789856 .0309906 .1789856 .07595825V.25978089C.1789856 .36431886 .25 .42037965 .31399537 .42037965 .3769989 .42037965 .3880005 .36631776 .3880005 .30926515V.076034549C.3880005 .0309906 .3769989 .0309906 .30999757 .0309906V0L.4229889 .0029907227 .5349884 0Z"/>
<path id="font_7_43" d="M.4149933 .119140628C.4149933 .12911988 .40499879 .12911988 .4019928 .12911988 .3929901 .12911988 .3909912 .12512207 .3889923 .119140628 .3600006 .026229859 .29499818 .014251709 .2579956 .014251709 .20498657 .014251709 .116989139 .0572052 .116989139 .21801758 .116989139 .38093568 .19898987 .42323304 .2519989 .42323304 .26098634 .42323304 .32398988 .42222596 .35899354 .38594056 .31799317 .38293458 .31199647 .3529358 .31199647 .3399353 .31199647 .31393434 .32998658 .2939453 .35798646 .2939453 .38398744 .2939453 .4039917 .3109436 .4039917 .34094239 .4039917 .40911866 .32798768 .4482422 .25099183 .4482422 .12599182 .4482422 .033996583 .3399353 .033996583 .21601868 .033996583 .08816528 .1329956-.0107421879 .24899292-.0107421879 .3829956-.0107421879 .4149933 .10914612 .4149933 .119140628Z"/>
<path id="font_7_81" d="M.47099305 .21424866C.47099305 .34223939 .37098695 .4482422 .25 .4482422 .125 .4482422 .027999878 .3392334 .027999878 .21424866 .027999878 .085250858 .13198853-.0107421879 .24899292-.0107421879 .36999513-.0107421879 .47099305 .087249759 .47099305 .21424866M.3880005 .22224427C.3880005 .18624878 .3880005 .13224793 .3659973 .08824158 .34399415 .04324341 .2999878 .014251709 .25 .014251709 .20698548 .014251709 .16299439 .035247804 .13598633 .08125305 .11099243 .12524414 .11099243 .18624878 .11099243 .22224427 .11099243 .26124574 .11099243 .31523133 .1349945 .35923768 .1619873 .40522767 .20899964 .426239 .24899292 .426239 .29299928 .426239 .33599855 .40423585 .3619995 .36123658 .3880005 .3182373 .3880005 .26023866 .3880005 .22224427Z"/>
<path id="font_7_55" d="M.35699464 .63479617C.35699464 .6717987 .31999208 .7050781 .2669983 .7050781 .19699097 .7050781 .11199951 .65179446 .11199951 .5457611V.43066407H.032989503V.3996582H.11199951V.07595825C.11199951 .0309906 .100997928 .0309906 .033996583 .0309906V0L.147995 .0029907227C.18798828 .0029907227 .23498535 .0029907227 .2749939 0V.0309906H.2539978C.17999268 .0309906 .17799378 .04197693 .17799378 .07795715V.3996582H.2919922V.43066407H.1749878V.5467529C.1749878 .63479617 .22299195 .68307498 .2669983 .68307498 .269989 .68307498 .2849884 .68307498 .2999878 .675827 .28799439 .6717987 .269989 .6587982 .269989 .6338043 .269989 .61079409 .28599549 .5907898 .31298829 .5907898 .34199525 .5907898 .35699464 .61079409 .35699464 .63479617Z"/>
<path id="font_8_46" d="M.69299319 .33480836C.69299319 .5276947 .55799868 .6826172 .3919983 .6826172H.041992189V.6536102H.06199646C.13398743 .6536102 .13699341 .6436157 .13699341 .6066437V.07595825C.13699341 .038986207 .13398743 .0289917 .06199646 .0289917H.041992189V0H.3919983C.5589905 0 .69299319 .1499176 .69299319 .33480836M.60198977 .33580018C.60198977 .2798462 .6009979 .18589783 .5439911 .11193848 .5109863 .06996155 .45098878 .0289917 .36698915 .0289917H.2619934C.21798706 .0289917 .21598816 .035995485 .21598816 .06896973V.6136322C.21598816 .6466217 .21798706 .6536102 .2619934 .6536102H.36698915C.44999696 .6536102 .5159912 .6136322 .5569916 .5476837 .60198977 .4767151 .60198977 .3757782 .60198977 .33580018Z"/>
<path id="font_8_66" d="M.24099732 0V.0289917C.17599488 .0289917 .17199707 .033996583 .17199707 .07304382V.44140626L.035995485 .4303589V.4013672C.099990848 .4013672 .10899353 .39535523 .10899353 .34629823V.074035648C.10899353 .0289917 .09799194 .0289917 .032989503 .0289917V0C.06098938 .0019989014 .10899353 .0019989014 .13798523 .0019989014 .14898682 .0019989014 .20698548 .0019989014 .24099732 0M.18499756 .6043091C.18499756 .63430789 .16099549 .6533203 .13699341 .6533203 .10899353 .6533203 .08799744 .63131716 .08799744 .6043091 .08799744 .5783081 .10998535 .55630496 .13598633 .55630496 .1659851 .55630496 .18499756 .580307 .18499756 .6043091Z"/>
<path id="font_8_98" d="M.35198976 .12739563C.35198976 .181427 .31900025 .21340943 .30999757 .22239685 .27398683 .25338746 .24699402 .25938417 .18099976 .27137757 .15098572 .27737428 .07798767 .29136659 .07798767 .35131837 .07798767 .38230897 .09899902 .4282837 .18899536 .4282837 .2979889 .4282837 .3039856 .33532716 .30599977 .3043518 .30699159 .2963562 .31399537 .2963562 .31698609 .2963562 .32798768 .2963562 .32798768 .30136109 .32798768 .3193512V.4232788C.32798768 .44128419 .32798768 .44628907 .31799317 .44628907 .30999757 .44628907 .29100038 .4242859 .28399659 .4152832 .25299073 .4402771 .22200012 .44628907 .18998719 .44628907 .068984989 .44628907 .032989503 .38031007 .032989503 .32533265 .032989503 .3143463 .032989503 .27937318 .070999149 .24438477 .102996829 .21640015 .13699341 .20941162 .18299866 .20040894 .23799134 .1894226 .25099183 .18641663 .27598573 .16642761 .2939911 .15142823 .30699159 .12940979 .30699159 .101364139 .30699159 .05831909 .28199769 .010253906 .19400025 .010253906 .12799073 .010253906 .07998657 .048294069 .057998659 .1484375 .053985597 .16642761 .052993776 .16842652 .052993776 .16842652 .050994874 .17242432 .04699707 .17242432 .04399109 .17242432 .032989503 .17242432 .032989503 .16743469 .032989503 .14942932V.013259888C.032989503-.004760742 .032989503-.009765625 .042999269-.009765625 .04798889-.009765625 .04899597-.008773804 .06599426 .012252808 .070999149 .019256592 .070999149 .021270752 .085998538 .03729248 .12399292-.009765625 .17799378-.009765625 .19499207-.009765625 .2999878-.009765625 .35198976 .048294069 .35198976 .12739563Z"/>
<path id="font_8_43" d="M.4059906 .1191864C.4059906 .12817383 .39898683 .12817383 .3959961 .12817383 .3869934 .12817383 .38598634 .1251831 .3829956 .1131897 .36099244 .04222107 .30699159 .01222229 .25299073 .01222229 .19198609 .01222229 .11099243 .065200809 .11099243 .21713257 .11099243 .3831482 .19599915 .4242859 .24598694 .4242859 .28399659 .4242859 .33898927 .40924073 .3619995 .3701172 .34999085 .3701172 .31298829 .3701172 .31298829 .32911683 .31298829 .30511476 .32998658 .28811646 .35398866 .28811646 .3769989 .28811646 .3959961 .30210877 .3959961 .33111573 .3959961 .39819337 .32598878 .44628907 .24499512 .44628907 .12799073 .44628907 .034988405 .34210206 .034988405 .21614075 .034988405 .0881958 .1309967-.009765625 .24398804-.009765625 .37599183-.009765625 .4059906 .110183719 .4059906 .1191864Z"/>
<path id="font_8_96" d="M.35299684 .38339234C.35299684 .4133911 .32598878 .44140626 .2829895 .44140626 .19799805 .44140626 .16899109 .34939576 .16299439 .33039857H.1619873V.44140626L.027999878 .4303589V.4013672C.09599304 .4013672 .10398865 .39434815 .10398865 .3453064V.074035648C.10398865 .0289917 .09298706 .0289917 .027999878 .0289917V0C.055999757 .0019989014 .11099243 .0019989014 .14099121 .0019989014 .16799927 .0019989014 .23899842 .0019989014 .2619934 0V.0289917H.24198914C.16899109 .02973938 .16699219 .040740968 .16699219 .07673645V.23374939C.16699219 .3307495 .20698548 .42173768 .28399659 .42173768 .2919922 .42173768 .2939911 .42173768 .2979889 .42074586 .2899933 .41674806 .27398683 .41073609 .27398683 .3837433 .27398683 .35473634 .29699708 .34375 .31298829 .34375 .33299256 .34375 .35299684 .35673524 .35299684 .3837433V.38339234Z"/>
<path id="font_8_50" d="M.40699769 .11932373C.40699769 .1253357 .4019928 .1293335 .3959961 .1293335 .3880005 .1293335 .38598634 .12432861 .38398744 .11932373 .35798646 .035247804 .29100038 .01222229 .24899292 .01222229 .20698548 .01222229 .10598755 .040252687 .10598755 .21340943V.23242188H.3829956C.40499879 .23242188 .40699769 .23242188 .40699769 .25141908 .40699769 .3523407 .35299684 .44628907 .23199463 .44628907 .117996219 .44628907 .02999878 .34335328 .02999878 .21940613 .02999878 .08729553 .13198853-.009765625 .24299622-.009765625 .3619995-.009765625 .40699769 .09829712 .40699769 .11932373M.34498597 .25141908H.10699463C.114990238 .40830995 .20298767 .42630006 .23098755 .42630006 .33799745 .42630006 .34399415 .28538514 .34498597 .25141908Z"/>
<path id="font_8_105" d="M.32598878 .124069217V.1809845H.3039856V.12606812C.3039856 .0541687 .2749939 .01222229 .23599243 .01222229 .16799927 .01222229 .16799927 .10508728 .16799927 .12207031V.4016571H.30899049V.43066407H.16799927V.6142578H.1459961C.14498902 .52046206 .10899353 .4246521 .017990113 .42166139V.4016571H.102996829V.124069217C.102996829 .01322937 .1769867-.009765625 .22999573-.009765625 .29299928-.009765625 .32598878 .0521698 .32598878 .124069217Z"/>
<path id="font_8_42" d="M.6519928 .23170471C.6519928 .24272156 .6519928 .24871826 .6409912 .24871826 .6309967 .24871826 .6299896 .24371338 .6299896 .2367096 .62098696 .07757568 .5049896 .007507324 .4079895 .007507324 .33799745 .007507324 .14698792 .049545289 .14698792 .34179688 .14698792 .63105776 .33499146 .6750946 .40699769 .6750946 .5119934 .6750946 .60398867 .5860138 .6239929 .43588258 .6259918 .4238739 .6259918 .42086793 .6380005 .42086793 .6519928 .42086793 .6519928 .4238739 .6519928 .44389344V.6810913C.6519928 .6990967 .6519928 .70410159 .6419983 .70410159 .6359863 .70410159 .6349945 .7020874 .6289978 .6920929L.5799866 .6130371C.5349884 .6690979 .46699525 .70410159 .394989 .70410159 .21199036 .70410159 .053985597 .54597476 .053985597 .34179688 .053985597 .13461304 .21398926-.021484375 .394989-.021484375 .5589905-.021484375 .6519928 .12161255 .6519928 .23170471Z"/>
<path id="font_8_81" d="M.45899964 .21424866C.45899964 .34326173 .36099244 .44628907 .24499512 .44628907 .125 .44628907 .02999878 .340271 .02999878 .21424866 .02999878 .086242679 .12998963-.009765625 .24398804-.009765625 .3619995-.009765625 .45899964 .08824158 .45899964 .21424866M.3829956 .22325135C.3829956 .18824768 .3829956 .12623596 .35699464 .07923889 .32899476 .031234742 .2829895 .01222229 .24499512 .01222229 .20799256 .01222229 .16299439 .02822876 .13398743 .07723999 .10699463 .12223816 .10598755 .1812439 .10598755 .22325135 .10598755 .261261 .10598755 .32226563 .13699341 .3672638 .16499329 .41027833 .20899964 .42626954 .24398804 .42626954 .2829895 .42626954 .32499696 .40827943 .35198976 .3692627 .3829956 .32325746 .3829956 .2602539 .3829956 .22325135Z"/>
<path id="font_8_77" d="M.5209961 0V.0289917C.47099305 .0289917 .44599916 .0289917 .44499208 .059051515V.24342346C.44499208 .3365631 .44499208 .36450196 .42199708 .39640809 .3929901 .4353943 .34599305 .44140626 .31199647 .44140626 .21499634 .44140626 .1769867 .35850526 .16899109 .338562H.16799927V.44140626L.03199768 .4303589V.4013672C.099990848 .4013672 .10798645 .39437867 .10798645 .34553529V.07408142C.10798645 .0289917 .09700012 .0289917 .03199768 .0289917V0C.057998659 .0019989014 .11199951 .0019989014 .13999939 .0019989014 .16899109 .0019989014 .22299195 .0019989014 .24899292 0V.0289917C.18499756 .0289917 .17298889 .0289917 .17298889 .07408142V.26046754C.17298889 .36547853 .24198914 .4213562 .3039856 .4213562 .3659973 .4213562 .37998963 .37045289 .37998963 .3095703V.07408142C.37998963 .0289917 .36898805 .0289917 .3039856 .0289917V0C.32998658 .0019989014 .38398744 .0019989014 .4119873 .0019989014 .44099427 .0019989014 .49499513 .0019989014 .5209961 0Z"/>
<path id="font_8_116" d="M.5059967 0V.0289917C.45298768 .0289917 .43499757 .0309906 .41099549 .06295776L.27999879 .23580933C.30899049 .2737732 .35099793 .32772828 .36999513 .3487091 .41099549 .39465333 .45799256 .4016571 .48999024 .4016571V.43066407C.44699098 .4286499 .44499208 .4286499 .4059906 .4286499L.31599427 .43066407V.4016571C.32899476 .3996582 .34498597 .3936615 .34498597 .37068177 .34498597 .35369874 .33599855 .3427124 .32998658 .3347168L.2659912 .25378419 .18798828 .35668946C.18499756 .36068727 .1789856 .36968995 .1789856 .37667848 .1789856 .38267518 .18399048 .40065003 .21398926 .4016571V.43066407C.18899536 .4286499 .13798523 .4286499 .11099243 .4286499L.01499939 .43066407V.4016571C.06599426 .4013672 .084991458 .39935304 .10598755 .37236024L.22299195 .21972656C.22499085 .2177124 .22898865 .2117157 .22898865 .20872498 .22898865 .205719 .15098572 .10786438 .14099121 .09487915 .09700012 .04096985 .052993776 .02998352 .009994507 .0289917V0C.04798889 .0019989014 .049987794 .0019989014 .09298706 .0019989014L.18299866 0V.0289917C.15899658 .031982423 .15499878 .046966554 .15499878 .060943605 .15499878 .0769043 .1619873 .0848999 .17199707 .09786987L.24398804 .1907196 .32598878 .08389282C.34298707 .061935426 .34298707 .059936525 .34298707 .053955079 .34298707 .045959474 .33499146 .02998352 .30799867 .0289917V0C.33399964 .0019989014 .3829956 .0019989014 .41099549 .0019989014L.5059967 0Z"/>
<path id="font_2_2" d="M.10398865-2.177124C.13598633-2.1751099 .15299988-2.1531068 .15299988-2.1281129 .15299988-2.095108 .12799073-2.0791016 .10499573-2.0791016 .08099365-2.0791016 .055999757-2.0941163 .055999757-2.1291047 .055999757-2.18013 .10598755-2.2221986 .16699219-2.2221986 .31900025-2.2221986 .37599183-1.9880982 .44699098-1.6980591 .5239868-1.382019 .58898928-1.062973 .6429901-.7419281 .6799927-.52890017 .71699526-.32887269 .7509918-.19985962 .7630005-.15084839 .7969971-.022003174 .83599856-.022003174 .86698916-.022003174 .8919983-.040893556 .8959961-.0448761 .86299136-.04685974 .84599307-.068862918 .84599307-.09385681 .84599307-.12686157 .87098696-.14285279 .8939972-.14285279 .91799929-.14285279 .94299319-.1278534 .94299319-.09286499 .94299319-.038909913 .8889923 0 .83399966 0 .7579956 0 .70199587-.1088562 .6469879-.3128662 .6439972-.3238678 .5079956-.825943 .397995-1.4800263 .37199403-1.6330414 .34298707-1.8000641 .30999757-1.9390869 .2919922-2.0121003 .24598694-2.2001954 .16499329-2.2001954 .1289978-2.2001954 .10499573-2.177124 .10398865-2.177124Z"/>
<path id="font_3_4" d="M.24899292 .10601807C.23899842 .072021488 .20599365 .018234253 .15499878 .018234253 .1519928 .018234253 .12199402 .018234253 .100997928 .03215027 .14199829 .04508972 .14498902 .08100891 .14498902 .087020877 .14498902 .10900879 .12799073 .12402344 .10499573 .12402344 .07699585 .12402344 .04798889 .10002136 .04798889 .0630188 .04798889 .01322937 .10398865-.009765625 .15299988-.009765625 .19898987-.009765625 .23999024 .019226075 .2649994 .061019899 .2889862 .008224487 .34399415-.009765625 .38398744-.009765625 .49899293-.009765625 .55999758 .11502075 .55999758 .14305115 .55999758 .15608216 .5469971 .15608216 .5439911 .15608216 .5299988 .15608216 .5289917 .15107727 .5249939 .13905335 .5039978 .07002258 .44400025 .018234253 .3880005 .018234253 .34799195 .018234253 .32699586 .04508972 .32699586 .08302307 .32699586 .10900879 .35099793 .20018006 .3789978 .31140138 .39898683 .38841249 .44400025 .4133911 .47698976 .4133911 .47898866 .4133911 .5099945 .4133911 .5309906 .39941407 .49899293 .39041139 .4869995 .3624115 .4869995 .34440614 .4869995 .32240296 .5039978 .30740357 .5269928 .30740357 .5499878 .30740357 .58299258 .32640077 .58299258 .3684082 .58299258 .4243927 .5189972 .44140626 .47898866 .44140626 .42900086 .44140626 .3889923 .4084015 .36698915 .3704071 .34899903 .4113922 .30299378 .44140626 .24699402 .44140626 .1349945 .44140626 .070999149 .31840516 .070999149 .2883606 .070999149 .27534486 .084991458 .27534486 .08799744 .27534486 .100997928 .27534486 .101989749 .27934266 .10699463 .29237367 .13198853 .3704071 .19499207 .4133911 .24398804 .4133911 .2769928 .4133911 .3039856 .395401 .3039856 .3474121 .3039856 .32740785 .2919922 .27734376 .2829895 .24327088L.24899292 .10601807Z"/>
<path id="font_5_3" d="M.36698915 .3996582H.45298768C.47299195 .3996582 .48298646 .3996582 .48298646 .41966249 .48298646 .43066407 .47299195 .43066407 .45599366 .43066407H.37298585L.3939972 .5449524C.397995 .5660095 .4119873 .6370239 .41799928 .6490326 .4269867 .66804507 .44400025 .68307498 .46499635 .68307498 .46899415 .68307498 .49499513 .68307498 .5139923 .66503909 .46998597 .661026 .45999146 .6260376 .45999146 .6110382 .45999146 .58802798 .47799684 .57603457 .49699403 .57603457 .522995 .57603457 .5519867 .5980377 .5519867 .6360321 .5519867 .6820679 .5059967 .7050781 .46499635 .7050781 .43099977 .7050781 .36799623 .68707278 .33799745 .58802798 .33198548 .56700137 .32899476 .5569763 .30499269 .43066407H.23599243C.21699524 .43066407 .20599365 .43066407 .20599365 .4116516 .20599365 .3996582 .21499634 .3996582 .23399353 .3996582H.2999878L.22499085 .0048828127C.20698548-.09207153 .18998719-.18309021 .13798523-.18309021 .13398743-.18309021 .10899353-.18309021 .08999634-.16506958 .13598633-.1620636 .14498902-.12606812 .14498902-.111068729 .14498902-.08807373 .1269989-.07606506 .10798645-.07606506 .08198547-.07606506 .052993776-.09806824 .052993776-.13606262 .052993776-.18109131 .09700012-.20507813 .13798523-.20507813 .19299317-.20507813 .23298645-.14607239 .25099183-.108062747 .2829895-.04508972 .30599977 .07583618 .30699159 .082839969L.36698915 .3996582Z"/>
<path id="font_6_1" d="M.33099366-.2400055C.33099366-.23701477 .33099366-.23500061 .31399537-.21800232 .18899536-.0920105 .15699768 .09700012 .15699768 .25 .15699768 .42399598 .19499207 .59799197 .31799317 .72299197 .33099366 .73498538 .33099366 .7369995 .33099366 .73999026 .33099366 .746994 .32699586 .75 .32099916 .75 .31098939 .75 .22099304 .6819916 .1619873 .5549927 .11099243 .44499208 .09899902 .33399964 .09899902 .25 .09899902 .17199707 .10998535 .050994874 .16499329-.06201172 .22499085-.18501282 .31098939-.25 .32099916-.25 .32699586-.25 .33099366-.24700928 .33099366-.2400055Z"/>
<path id="font_5_4" d="M.33399964 .30233766C.33999635 .32835389 .36299134 .42037965 .43299867 .42037965 .43798829 .42037965 .46199037 .42037965 .48298646 .40734864 .45498658 .402359 .43499757 .37734986 .43499757 .35334779 .43499757 .33735658 .44599916 .31835938 .47299195 .31835938 .49499513 .31835938 .5269928 .3363495 .5269928 .37635804 .5269928 .42837525 .46798707 .4423828 .43399049 .4423828 .37599183 .4423828 .34098817 .38935853 .32899476 .36634828 .3039856 .43237306 .25 .4423828 .22099304 .4423828 .116989139 .4423828 .05999756 .3133545 .05999756 .28834535 .05999756 .27833558 .069992069 .27833558 .07199097 .27833558 .07998657 .27833558 .08299255 .28033448 .084991458 .28933717 .11898804 .39535523 .18499756 .42037965 .21899414 .42037965 .23799134 .42037965 .272995 .4113617 .272995 .35334779 .272995 .32235719 .2559967 .25532533 .21899414 .11528015 .20298767 .053268434 .16799927 .011245728 .12399292 .011245728 .117996219 .011245728 .09498596 .011245728 .07398987 .024276734 .09899902 .029266358 .12098694 .05027771 .12098694 .07827759 .12098694 .105270389 .09899902 .11328125 .083999637 .11328125 .053985597 .11328125 .0289917 .08728027 .0289917 .055267335 .0289917 .009246826 .07899475-.0107421879 .12298584-.0107421879 .18899536-.0107421879 .22499085 .059280397 .22799683 .0652771 .23999024 .028274537 .27598573-.0107421879 .33599855-.0107421879 .43899537-.0107421879 .49598695 .118270877 .49598695 .14328003 .49598695 .1532898 .4869995 .1532898 .48399354 .1532898 .47499085 .1532898 .47299195 .14929199 .47099305 .14228821 .43798829 .03527832 .36999513 .011245728 .33799745 .011245728 .29899598 .011245728 .2829895 .043273927 .2829895 .07727051 .2829895 .09927368 .2889862 .121276859 .2999878 .16529846L.33399964 .30233766Z"/>
<path id="font_6_2" d="M.2889862 .25C.2889862 .32798768 .27799989 .44898988 .22299195 .56199648 .16299439 .68499758 .07699585 .75 .066986087 .75 .06098938 .75 .056991579 .74598696 .056991579 .73999026 .056991579 .7369995 .056991579 .73498538 .07598877 .71699526 .17399597 .6179962 .23098755 .45899964 .23098755 .25 .23098755 .07899475 .19400025-.09700012 .069992069-.2230072 .056991579-.23500061 .056991579-.23701477 .056991579-.2400055 .056991579-.2460022 .06098938-.25 .066986087-.25 .07699585-.25 .16699219-.18200684 .22599793-.055007936 .2769928 .054992677 .2889862 .16600037 .2889862 .25Z"/>
<path id="font_5_2" d="M.5159912 .68333438C.5159912 .6843262 .5159912 .69433596 .5029907 .69433596 .48799134 .69433596 .3929901 .68533328 .37599183 .68333438 .36799623 .6823273 .3619995 .6773224 .3619995 .6643219 .3619995 .6523285 .37098695 .6523285 .38598634 .6523285 .43399049 .6523285 .43598939 .6453247 .43598939 .6353302L.43299867 .6153412 .37298585 .37835694C.35499574 .41537477 .32598878 .4423828 .2809906 .4423828 .1639862 .4423828 .039993287 .29533387 .039993287 .14929199 .039993287 .055267335 .09498596-.0107421879 .17298889-.0107421879 .19299317-.0107421879 .24299622-.0067443849 .30299378 .06427002 .31098939 .022247315 .34599305-.0107421879 .3939972-.0107421879 .42900086-.0107421879 .45199586 .012252808 .46798707 .044265748 .4850006 .08027649 .49798585 .14129639 .49798585 .14329529 .49798585 .1532898 .4889984 .1532898 .48599244 .1532898 .47599793 .1532898 .47499085 .14929199 .47200013 .13528443 .45498658 .07026672 .43699647 .011245728 .3959961 .011245728 .36898805 .011245728 .3659973 .037261964 .3659973 .057266237 .3659973 .08126831 .36799623 .088272098 .37199403 .105285648L.5159912 .68333438M.30799867 .119277957C.30299378 .10127258 .30299378 .09927368 .28799439 .08227539 .24398804 .027252198 .20298767 .011245728 .1749878 .011245728 .125 .011245728 .11099243 .06626892 .11099243 .105285648 .11099243 .1552887 .14299011 .27833558 .1659851 .32434083 .19699097 .38336183 .24198914 .42037965 .28199769 .42037965 .34700013 .42037965 .36099244 .3383484 .36099244 .33235169 .36099244 .32633973 .35899354 .32034303 .35798646 .31533814L.30799867 .119277957Z"/>
<path id="font_3_3" d="M.24598694 .39465333H.34799195C.36698915 .39465333 .37998963 .39465333 .37998963 .4166565 .37998963 .43066407 .36698915 .43066407 .34999085 .43066407H.25498963L.2919922 .57850649C.29299928 .58351138 .29499818 .588501 .29499818 .5924988 .29499818 .6104889 .2809906 .6244812 .26098634 .6244812 .23599243 .6244812 .22099304 .6074829 .21398926 .58151248 .20698548 .5565338 .21998596 .6044922 .17599488 .43066407H.07398987C.054992677 .43066407 .041992189 .43066407 .041992189 .4086609 .041992189 .39465333 .053985597 .39465333 .07199097 .39465333H.16699219L.10798645 .15901184C.101989749 .13404846 .09298706 .098098758 .09298706 .085128787 .09298706 .0262146 .14299011-.009765625 .19999695-.009765625 .31098939-.009765625 .37399293 .13005066 .37399293 .14303589 .37399293 .15602112 .36099244 .15602112 .35798646 .15602112 .34599305 .15602112 .34498597 .15402222 .33699037 .13703919 .30899049 .074142459 .2579956 .018234253 .20298767 .018234253 .18199158 .018234253 .16799927 .031204224 .16799927 .06715393 .16799927 .07713318 .17199707 .098098758 .17399597 .10809326L.24598694 .39465333Z"/>
<path id="font_8_109" d="M.5209961 .00022888184V.029220581C.45298768 .029220581 .44499208 .036224367 .44499208 .085250858V.44140626L.3039856 .43040467V.4013977C.37199403 .4013977 .37998963 .39439393 .37998963 .34536744V.16629029C.37998963 .08125305 .33499146 .010223389 .2599945 .010223389 .17799378 .010223389 .17298889 .057235719 .17298889 .11026001V.44140626L.03199768 .43040467V.4013977C.10798645 .4013977 .10798645 .39839173 .10798645 .3093567V.1592865C.10798645 .09725952 .10798645 .06124878 .13798523 .02822876 .1619873 .0022277833 .20298767-.009765625 .2539978-.009765625 .2709961-.009765625 .30299378-.009765625 .33699037 .019226075 .3659973 .042236329 .38198854 .08024597 .38198854 .08024597V-.009765625L.5209961 .00022888184Z"/>
<path id="font_9_43" d="M.4269867 .11936951C.4269867 .13139344 .41600038 .13139344 .41299439 .13139344 .4019928 .13139344 .4019928 .12937927 .3959961 .11236572 .37298585 .043289186 .31698609 .01725769 .2659912 .01725769 .20199585 .01725769 .11999512 .06932068 .11999512 .21749878 .11999512 .3735962 .19999695 .42022706 .2599945 .42022706 .272995 .42022706 .32699586 .41825868 .3639984 .39356996 .34298707 .3895874 .32299806 .3755951 .32299806 .34658814 .32299806 .32058717 .34298707 .30059815 .36898805 .30059815 .394989 .30059815 .41600038 .31759645 .41600038 .34858705 .41600038 .4103546 .34599305 .4482422 .2579956 .4482422 .12998963 .4482422 .033996583 .3415985 .033996583 .2164917 .033996583 .08734131 .13798523-.0107421879 .2559967-.0107421879 .394989-.0107421879 .4269867 .11036682 .4269867 .11936951Z"/>
<path id="font_9_81" d="M.48399354 .21324158C.48399354 .34423829 .37998963 .4482422 .25698854 .4482422 .12998963 .4482422 .0289917 .3412323 .0289917 .21324158 .0289917 .08824158 .1329956-.0107421879 .2559967-.0107421879 .3829956-.0107421879 .48399354 .09024048 .48399354 .21324158M.397995 .22224427C.397995 .1852417 .397995 .12724304 .37298585 .08325195 .34498597 .037246705 .29899598 .01725769 .25698854 .01725769 .20698548 .01725769 .16499329 .042251588 .14199829 .08125305 .115997318 .12324524 .114990238 .17623902 .114990238 .22224427 .114990238 .25924684 .114990238 .3162384 .13999939 .35723878 .16999817 .40823365 .21998596 .42323304 .2559967 .42323304 .31298829 .42323304 .35398866 .39123536 .37399293 .35723878 .39698792 .31523133 .397995 .26423646 .397995 .22224427Z"/>
<path id="font_9_77" d="M.5469971 0V.0309906C.49598695 .03125 .47099305 .03125 .46998597 .0622406V.25431825C.46998597 .3373413 .46998597 .36636354 .44198609 .4013672 .4189911 .42938233 .3809967 .4423828 .33099366 .4423828 .23799134 .4423828 .19499207 .37335206 .18099976 .34535218H.17999268V.4423828L.034988405 .43066407V.3996582C.102996829 .3996582 .11199951 .39266969 .11199951 .34370423V.07695007C.11199951 .0309906 .100997928 .0309906 .034988405 .0309906V0C.08198547 .0019989014 .100997928 .0029907227 .14898682 .0029907227 .19699097 .0029907227 .20999146 .0019989014 .2630005 0V.0309906C.19699097 .0309906 .18598938 .0309906 .18598938 .07695007V.25878907C.18598938 .36532594 .26098634 .41737367 .32398988 .41737367 .3829956 .41737367 .3959961 .3683319 .3959961 .30825807V.077041629C.3959961 .0309906 .3849945 .0309906 .31900025 .0309906V0C.3659973 .0019989014 .3849945 .0029907227 .43299867 .0029907227 .48098756 .0029907227 .49398805 .0019989014 .5469971 0Z"/>
<path id="font_9_47" d="M.5399933 0V.0309906C.47200013 .0309906 .46299745 .037994386 .46299745 .087020877V.69433596L.31498719 .6826172V.6516113C.3829956 .6516113 .3919983 .64463809 .3919983 .59580996V.38339234C.3869934 .38938905 .34199525 .4423828 .2639923 .4423828 .14099121 .4423828 .033996583 .3443756 .033996583 .21525574 .033996583 .09013367 .13398743-.0107421879 .25299073-.0107421879 .32598878-.0107421879 .37098695 .03224182 .3889923 .053115846V-.0107421879L.5399933 0M.3889923 .12011719C.3889923 .10211182 .3889923 .099121097 .37399293 .078125 .34298707 .033218385 .29699708 .014251709 .25698854 .014251709 .21398926 .014251709 .17399597 .038208009 .147995 .0801239 .12199402 .12312317 .11999512 .18218994 .11999512 .21421814 .11999512 .26127626 .12599182 .3143463 .1519928 .35438539 .17399597 .38638307 .21499634 .41737367 .2679901 .41737367 .30999757 .41737367 .34999085 .39637757 .3769989 .35839845 .3889923 .3423767 .3889923 .34136964 .3889923 .32235719V.12011719Z"/>
<path id="font_9_66" d="M.25299073 0V.0309906C.18798828 .0309906 .18399048 .035995485 .18399048 .075042728V.4423828L.039993287 .43066407V.3996582C.10398865 .3996582 .11299133 .3936615 .11299133 .3447113V.07695007C.11299133 .0309906 .101989749 .0309906 .035995485 .0309906V0C.08099365 .0019989014 .101989749 .0029907227 .1459961 .0029907227 .1619873 .0029907227 .20399475 .0029907227 .25299073 0M.19699097 .6028137C.19699097 .63282778 .17298889 .6568146 .14299011 .6568146 .11299133 .6568146 .08898926 .63282778 .08898926 .6028137 .08898926 .57281497 .11299133 .5488281 .14299011 .5488281 .17298889 .5488281 .19699097 .57281497 .19699097 .6028137Z"/>
<path id="font_9_105" d="M.34199525 .12408447V.18099976H.31399537V.1270752C.31399537 .05319214 .2829895 .01725769 .24699402 .01725769 .17999268 .01725769 .17999268 .1051178 .17999268 .12309265V.3996582H.32499696V.43066407H.17999268V.6142578H.1519928C.15098572 .5304413 .115997318 .42765809 .018997193 .4246521V.3996582H.10598755V.12408447C.10598755 .012252808 .18699646-.0107421879 .23999024-.0107421879 .30699159-.011001587 .34199525 .052993776 .34199525 .12399292V.12408447Z"/>
<path id="font_9_98" d="M.36999513 .12831116C.36999513 .17330933 .34999085 .20030213 .32798768 .22329712 .2939911 .25628663 .2579956 .26327516 .18399048 .2772827 .1579895 .28227235 .084991458 .29527284 .084991458 .35224916 .084991458 .38424684 .10798645 .426239 .19898987 .426239 .30699159 .426239 .31399537 .34326173 .31599427 .31826783 .31698609 .3062744 .31698609 .3002777 .32998658 .3002777 .34399415 .3002777 .34399415 .30726625 .34399415 .32626344V.4222412C.34399415 .4392395 .34399415 .4482422 .33198548 .4482422 .32699586 .4482422 .32499696 .4482422 .31199647 .43623353 .30999757 .43423463 .30099488 .42523194 .29499818 .4202423 .2639923 .44223023 .23298645 .4482422 .19898987 .4482422 .066986087 .4482422 .033996583 .37524415 .033996583 .32426454 .033996583 .29226686 .04798889 .26628114 .070999149 .24429322 .10499573 .21330261 .14299011 .20629883 .19400025 .19729615 .24499512 .18730164 .2619934 .18431092 .28399659 .16731262 .2939911 .15931702 .31900025 .14031983 .31900025 .10229492 .31900025 .014251709 .21798706 .014251709 .20399475 .014251709 .101989749 .014251709 .07598877 .0993042 .06399536 .15332031 .06098938 .16331482 .05999756 .16931153 .04798889 .16931153 .033996583 .16931153 .033996583 .16131592 .033996583 .14331055V.01524353C.033996583-.0017547608 .033996583-.0107421879 .04598999-.0107421879 .051986696-.0107421879 .052993776-.009750366 .070999149 .009246826 .07499695 .01524353 .085998538 .028259278 .09098816 .03326416 .1329956-.007751465 .1789856-.0107421879 .20399475-.0107421879 .32699586-.0107421879 .36999513 .061279298 .36999513 .12831116Z"/>
</defs>
<path transform="matrix(1.00003,0,0,-1.00003,10.537872,163.24752)" stroke-width=".3985" stroke-linecap="butt" stroke-miterlimit="10" stroke-linejoin="miter" fill="none" stroke="#085646" d="M0 0V141.73404"/>
<path transform="matrix(1.00003,0,0,-1.00003,10.537872,163.24752)" stroke-width=".3985" stroke-linecap="butt" stroke-miterlimit="10" stroke-linejoin="miter" fill="none" stroke="#085646" d="M0 141.73404H85.04042"/>
<path transform="matrix(1.00003,0,0,-1.00003,10.537872,163.24752)" stroke-width=".3985" stroke-linecap="butt" stroke-miterlimit="10" stroke-linejoin="miter" fill="none" stroke="#085646" d="M85.04042 141.73404V0"/>
<path transform="matrix(1.00003,0,0,-1.00003,10.537872,163.24752)" stroke-width=".3985" stroke-linecap="butt" stroke-miterlimit="10" stroke-linejoin="miter" fill="none" stroke="#085646" d="M85.04042 0H0"/>
<use data-text="&#x221e;" xlink:href="#font_1_2" transform="matrix(6.9740097,0,0,-6.9740097,43.173849,29.408478)" fill="#085646"/>
<use data-text="&#x2211;" xlink:href="#font_2_1" transform="matrix(9.962899,0,0,-9.962899,39.94975,32.396577)" fill="#085646"/>
<use data-text="k" xlink:href="#font_3_1" transform="matrix(6.9740097,0,0,-6.9740097,39.898748,53.845216)" fill="#085646"/>
<use data-text="=" xlink:href="#font_4_2" transform="matrix(6.9740097,0,0,-6.9740097,44.302885,53.845216)" fill="#085646"/>
<use data-text="0" xlink:href="#font_4_1" transform="matrix(6.9740097,0,0,-6.9740097,50.419088,53.845216)" fill="#085646"/>
<use data-text="a" xlink:href="#font_5_1" transform="matrix(9.962899,0,0,-9.962899,56.051237,41.861864)" fill="#085646"/>
<use data-text="k" xlink:href="#font_3_1" transform="matrix(6.9740097,0,0,-6.9740097,61.317396,43.35591)" fill="#085646"/>
<use data-text="l" xlink:href="#font_6_4" transform="matrix(9.962899,0,0,-9.962899,32.15052,149.2031)" fill="#085646"/>
<use data-text="i" xlink:href="#font_6_3" transform="matrix(9.962899,0,0,-9.962899,34.910249,149.2031)" fill="#085646"/>
<use data-text="m" xlink:href="#font_6_5" transform="matrix(9.962899,0,0,-9.962899,37.669977,149.2031)" fill="#085646"/>
<use data-text="n" xlink:href="#font_3_2" transform="matrix(6.9740097,0,0,-6.9740097,28.663414,155.18128)" fill="#085646"/>
<use data-text="&#x2192;" xlink:href="#font_1_1" transform="matrix(6.9740097,0,0,-6.9740097,33.58857,155.18128)" fill="#085646"/>
<use data-text="&#x221e;" xlink:href="#font_1_2" transform="matrix(6.9740097,0,0,-6.9740097,41.524995,155.18128)" fill="#085646"/>
<use data-text="n" xlink:href="#font_3_2" transform="matrix(6.9740097,0,0,-6.9740097,55.918237,136.74971)" fill="#085646"/>
<use data-text="&#x2211;" xlink:href="#font_2_1" transform="matrix(9.962899,0,0,-9.962899,51.185098,139.7388)" fill="#085646"/>
<use data-text="k" xlink:href="#font_3_1" transform="matrix(6.9740097,0,0,-6.9740097,51.135095,161.18645)" fill="#085646"/>
<use data-text="=" xlink:href="#font_4_2" transform="matrix(6.9740097,0,0,-6.9740097,55.538225,161.18645)" fill="#085646"/>
<use data-text="0" xlink:href="#font_4_1" transform="matrix(6.9740097,0,0,-6.9740097,61.654428,161.18645)" fill="#085646"/>
<use data-text="a" xlink:href="#font_5_1" transform="matrix(9.962899,0,0,-9.962899,67.28657,149.2031)" fill="#085646"/>
<use data-text="k" xlink:href="#font_3_1" transform="matrix(6.9740097,0,0,-6.9740097,72.55273,150.69715)" fill="#085646"/>
<use data-text="E" xlink:href="#font_7_49" transform="matrix(9.962899,0,0,-9.962899,26.672356,125.60138)" fill="#085646"/>
<use data-text="x" xlink:href="#font_7_116" transform="matrix(9.962899,0,0,-9.962899,33.457094,125.60138)" fill="#085646"/>
<use data-text="i" xlink:href="#font_7_66" transform="matrix(9.962899,0,0,-9.962899,38.717508,125.60138)" fill="#085646"/>
<use data-text="s" xlink:href="#font_7_98" transform="matrix(9.962899,0,0,-9.962899,41.48719,125.60138)" fill="#085646"/>
<use data-text="t" xlink:href="#font_7_105" transform="matrix(9.962899,0,0,-9.962899,45.412569,125.60138)" fill="#085646"/>
<use data-text="e" xlink:href="#font_7_50" transform="matrix(9.962899,0,0,-9.962899,49.28813,125.60138)" fill="#085646"/>
<use data-text="n" xlink:href="#font_7_77" transform="matrix(9.962899,0,0,-9.962899,53.711664,125.60138)" fill="#085646"/>
<use data-text="c" xlink:href="#font_7_43" transform="matrix(9.962899,0,0,-9.962899,59.25103,125.60138)" fill="#085646"/>
<use data-text="e" xlink:href="#font_7_50" transform="matrix(9.962899,0,0,-9.962899,63.67457,125.60138)" fill="#085646"/>
<use data-text="o" xlink:href="#font_7_81" transform="matrix(9.962899,0,0,-9.962899,71.41575,125.60138)" fill="#085646"/>
<use data-text="f" xlink:href="#font_7_55" transform="matrix(9.962899,0,0,-9.962899,76.397197,125.60138)" fill="#085646"/>
<path transform="matrix(1.00003,0,0,-1.00003,10.537872,163.24752)" stroke-width="1.49442" stroke-linecap="butt" stroke-miterlimit="10" stroke-linejoin="miter" fill="none" stroke="#085646" d="M42.5202 104.88309V51.90054"/>
<path transform="matrix(0,1.00003,1.00003,0,53.05935,111.34541)" d="M6.54549 0C4.60605 .36362 1.45454 1.45454-.72726 2.72728V-2.72728C1.45454-1.45454 4.60605-.36362 6.54549 0" fill="#085646"/>
<use data-text="D" xlink:href="#font_8_46" transform="matrix(14.346631,0,0,-14.346631,1.2175903,12.018967)" fill="#085646"/>
<use data-text="i" xlink:href="#font_8_66" transform="matrix(14.346631,0,0,-14.346631,11.948868,12.018967)" fill="#085646"/>
<use data-text="s" xlink:href="#font_8_98" transform="matrix(14.346631,0,0,-14.346631,15.851158,12.018967)" fill="#085646"/>
<use data-text="c" xlink:href="#font_8_43" transform="matrix(14.346631,0,0,-14.346631,21.388962,12.018967)" fill="#085646"/>
<use data-text="r" xlink:href="#font_8_96" transform="matrix(14.346631,0,0,-14.346631,27.629746,12.018967)" fill="#085646"/>
<use data-text="e" xlink:href="#font_8_50" transform="matrix(14.346631,0,0,-14.346631,33.095819,12.018967)" fill="#085646"/>
<use data-text="t" xlink:href="#font_8_105" transform="matrix(14.346631,0,0,-14.346631,39.336595,12.018967)" fill="#085646"/>
<use data-text="e" xlink:href="#font_8_50" transform="matrix(14.346631,0,0,-14.346631,44.802659,12.018967)" fill="#085646"/>
<use data-text="C" xlink:href="#font_8_42" transform="matrix(14.346631,0,0,-14.346631,55.720445,12.018967)" fill="#085646"/>
<use data-text="o" xlink:href="#font_8_81" transform="matrix(14.346631,0,0,-14.346631,65.86351,12.018967)" fill="#085646"/>
<use data-text="n" xlink:href="#font_8_77" transform="matrix(14.346631,0,0,-14.346631,72.89336,12.018967)" fill="#085646"/>
<use data-text="t" xlink:href="#font_8_105" transform="matrix(14.346631,0,0,-14.346631,80.32492,12.018967)" fill="#085646"/>
<use data-text="e" xlink:href="#font_8_50" transform="matrix(14.346631,0,0,-14.346631,85.790988,12.018967)" fill="#085646"/>
<use data-text="x" xlink:href="#font_8_116" transform="matrix(14.346631,0,0,-14.346631,92.03177,12.018967)" fill="#085646"/>
<use data-text="t" xlink:href="#font_8_105" transform="matrix(14.346631,0,0,-14.346631,99.448978,12.018967)" fill="#085646"/>
<path transform="matrix(1.00003,0,0,-1.00003,10.537872,163.24752)" stroke-width=".3985" stroke-linecap="butt" stroke-miterlimit="10" stroke-linejoin="miter" fill="none" stroke="#5762d5" d="M141.73404 0V141.73404"/>
<path transform="matrix(1.00003,0,0,-1.00003,10.537872,163.24752)" stroke-width=".3985" stroke-linecap="butt" stroke-miterlimit="10" stroke-linejoin="miter" fill="none" stroke="#5762d5" d="M141.73404 141.73404H226.77448"/>
<path transform="matrix(1.00003,0,0,-1.00003,10.537872,163.24752)" stroke-width=".3985" stroke-linecap="butt" stroke-miterlimit="10" stroke-linejoin="miter" fill="none" stroke="#5762d5" d="M226.77448 141.73404V0"/>
<path transform="matrix(1.00003,0,0,-1.00003,10.537872,163.24752)" stroke-width=".3985" stroke-linecap="butt" stroke-miterlimit="10" stroke-linejoin="miter" fill="none" stroke="#5762d5" d="M226.77448 0H141.73404"/>
<use data-text="&#x222b;" xlink:href="#font_2_2" transform="matrix(9.962899,0,0,-9.962899,167.12758,32.203569)" fill="#5762d5"/>
<use data-text="&#x221e;" xlink:href="#font_1_2" transform="matrix(6.9740097,0,0,-6.9740097,177.09088,34.66664)" fill="#5762d5"/>
<use data-text="x" xlink:href="#font_3_4" transform="matrix(6.9740097,0,0,-6.9740097,172.66275,54.841249)" fill="#5762d5"/>
<use data-text="=" xlink:href="#font_4_2" transform="matrix(6.9740097,0,0,-6.9740097,177.18088,54.841249)" fill="#5762d5"/>
<use data-text="0" xlink:href="#font_4_1" transform="matrix(6.9740097,0,0,-6.9740097,183.29709,54.841249)" fill="#5762d5"/>
<use data-text="f" xlink:href="#font_5_3" transform="matrix(9.962899,0,0,-9.962899,189.42725,45.763978)" fill="#5762d5"/>
<use data-text="(" xlink:href="#font_6_1" transform="matrix(9.962899,0,0,-9.962899,195.37741,45.763978)" fill="#5762d5"/>
<use data-text="x" xlink:href="#font_5_4" transform="matrix(9.962899,0,0,-9.962899,199.25154,45.763978)" fill="#5762d5"/>
<use data-text=")" xlink:href="#font_6_2" transform="matrix(9.962899,0,0,-9.962899,204.94571,45.763978)" fill="#5762d5"/>
<use data-text="d" xlink:href="#font_5_2" transform="matrix(9.962899,0,0,-9.962899,211.5879,45.763978)" fill="#5762d5"/>
<use data-text="x" xlink:href="#font_5_4" transform="matrix(9.962899,0,0,-9.962899,216.76862,45.763978)" fill="#5762d5"/>
<use data-text="E" xlink:href="#font_7_49" transform="matrix(9.962899,0,0,-9.962899,168.41062,125.60138)" fill="#5762d5"/>
<use data-text="x" xlink:href="#font_7_116" transform="matrix(9.962899,0,0,-9.962899,175.19535,125.60138)" fill="#5762d5"/>
<use data-text="i" xlink:href="#font_7_66" transform="matrix(9.962899,0,0,-9.962899,180.45577,125.60138)" fill="#5762d5"/>
<use data-text="s" xlink:href="#font_7_98" transform="matrix(9.962899,0,0,-9.962899,183.22545,125.60138)" fill="#5762d5"/>
<use data-text="t" xlink:href="#font_7_105" transform="matrix(9.962899,0,0,-9.962899,187.15082,125.60138)" fill="#5762d5"/>
<use data-text="e" xlink:href="#font_7_50" transform="matrix(9.962899,0,0,-9.962899,191.0264,125.60138)" fill="#5762d5"/>
<use data-text="n" xlink:href="#font_7_77" transform="matrix(9.962899,0,0,-9.962899,195.44992,125.60138)" fill="#5762d5"/>
<use data-text="c" xlink:href="#font_7_43" transform="matrix(9.962899,0,0,-9.962899,200.98929,125.60138)" fill="#5762d5"/>
<use data-text="e" xlink:href="#font_7_50" transform="matrix(9.962899,0,0,-9.962899,205.41283,125.60138)" fill="#5762d5"/>
<use data-text="o" xlink:href="#font_7_81" transform="matrix(9.962899,0,0,-9.962899,213.154,125.60138)" fill="#5762d5"/>
<use data-text="f" xlink:href="#font_7_55" transform="matrix(9.962899,0,0,-9.962899,218.13545,125.60138)" fill="#5762d5"/>
<use data-text="l" xlink:href="#font_6_4" transform="matrix(9.962899,0,0,-9.962899,157.6453,148.13806)" fill="#5762d5"/>
<use data-text="i" xlink:href="#font_6_3" transform="matrix(9.962899,0,0,-9.962899,160.40503,148.13806)" fill="#5762d5"/>
<use data-text="m" xlink:href="#font_6_5" transform="matrix(9.962899,0,0,-9.962899,163.16477,148.13806)" fill="#5762d5"/>
<use data-text="t" xlink:href="#font_3_3" transform="matrix(6.9740097,0,0,-6.9740097,155.11623,154.11624)" fill="#5762d5"/>
<use data-text="&#x2192;" xlink:href="#font_1_1" transform="matrix(6.9740097,0,0,-6.9740097,158.12631,154.11624)" fill="#5762d5"/>
<use data-text="&#x221e;" xlink:href="#font_1_2" transform="matrix(6.9740097,0,0,-6.9740097,166.06275,154.11624)" fill="#5762d5"/>
<use data-text="&#x222b;" xlink:href="#font_2_2" transform="matrix(9.962899,0,0,-9.962899,175.67185,134.57765)" fill="#5762d5"/>
<use data-text="x" xlink:href="#font_3_4" transform="matrix(6.9740097,0,0,-6.9740097,185.63513,137.04073)" fill="#5762d5"/>
<use data-text="=" xlink:href="#font_4_2" transform="matrix(6.9740097,0,0,-6.9740097,190.15328,137.04073)" fill="#5762d5"/>
<use data-text="t" xlink:href="#font_3_3" transform="matrix(6.9740097,0,0,-6.9740097,196.26946,137.04073)" fill="#5762d5"/>
<use data-text="x" xlink:href="#font_3_4" transform="matrix(6.9740097,0,0,-6.9740097,181.207,157.21533)" fill="#5762d5"/>
<use data-text="=" xlink:href="#font_4_2" transform="matrix(6.9740097,0,0,-6.9740097,185.72515,157.21533)" fill="#5762d5"/>
<use data-text="0" xlink:href="#font_4_1" transform="matrix(6.9740097,0,0,-6.9740097,191.84134,157.21533)" fill="#5762d5"/>
<use data-text="f" xlink:href="#font_5_3" transform="matrix(9.962899,0,0,-9.962899,201.4376,148.13806)" fill="#5762d5"/>
<use data-text="(" xlink:href="#font_6_1" transform="matrix(9.962899,0,0,-9.962899,207.38779,148.13806)" fill="#5762d5"/>
<use data-text="x" xlink:href="#font_5_4" transform="matrix(9.962899,0,0,-9.962899,211.2619,148.13806)" fill="#5762d5"/>
<use data-text=")" xlink:href="#font_6_2" transform="matrix(9.962899,0,0,-9.962899,216.95607,148.13806)" fill="#5762d5"/>
<use data-text="d" xlink:href="#font_5_2" transform="matrix(9.962899,0,0,-9.962899,223.59827,148.13806)" fill="#5762d5"/>
<use data-text="x" xlink:href="#font_5_4" transform="matrix(9.962899,0,0,-9.962899,228.77898,148.13806)" fill="#5762d5"/>
<path transform="matrix(1.00003,0,0,-1.00003,10.537872,163.24752)" stroke-width="1.49442" stroke-linecap="butt" stroke-miterlimit="10" stroke-linejoin="miter" fill="none" stroke="#5762d5" d="M184.25424 104.88309V51.90054"/>
<path transform="matrix(0,1.00003,1.00003,0,194.79766,111.34541)" d="M6.54549 0C4.60605 .36362 1.45454 1.45454-.72726 2.72728V-2.72728C1.45454-1.45454 4.60605-.36362 6.54549 0" fill="#5762d5"/>
<use data-text="C" xlink:href="#font_8_42" transform="matrix(14.346631,0,0,-14.346631,133.09156,12.018967)" fill="#5762d5"/>
<use data-text="o" xlink:href="#font_8_81" transform="matrix(14.346631,0,0,-14.346631,143.23462,12.018967)" fill="#5762d5"/>
<use data-text="n" xlink:href="#font_8_77" transform="matrix(14.346631,0,0,-14.346631,150.26448,12.018967)" fill="#5762d5"/>
<use data-text="t" xlink:href="#font_8_105" transform="matrix(14.346631,0,0,-14.346631,157.69605,12.018967)" fill="#5762d5"/>
<use data-text="i" xlink:href="#font_8_66" transform="matrix(14.346631,0,0,-14.346631,163.16211,12.018967)" fill="#5762d5"/>
<use data-text="n" xlink:href="#font_8_77" transform="matrix(14.346631,0,0,-14.346631,167.06439,12.018967)" fill="#5762d5"/>
<use data-text="u" xlink:href="#font_8_109" transform="matrix(14.346631,0,0,-14.346631,174.4816,12.018967)" fill="#5762d5"/>
<use data-text="o" xlink:href="#font_8_81" transform="matrix(14.346631,0,0,-14.346631,182.28617,12.018967)" fill="#5762d5"/>
<use data-text="u" xlink:href="#font_8_109" transform="matrix(14.346631,0,0,-14.346631,189.31601,12.018967)" fill="#5762d5"/>
<use data-text="s" xlink:href="#font_8_98" transform="matrix(14.346631,0,0,-14.346631,197.12058,12.018967)" fill="#5762d5"/>
<use data-text="C" xlink:href="#font_8_42" transform="matrix(14.346631,0,0,-14.346631,207.32105,12.018967)" fill="#5762d5"/>
<use data-text="o" xlink:href="#font_8_81" transform="matrix(14.346631,0,0,-14.346631,217.46411,12.018967)" fill="#5762d5"/>
<use data-text="n" xlink:href="#font_8_77" transform="matrix(14.346631,0,0,-14.346631,224.49396,12.018967)" fill="#5762d5"/>
<use data-text="t" xlink:href="#font_8_105" transform="matrix(14.346631,0,0,-14.346631,231.9255,12.018967)" fill="#5762d5"/>
<use data-text="e" xlink:href="#font_8_50" transform="matrix(14.346631,0,0,-14.346631,237.39157,12.018967)" fill="#5762d5"/>
<use data-text="x" xlink:href="#font_8_116" transform="matrix(14.346631,0,0,-14.346631,243.63236,12.018967)" fill="#5762d5"/>
<use data-text="t" xlink:href="#font_8_105" transform="matrix(14.346631,0,0,-14.346631,251.04956,12.018967)" fill="#5762d5"/>
<path transform="matrix(1.00003,0,0,-1.00003,10.537872,163.24752)" stroke-width="1.19553" stroke-linecap="butt" stroke-miterlimit="10" stroke-linejoin="miter" fill="none" stroke="#ad343e" d="M70.867 127.56062C90.7097 141.73404 136.06476 141.73404 151.23813 130.89592"/>
<path transform="matrix(.8136944,.58121749,.58121749,-.8136944,161.78054,32.347658)" d="M5.73854 0C4.0382 .31879 1.27522 1.27522-.6376 2.39105V-2.39105C1.27522-1.27522 4.0382-.31879 5.73854 0" fill="#ad343e"/>
<use data-text="c" xlink:href="#font_9_43" transform="matrix(8.966669,0,0,-8.966669,103.416667,34.08664)" fill="#ad343e"/>
<use data-text="o" xlink:href="#font_9_81" transform="matrix(8.966669,0,0,-8.966669,107.51443,34.08664)" fill="#ad343e"/>
<use data-text="n" xlink:href="#font_9_77" transform="matrix(8.966669,0,0,-8.966669,112.12329,34.08664)" fill="#ad343e"/>
<use data-text="d" xlink:href="#font_9_47" transform="matrix(8.966669,0,0,-8.966669,117.24326,34.08664)" fill="#ad343e"/>
<use data-text="i" xlink:href="#font_9_66" transform="matrix(8.966669,0,0,-8.966669,122.36323,34.08664)" fill="#ad343e"/>
<use data-text="t" xlink:href="#font_9_105" transform="matrix(8.966669,0,0,-8.966669,124.9277,34.08664)" fill="#ad343e"/>
<use data-text="i" xlink:href="#font_9_66" transform="matrix(8.966669,0,0,-8.966669,128.51438,34.08664)" fill="#ad343e"/>
<use data-text="o" xlink:href="#font_9_81" transform="matrix(8.966669,0,0,-8.966669,131.07883,34.08664)" fill="#ad343e"/>
<use data-text="n" xlink:href="#font_9_77" transform="matrix(8.966669,0,0,-8.966669,135.6877,34.08664)" fill="#ad343e"/>
<use data-text="s" xlink:href="#font_9_98" transform="matrix(8.966669,0,0,-8.966669,140.80768,34.08664)" fill="#ad343e"/>
<path transform="matrix(1.00003,0,0,-1.00003,10.537872,163.24752)" stroke-width="1.19553" stroke-linecap="butt" stroke-miterlimit="10" stroke-linejoin="miter" fill="none" stroke="#ad343e" d="M155.90744 2.83484C136.06476-11.33855 90.7097-11.33855 75.53632-.50043"/>
<path transform="matrix(-.8136944,-.58121749,-.58121749,.8136944,86.07647,163.74796)" d="M5.73854 0C4.0382 .31879 1.27522 1.27522-.6376 2.39105V-2.39105C1.27522-1.27522 4.0382-.31879 5.73854 0" fill="#ad343e"/>
<use data-text="c" xlink:href="#font_9_43" transform="matrix(8.966669,0,0,-8.966669,103.416667,168.13367)" fill="#ad343e"/>
<use data-text="o" xlink:href="#font_9_81" transform="matrix(8.966669,0,0,-8.966669,107.51443,168.13367)" fill="#ad343e"/>
<use data-text="n" xlink:href="#font_9_77" transform="matrix(8.966669,0,0,-8.966669,112.12329,168.13367)" fill="#ad343e"/>
<use data-text="d" xlink:href="#font_9_47" transform="matrix(8.966669,0,0,-8.966669,117.24326,168.13367)" fill="#ad343e"/>
<use data-text="i" xlink:href="#font_9_66" transform="matrix(8.966669,0,0,-8.966669,122.36323,168.13367)" fill="#ad343e"/>
<use data-text="t" xlink:href="#font_9_105" transform="matrix(8.966669,0,0,-8.966669,124.9277,168.13367)" fill="#ad343e"/>
<use data-text="i" xlink:href="#font_9_66" transform="matrix(8.966669,0,0,-8.966669,128.51438,168.13367)" fill="#ad343e"/>
<use data-text="o" xlink:href="#font_9_81" transform="matrix(8.966669,0,0,-8.966669,131.07883,168.13367)" fill="#ad343e"/>
<use data-text="n" xlink:href="#font_9_77" transform="matrix(8.966669,0,0,-8.966669,135.6877,168.13367)" fill="#ad343e"/>
<use data-text="s" xlink:href="#font_9_98" transform="matrix(8.966669,0,0,-8.966669,140.80768,168.13367)" fill="#ad343e"/>
</svg>
