<svg xmlns="http://www.w3.org/2000/svg" xmlns:xlink="http://www.w3.org/1999/xlink" version="1.1" width="226" height="203" viewBox="0 0 226 203">
<defs>
<path id="font_1_82" d="M.4189911 0V.0309906H.3869934C.29699708 .0309906 .2939911 .041992189 .2939911 .07902527V.64012148C.2939911 .6640167 .2939911 .6660156 .2709961 .6660156 .20899964 .60227969 .12098694 .60227969 .08898926 .60227969V.57128909C.10899353 .57128909 .16799927 .57128909 .21998596 .5972748V.07902527C.21998596 .042999269 .21699524 .0309906 .1269989 .0309906H.09498596V0C.12998963 .0029907227 .21699524 .0029907227 .25698854 .0029907227 .29699708 .0029907227 .38398744 .0029907227 .4189911 0Z"/>
<path id="font_1_107" d="M.44898988 .17396546H.42399598C.4189911 .14398194 .4119873 .099990848 .4019928 .084991458 .394989 .07699585 .32899476 .07699585 .30699159 .07699585H.1269989L.23298645 .17996216C.3889923 .31803895 .44898988 .37210084 .44898988 .47216798 .44898988 .5860901 .35899354 .6660156 .23699951 .6660156 .12399292 .6660156 .049987794 .57411196 .049987794 .48516847 .049987794 .4291687 .099990848 .4291687 .102996829 .4291687 .11999512 .4291687 .15499878 .44117738 .15499878 .48217774 .15499878 .5081787 .13699341 .5341797 .101989749 .5341797 .09399414 .5341797 .09199524 .5341797 .08898926 .5331726 .11199951 .59806826 .1659851 .63500979 .22399903 .63500979 .31498719 .63500979 .35798646 .5541382 .35798646 .47216798 .35798646 .39196778 .30799867 .31297303 .25299073 .25097657L.06098938 .036987306C.049987794 .025985718 .049987794 .023986817 .049987794 0H.42099L.44898988 .17396546Z"/>
<path id="font_1_106" d="M.45700074 .17037964C.45700074 .252594 .3939972 .33088685 .2899933 .35191346 .37199403 .37893678 .42999269 .4490509 .42999269 .52809146 .42999269 .6100464 .34199525 .6660156 .24598694 .6660156 .14498902 .6660156 .068984989 .60606387 .068984989 .53009036 .068984989 .49710084 .09098816 .47808839 .11999512 .47808839 .15098572 .47808839 .17098999 .50009158 .17098999 .5290985 .17098999 .57910159 .12399292 .57910159 .10899353 .57910159 .13999939 .62802127 .20599365 .64100649 .24198914 .64100649 .2829895 .64100649 .33799745 .6190338 .33799745 .5290985 .33799745 .51708987 .33599855 .45906068 .30999757 .4149933 .27999879 .36691285 .24598694 .36390687 .22099304 .36291505 .21299744 .36190797 .18899536 .35990907 .18199158 .35990907 .17399597 .35890199 .16699219 .35791017 .16699219 .3479004 .16699219 .33691407 .17399597 .33691407 .19099427 .33691407H.23498535C.31698609 .33691407 .35398866 .2686615 .35398866 .17037964 .35398866 .034469606 .2849884 .0055389406 .24099732 .0055389406 .19799805 .0055389406 .12298584 .022491456 .08799744 .08137512 .12298584 .07637024 .1539917 .09837341 .1539917 .1363678 .1539917 .17237854 .1269989 .19238281 .09799194 .19238281 .07398987 .19238281 .041992189 .17837525 .041992189 .1343689 .041992189 .043441774 .1349945-.022460938 .24398804-.022460938 .3659973-.022460938 .45700074 .06838989 .45700074 .17037964Z"/>
<path id="font_1_57" d="M.47099305 .16503906V.19602967H.37098695V.6507721C.37098695 .6707611 .37098695 .6767578 .35499574 .6767578 .34599305 .6767578 .34298707 .6767578 .33499146 .6647644L.027999878 .19602967V.16503906H.2939911V.07800293C.2939911 .041992189 .2919922 .0309906 .21798706 .0309906H.19699097V0C.23799134 .0029907227 .2899933 .0029907227 .33198548 .0029907227 .37399293 .0029907227 .4269867 .0029907227 .46798707 0V.0309906H.44699098C.37298585 .0309906 .37098695 .041992189 .37098695 .07800293V.16503906H.47099305M.2999878 .19602967H.055999757L.2999878 .56881716V.19602967Z"/>
<path id="font_1_101" d="M.45700074 .2036438C.45700074 .33070375 .36799623 .4267578 .25698854 .4267578 .18899536 .4267578 .1519928 .37573243 .13198853 .327713V.35173036C.13198853 .6047821 .2559967 .64100649 .30699159 .64100649 .33099366 .64100649 .37298585 .634964 .394989 .6007538 .37998963 .6007538 .33999635 .6007538 .33999635 .5557556 .33999635 .524765 .3639984 .5097656 .38598634 .5097656 .4019928 .5097656 .43199159 .51875308 .43199159 .5577545 .43199159 .6178589 .3880005 .6660156 .30499269 .6660156 .1769867 .6660156 .041992189 .5367584 .041992189 .31570436 .041992189 .048553468 .1579895-.022460938 .25099183-.022460938 .3619995-.022460938 .45700074 .07156372 .45700074 .2036438M.36698915 .20463562C.36698915 .15661621 .36698915 .10658264 .34999085 .0705719 .31999208 .010528564 .27398683 .0055389406 .25099183 .0055389406 .18798828 .0055389406 .1579895 .06556702 .1519928 .080566409 .13398743 .127594 .13398743 .2076416 .13398743 .22564698 .13398743 .30369569 .1659851 .40374757 .2559967 .40374757 .27198792 .40374757 .31799317 .40374757 .34899903 .34172059 .36698915 .30470277 .36698915 .2536621 .36698915 .20463562Z"/>
<path id="font_1_56" d="M.44898988 .20091248C.44898988 .31991578 .36698915 .41992188 .25898744 .41992188 .21099854 .41992188 .16799927 .4039154 .13198853 .36891175V.5641022C.1519928 .55778506 .18499756 .55078127 .21699524 .55078127 .33999635 .55078127 .4099884 .6418457 .4099884 .65493777 .4099884 .6609802 .40699769 .6660156 .3999939 .6660156 .3999939 .66607668 .39698792 .66607668 .3919983 .66308596 .37199403 .65408328 .32299806 .63378909 .2559967 .63378909 .21598816 .63409426 .16999817 .641098 .12298584 .6621094 .114990238 .6651001 .11099243 .6651001 .11099243 .6651001 .100997928 .66508486 .100997928 .657074 .100997928 .64108279V.3447113C.100997928 .3266449 .100997928 .31861878 .114990238 .31861878 .12199402 .31861878 .12399292 .32164 .12799073 .32765199 .13899231 .34371949 .17599488 .3979187 .25698854 .3979187 .30899049 .3979187 .33399964 .3517456 .34199525 .3336792 .35798646 .2965393 .3600006 .2574005 .3600006 .20721436 .3600006 .17218018 .3600006 .112197879 .33599855 .07032776 .31199647 .031448366 .2749939 .0055389406 .22898865 .0055389406 .1559906 .0055389406 .09899902 .05836487 .08198547 .1171875 .084991458 .11685181 .08799744 .115859989 .09899902 .115859989 .13198853 .115859989 .14898682 .14085388 .14898682 .16485596 .14898682 .18885803 .13198853 .21386719 .09899902 .21386719 .084991458 .21386719 .049987794 .2068634 .049987794 .16085816 .049987794 .07432556 .11898804-.022460938 .23098755-.022460938 .34700013-.022460938 .44898988 .07331848 .44898988 .20019531V.20091248Z"/>
<path id="font_1_121" d="M.45999146 .31976319C.45999146 .39982606 .45498658 .47988893 .41999818 .5539398 .37399293 .65000918 .2919922 .6660156 .25 .6660156 .18998719 .6660156 .116989139 .64001467 .07598877 .54693606 .04399109 .47789 .038986207 .39982606 .038986207 .31976319 .038986207 .24472046 .042999269 .15464783 .083999637 .07859802 .1269989-.0024719239 .19999695-.022460938 .24899292-.022460938 .30299378-.022460938 .3789978-.0014648438 .4229889 .09359741 .45498658 .16265869 .45999146 .2407074 .45999146 .31976319M.3769989 .3317871C.3769989 .25672914 .3769989 .18867493 .3659973 .12461853 .35099793 .029556275 .2939911-.00047302247 .24899292-.00047302247 .20999146-.00047302247 .15098572 .024551392 .1329956 .12062073 .12199402 .18066406 .12199402 .2727356 .12199402 .3317871 .12199402 .39582826 .12199402 .46188355 .12998963 .5159149 .14898682 .63500979 .22399903 .64401248 .24899292 .64401248 .28199769 .64401248 .34799195 .6259918 .36698915 .52693179 .3769989 .47088624 .3769989 .39482118 .3769989 .3317871Z"/>
<path id="font_1_100" d="M.4850006 .6435547H.24198914C.11999512 .6435547 .117996219 .6566467 .11399841 .67578127H.08898926L.055999757 .46954347H.08099365C.083999637 .48554994 .09298706 .54855349 .10598755 .5605469 .11299133 .5665436 .19099427 .5665436 .20399475 .5665436H.41099549L.29899598 .40853883C.20899964 .2735443 .17599488 .13453675 .17599488 .03253174 .17599488 .022537232 .17599488-.022460938 .22200012-.022460938 .2679901-.022460938 .2679901 .022537232 .2679901 .03253174V.08354187C.2679901 .13853455 .2709961 .19354248 .2789917 .24754334 .2829895 .27053834 .29699708 .35653688 .34098817 .41854859L.47599793 .608551C.4850006 .62054446 .4850006 .62254336 .4850006 .6435547Z"/>
<path id="font_1_51" d="M.45700074 .16764832C.45700074 .20367432 .44599916 .24871826 .4079895 .29074098 .3889923 .31176759 .37298585 .32176209 .30899049 .36180116 .3809967 .39881898 .42999269 .4508667 .42999269 .51690676 .42999269 .6089783 .34098817 .6660156 .25 .6660156 .1499939 .6660156 .068984989 .5919647 .068984989 .49890138 .068984989 .48088075 .070999149 .43585206 .11299133 .38882447 .12399292 .3768158 .16099549 .35179139 .18598938 .33477784 .12799073 .30575563 .041992189 .24971009 .041992189 .15063477 .041992189 .044555665 .14399719-.022460938 .24899292-.022460938 .3619995-.022460938 .45700074 .060577394 .45700074 .16764832M.38598634 .51690676C.38598634 .45986939 .34700013 .41183473 .2869873 .3768158L.16299439 .4568634C.116989139 .4868927 .11299133 .5209198 .11299133 .53793337 .11299133 .5989685 .17799378 .64100649 .24899292 .64100649 .32199098 .64100649 .38598634 .588974 .38598634 .51690676M.40699769 .13162232C.40699769 .05757141 .33198548 .0055389406 .25 .0055389406 .1639862 .0055389406 .09199524 .06758118 .09199524 .15063477 .09199524 .2086792 .12399292 .2727356 .20899964 .31976319L.33198548 .24171448C.3600006 .22268677 .40699769 .19267273 .40699769 .13162232Z"/>
</defs>
<path transform="matrix(1,0,0,-1.00002,113.16,16.569012)" stroke-width="1.59404" stroke-linecap="butt" stroke-miterlimit="10" stroke-linejoin="miter" fill="none" stroke="#000000" d="M0 14.17339-12.27454 7.08669V-7.08669L0-14.17339 12.27454-7.08669V7.08669Z"/>
<use data-text="1" xlink:href="#font_1_82" transform="matrix(9.9626,0,0,-9.962799,110.66901,19.88708)"/>
<path transform="matrix(1,0,0,-1.00002,113.16,16.569012)" stroke-width="1.59404" stroke-linecap="butt" stroke-miterlimit="10" stroke-linejoin="miter" fill="none" stroke="#000000" d="M-12.27411-7.0867-24.54866-14.1734V-28.34679L-12.27411-35.43349 .00041-28.34679V-14.1734Z"/>
<use data-text="1" xlink:href="#font_1_82" transform="matrix(9.9626,0,0,-9.962799,98.395008,41.147508)"/>
<path transform="matrix(1,0,0,-1.00002,113.16,16.569012)" stroke-width="1.59404" stroke-linecap="butt" stroke-miterlimit="10" stroke-linejoin="miter" fill="none" stroke="#000000" d="M12.27411-7.0867-.00041-14.1734V-28.34679L12.27411-35.43349 24.54866-28.34679V-14.1734Z"/>
<use data-text="1" xlink:href="#font_1_82" transform="matrix(9.9626,0,0,-9.962799,122.943,41.147508)"/>
<path transform="matrix(1,0,0,-1.00002,113.16,16.569012)" stroke-width="1.59404" stroke-linecap="butt" stroke-miterlimit="10" stroke-linejoin="miter" fill="none" stroke="#000000" d="M-24.54825-28.3468-36.8228-35.4335V-49.60689L-24.54825-56.6936-12.27371-49.60689V-35.4335Z"/>
<use data-text="1" xlink:href="#font_1_82" transform="matrix(9.9626,0,0,-9.962799,86.121,62.407938)"/>
<path transform="matrix(1,0,0,-1.00002,113.16,16.569012)" stroke-width="1.59404" stroke-linecap="butt" stroke-miterlimit="10" stroke-linejoin="miter" fill="none" stroke="#000000" d="M0-28.3468-12.27454-35.4335V-49.60689L0-56.6936 12.27454-49.60689V-35.4335Z"/>
<use data-text="2" xlink:href="#font_1_107" transform="matrix(9.9626,0,0,-9.962799,110.66901,62.407938)"/>
<path transform="matrix(1,0,0,-1.00002,113.16,16.569012)" stroke-width="1.59404" stroke-linecap="butt" stroke-miterlimit="10" stroke-linejoin="miter" fill="none" stroke="#000000" d="M24.54825-28.3468 12.27371-35.4335V-49.60689L24.54825-56.6936 36.8228-49.60689V-35.4335Z"/>
<use data-text="1" xlink:href="#font_1_82" transform="matrix(9.9626,0,0,-9.962799,135.218,62.407938)"/>
<path transform="matrix(1,0,0,-1.00002,113.16,16.569012)" stroke-width="1.59404" stroke-linecap="butt" stroke-miterlimit="10" stroke-linejoin="miter" fill="none" stroke="#000000" d="M-36.82237-49.6069-49.09692-56.69362V-70.86699L-36.82237-77.9537-24.54782-70.86699V-56.69362Z"/>
<use data-text="1" xlink:href="#font_1_82" transform="matrix(9.9626,0,0,-9.962799,73.847,83.66836)"/>
<path transform="matrix(1,0,0,-1.00002,113.16,16.569012)" stroke-width="1.59404" stroke-linecap="butt" stroke-miterlimit="10" stroke-linejoin="miter" fill="none" stroke="#000000" d="M-12.27411-49.6069-24.54866-56.69362V-70.86699L-12.27411-77.9537 .00041-70.86699V-56.69362Z"/>
<use data-text="3" xlink:href="#font_1_106" transform="matrix(9.9626,0,0,-9.962799,98.395008,83.55836)"/>
<path transform="matrix(1,0,0,-1.00002,113.16,16.569012)" stroke-width="1.59404" stroke-linecap="butt" stroke-miterlimit="10" stroke-linejoin="miter" fill="none" stroke="#000000" d="M12.27411-49.6069-.00041-56.69362V-70.86699L12.27411-77.9537 24.54866-70.86699V-56.69362Z"/>
<use data-text="3" xlink:href="#font_1_106" transform="matrix(9.9626,0,0,-9.962799,122.943,83.55836)"/>
<path transform="matrix(1,0,0,-1.00002,113.16,16.569012)" stroke-width="1.59404" stroke-linecap="butt" stroke-miterlimit="10" stroke-linejoin="miter" fill="none" stroke="#000000" d="M36.82237-49.6069 24.54782-56.69362V-70.86699L36.82237-77.9537 49.09692-70.86699V-56.69362Z"/>
<use data-text="1" xlink:href="#font_1_82" transform="matrix(9.9626,0,0,-9.962799,147.492,83.66836)"/>
<path transform="matrix(1,0,0,-1.00002,113.16,16.569012)" stroke-width="1.59404" stroke-linecap="butt" stroke-miterlimit="10" stroke-linejoin="miter" fill="none" stroke="#000000" d="M-49.09651-70.86702-61.37106-77.95374V-92.1271L-49.09651-99.21382-36.82196-92.1271V-77.95374Z"/>
<use data-text="1" xlink:href="#font_1_82" transform="matrix(9.9626,0,0,-9.962799,61.572999,104.92879)"/>
<path transform="matrix(1,0,0,-1.00002,113.16,16.569012)" stroke-width="1.59404" stroke-linecap="butt" stroke-miterlimit="10" stroke-linejoin="miter" fill="none" stroke="#000000" d="M-24.54825-70.86702-36.8228-77.95374V-92.1271L-24.54825-99.21382-12.27371-92.1271V-77.95374Z"/>
<use data-text="4" xlink:href="#font_1_57" transform="matrix(9.9626,0,0,-9.962799,86.121,104.98379)"/>
<path transform="matrix(1,0,0,-1.00002,113.16,16.569012)" stroke-width="1.59404" stroke-linecap="butt" stroke-miterlimit="10" stroke-linejoin="miter" fill="none" stroke="#000000" d="M0-70.86702-12.27454-77.95374V-92.1271L0-99.21382 12.27454-92.1271V-77.95374Z"/>
<use data-text="6" xlink:href="#font_1_101" transform="matrix(9.9626,0,0,-9.962799,110.66901,104.81879)"/>
<path transform="matrix(1,0,0,-1.00002,113.16,16.569012)" stroke-width="1.59404" stroke-linecap="butt" stroke-miterlimit="10" stroke-linejoin="miter" fill="none" stroke="#000000" d="M24.54825-70.86702 12.27371-77.95374V-92.1271L24.54825-99.21382 36.8228-92.1271V-77.95374Z"/>
<use data-text="4" xlink:href="#font_1_57" transform="matrix(9.9626,0,0,-9.962799,135.218,104.98379)"/>
<path transform="matrix(1,0,0,-1.00002,113.16,16.569012)" stroke-width="1.59404" stroke-linecap="butt" stroke-miterlimit="10" stroke-linejoin="miter" fill="none" stroke="#000000" d="M49.09651-70.86702 36.82196-77.95374V-92.1271L49.09651-99.21382 61.37106-92.1271V-77.95374Z"/>
<use data-text="1" xlink:href="#font_1_82" transform="matrix(9.9626,0,0,-9.962799,159.766,104.92879)"/>
<path transform="matrix(1,0,0,-1.00002,113.16,16.569012)" d="M-61.37064-92.12712-73.64519-99.21384V-113.38722L-61.37064-120.47392-49.09608-113.38722V-99.21384Z" fill="#f8dfb6"/>
<path transform="matrix(1,0,0,-1.00002,113.16,16.569012)" stroke-width="1.59404" stroke-linecap="butt" stroke-miterlimit="10" stroke-linejoin="miter" fill="none" stroke="#000000" d="M-61.37064-92.12712-73.64519-99.21384V-113.38722L-61.37064-120.47392-49.09608-113.38722V-99.21384Z"/>
<use data-text="1" xlink:href="#font_1_82" transform="matrix(9.9626,0,0,-9.962799,49.29901,126.18921)"/>
<path transform="matrix(1,0,0,-1.00002,113.16,16.569012)" d="M-36.82237-92.12712-49.09692-99.21384V-113.38722L-36.82237-120.47392-24.54782-113.38722V-99.21384Z" fill="#f8dfb6"/>
<path transform="matrix(1,0,0,-1.00002,113.16,16.569012)" stroke-width="1.59404" stroke-linecap="butt" stroke-miterlimit="10" stroke-linejoin="miter" fill="none" stroke="#000000" d="M-36.82237-92.12712-49.09692-99.21384V-113.38722L-36.82237-120.47392-24.54782-113.38722V-99.21384Z"/>
<use data-text="5" xlink:href="#font_1_56" transform="matrix(9.9626,0,0,-9.962799,73.847,126.08021)"/>
<path transform="matrix(1,0,0,-1.00002,113.16,16.569012)" d="M-12.27411-92.12712-24.54866-99.21384V-113.38722L-12.27411-120.47392 .00041-113.38722V-99.21384Z" fill="#f8dfb6"/>
<path transform="matrix(1,0,0,-1.00002,113.16,16.569012)" stroke-width="1.59404" stroke-linecap="butt" stroke-miterlimit="10" stroke-linejoin="miter" fill="none" stroke="#000000" d="M-12.27411-92.12712-24.54866-99.21384V-113.38722L-12.27411-120.47392 .00041-113.38722V-99.21384Z"/>
<use data-text="1" xlink:href="#font_1_82" transform="matrix(9.9626,0,0,-9.962799,95.90401,126.08021)"/>
<use data-text="0" xlink:href="#font_1_121" transform="matrix(9.9626,0,0,-9.962799,100.8853,126.08021)"/>
<path transform="matrix(1,0,0,-1.00002,113.16,16.569012)" d="M12.27411-92.12712-.00041-99.21384V-113.38722L12.27411-120.47392 24.54866-113.38722V-99.21384Z" fill="#f8dfb6"/>
<path transform="matrix(1,0,0,-1.00002,113.16,16.569012)" stroke-width="1.59404" stroke-linecap="butt" stroke-miterlimit="10" stroke-linejoin="miter" fill="none" stroke="#000000" d="M12.27411-92.12712-.00041-99.21384V-113.38722L12.27411-120.47392 24.54866-113.38722V-99.21384Z"/>
<use data-text="1" xlink:href="#font_1_82" transform="matrix(9.9626,0,0,-9.962799,120.453,126.08021)"/>
<use data-text="0" xlink:href="#font_1_121" transform="matrix(9.9626,0,0,-9.962799,125.434299,126.08021)"/>
<path transform="matrix(1,0,0,-1.00002,113.16,16.569012)" d="M36.82237-92.12712 24.54782-99.21384V-113.38722L36.82237-120.47392 49.09692-113.38722V-99.21384Z" fill="#f8dfb6"/>
<path transform="matrix(1,0,0,-1.00002,113.16,16.569012)" stroke-width="1.59404" stroke-linecap="butt" stroke-miterlimit="10" stroke-linejoin="miter" fill="none" stroke="#000000" d="M36.82237-92.12712 24.54782-99.21384V-113.38722L36.82237-120.47392 49.09692-113.38722V-99.21384Z"/>
<use data-text="5" xlink:href="#font_1_56" transform="matrix(9.9626,0,0,-9.962799,147.492,126.08021)"/>
<path transform="matrix(1,0,0,-1.00002,113.16,16.569012)" d="M61.37064-92.12712 49.09608-99.21384V-113.38722L61.37064-120.47392 73.64519-113.38722V-99.21384Z" fill="#f8dfb6"/>
<path transform="matrix(1,0,0,-1.00002,113.16,16.569012)" stroke-width="1.59404" stroke-linecap="butt" stroke-miterlimit="10" stroke-linejoin="miter" fill="none" stroke="#000000" d="M61.37064-92.12712 49.09608-99.21384V-113.38722L61.37064-120.47392 73.64519-113.38722V-99.21384Z"/>
<use data-text="1" xlink:href="#font_1_82" transform="matrix(9.9626,0,0,-9.962799,172.04001,126.18921)"/>
<path transform="matrix(1,0,0,-1.00002,113.16,16.569012)" stroke-width="1.59404" stroke-linecap="butt" stroke-miterlimit="10" stroke-linejoin="miter" fill="none" stroke="#000000" d="M-73.64478-113.38724-85.91933-120.47394V-134.64733L-73.64478-141.73403-61.37022-134.64733V-120.47394Z"/>
<use data-text="1" xlink:href="#font_1_82" transform="matrix(9.9626,0,0,-9.962799,37.024995,147.44965)"/>
<path transform="matrix(1,0,0,-1.00002,113.16,16.569012)" stroke-width="1.59404" stroke-linecap="butt" stroke-miterlimit="10" stroke-linejoin="miter" fill="none" stroke="#000000" d="M-49.09651-113.38724-61.37106-120.47394V-134.64733L-49.09651-141.73403-36.82196-134.64733V-120.47394Z"/>
<use data-text="6" xlink:href="#font_1_101" transform="matrix(9.9626,0,0,-9.962799,61.572999,147.34064)"/>
<path transform="matrix(1,0,0,-1.00002,113.16,16.569012)" stroke-width="1.59404" stroke-linecap="butt" stroke-miterlimit="10" stroke-linejoin="miter" fill="none" stroke="#000000" d="M-24.54825-113.38724-36.8228-120.47394V-134.64733L-24.54825-141.73403-12.27371-134.64733V-120.47394Z"/>
<use data-text="1" xlink:href="#font_1_82" transform="matrix(9.9626,0,0,-9.962799,83.630008,147.34064)"/>
<use data-text="5" xlink:href="#font_1_56" transform="matrix(9.9626,0,0,-9.962799,88.6113,147.34064)"/>
<path transform="matrix(1,0,0,-1.00002,113.16,16.569012)" stroke-width="1.59404" stroke-linecap="butt" stroke-miterlimit="10" stroke-linejoin="miter" fill="none" stroke="#000000" d="M0-113.38724-12.27454-120.47394V-134.64733L0-141.73403 12.27454-134.64733V-120.47394Z"/>
<use data-text="2" xlink:href="#font_1_107" transform="matrix(9.9626,0,0,-9.962799,108.179,147.34064)"/>
<use data-text="0" xlink:href="#font_1_121" transform="matrix(9.9626,0,0,-9.962799,113.16029,147.34064)"/>
<path transform="matrix(1,0,0,-1.00002,113.16,16.569012)" stroke-width="1.59404" stroke-linecap="butt" stroke-miterlimit="10" stroke-linejoin="miter" fill="none" stroke="#000000" d="M24.54825-113.38724 12.27371-120.47394V-134.64733L24.54825-141.73403 36.8228-134.64733V-120.47394Z"/>
<use data-text="1" xlink:href="#font_1_82" transform="matrix(9.9626,0,0,-9.962799,132.727,147.34064)"/>
<use data-text="5" xlink:href="#font_1_56" transform="matrix(9.9626,0,0,-9.962799,137.7083,147.34064)"/>
<path transform="matrix(1,0,0,-1.00002,113.16,16.569012)" stroke-width="1.59404" stroke-linecap="butt" stroke-miterlimit="10" stroke-linejoin="miter" fill="none" stroke="#000000" d="M49.09651-113.38724 36.82196-120.47394V-134.64733L49.09651-141.73403 61.37106-134.64733V-120.47394Z"/>
<use data-text="6" xlink:href="#font_1_101" transform="matrix(9.9626,0,0,-9.962799,159.766,147.34064)"/>
<path transform="matrix(1,0,0,-1.00002,113.16,16.569012)" stroke-width="1.59404" stroke-linecap="butt" stroke-miterlimit="10" stroke-linejoin="miter" fill="none" stroke="#000000" d="M73.64478-113.38724 61.37022-120.47394V-134.64733L73.64478-141.73403 85.91933-134.64733V-120.47394Z"/>
<use data-text="1" xlink:href="#font_1_82" transform="matrix(9.9626,0,0,-9.962799,184.314,147.44965)"/>
<path transform="matrix(1,0,0,-1.00002,113.16,16.569012)" stroke-width="1.59404" stroke-linecap="butt" stroke-miterlimit="10" stroke-linejoin="miter" fill="none" stroke="#000000" d="M-85.9189-134.64734-98.19345-141.73404V-155.90743L-85.9189-162.99413-73.64435-155.90743V-141.73404Z"/>
<use data-text="1" xlink:href="#font_1_82" transform="matrix(9.9626,0,0,-9.962799,24.75,168.71007)"/>
<path transform="matrix(1,0,0,-1.00002,113.16,16.569012)" stroke-width="1.59404" stroke-linecap="butt" stroke-miterlimit="10" stroke-linejoin="miter" fill="none" stroke="#000000" d="M-61.37064-134.64734-73.64519-141.73404V-155.90743L-61.37064-162.99413-49.09608-155.90743V-141.73404Z"/>
<use data-text="7" xlink:href="#font_1_100" transform="matrix(9.9626,0,0,-9.962799,49.29901,168.65106)"/>
<path transform="matrix(1,0,0,-1.00002,113.16,16.569012)" stroke-width="1.59404" stroke-linecap="butt" stroke-miterlimit="10" stroke-linejoin="miter" fill="none" stroke="#000000" d="M-36.82237-134.64734-49.09692-141.73404V-155.90743L-36.82237-162.99413-24.54782-155.90743V-141.73404Z"/>
<use data-text="2" xlink:href="#font_1_107" transform="matrix(9.9626,0,0,-9.962799,71.356,168.71007)"/>
<use data-text="1" xlink:href="#font_1_82" transform="matrix(9.9626,0,0,-9.962799,76.337299,168.71007)"/>
<path transform="matrix(1,0,0,-1.00002,113.16,16.569012)" stroke-width="1.59404" stroke-linecap="butt" stroke-miterlimit="10" stroke-linejoin="miter" fill="none" stroke="#000000" d="M-12.27411-134.64734-24.54866-141.73404V-155.90743L-12.27411-162.99413 .00041-155.90743V-141.73404Z"/>
<use data-text="3" xlink:href="#font_1_106" transform="matrix(9.9626,0,0,-9.962799,95.90401,168.60108)"/>
<use data-text="5" xlink:href="#font_1_56" transform="matrix(9.9626,0,0,-9.962799,100.8853,168.60108)"/>
<path transform="matrix(1,0,0,-1.00002,113.16,16.569012)" stroke-width="1.59404" stroke-linecap="butt" stroke-miterlimit="10" stroke-linejoin="miter" fill="none" stroke="#000000" d="M12.27411-134.64734-.00041-141.73404V-155.90743L12.27411-162.99413 24.54866-155.90743V-141.73404Z"/>
<use data-text="3" xlink:href="#font_1_106" transform="matrix(9.9626,0,0,-9.962799,120.453,168.60108)"/>
<use data-text="5" xlink:href="#font_1_56" transform="matrix(9.9626,0,0,-9.962799,125.434299,168.60108)"/>
<path transform="matrix(1,0,0,-1.00002,113.16,16.569012)" stroke-width="1.59404" stroke-linecap="butt" stroke-miterlimit="10" stroke-linejoin="miter" fill="none" stroke="#000000" d="M36.82237-134.64734 24.54782-141.73404V-155.90743L36.82237-162.99413 49.09692-155.90743V-141.73404Z"/>
<use data-text="2" xlink:href="#font_1_107" transform="matrix(9.9626,0,0,-9.962799,145.001,168.71007)"/>
<use data-text="1" xlink:href="#font_1_82" transform="matrix(9.9626,0,0,-9.962799,149.9823,168.71007)"/>
<path transform="matrix(1,0,0,-1.00002,113.16,16.569012)" stroke-width="1.59404" stroke-linecap="butt" stroke-miterlimit="10" stroke-linejoin="miter" fill="none" stroke="#000000" d="M61.37064-134.64734 49.09608-141.73404V-155.90743L61.37064-162.99413 73.64519-155.90743V-141.73404Z"/>
<use data-text="7" xlink:href="#font_1_100" transform="matrix(9.9626,0,0,-9.962799,172.04001,168.65106)"/>
<path transform="matrix(1,0,0,-1.00002,113.16,16.569012)" stroke-width="1.59404" stroke-linecap="butt" stroke-miterlimit="10" stroke-linejoin="miter" fill="none" stroke="#000000" d="M85.9189-134.64734 73.64435-141.73404V-155.90743L85.9189-162.99413 98.19345-155.90743V-141.73404Z"/>
<use data-text="1" xlink:href="#font_1_82" transform="matrix(9.9626,0,0,-9.962799,196.58802,168.71007)"/>
<path transform="matrix(1,0,0,-1.00002,113.16,16.569012)" stroke-width="1.59404" stroke-linecap="butt" stroke-miterlimit="10" stroke-linejoin="miter" fill="none" stroke="#000000" d="M-98.19304-155.90746-110.46759-162.99416V-177.16754L-98.19304-184.25424-85.91849-177.16754V-162.99416Z"/>
<use data-text="1" xlink:href="#font_1_82" transform="matrix(9.9626,0,0,-9.962799,12.476013,189.97049)"/>
<path transform="matrix(1,0,0,-1.00002,113.16,16.569012)" stroke-width="1.59404" stroke-linecap="butt" stroke-miterlimit="10" stroke-linejoin="miter" fill="none" stroke="#000000" d="M-73.64478-155.90746-85.91933-162.99416V-177.16754L-73.64478-184.25424-61.37022-177.16754V-162.99416Z"/>
<use data-text="8" xlink:href="#font_1_51" transform="matrix(9.9626,0,0,-9.962799,37.024995,189.86148)"/>
<path transform="matrix(1,0,0,-1.00002,113.16,16.569012)" stroke-width="1.59404" stroke-linecap="butt" stroke-miterlimit="10" stroke-linejoin="miter" fill="none" stroke="#000000" d="M-49.09651-155.90746-61.37106-162.99416V-177.16754L-49.09651-184.25424-36.82196-177.16754V-162.99416Z"/>
<use data-text="2" xlink:href="#font_1_107" transform="matrix(9.9626,0,0,-9.962799,59.082,189.86148)"/>
<use data-text="8" xlink:href="#font_1_51" transform="matrix(9.9626,0,0,-9.962799,64.06329,189.86148)"/>
<path transform="matrix(1,0,0,-1.00002,113.16,16.569012)" stroke-width="1.59404" stroke-linecap="butt" stroke-miterlimit="10" stroke-linejoin="miter" fill="none" stroke="#000000" d="M-24.54825-155.90746-36.8228-162.99416V-177.16754L-24.54825-184.25424-12.27371-177.16754V-162.99416Z"/>
<use data-text="5" xlink:href="#font_1_56" transform="matrix(9.9626,0,0,-9.962799,83.630008,189.86148)"/>
<use data-text="6" xlink:href="#font_1_101" transform="matrix(9.9626,0,0,-9.962799,88.6113,189.86148)"/>
<path transform="matrix(1,0,0,-1.00002,113.16,16.569012)" stroke-width="1.59404" stroke-linecap="butt" stroke-miterlimit="10" stroke-linejoin="miter" fill="none" stroke="#000000" d="M0-155.90746-12.27454-162.99416V-177.16754L0-184.25424 12.27454-177.16754V-162.99416Z"/>
<use data-text="7" xlink:href="#font_1_100" transform="matrix(9.9626,0,0,-9.962799,108.179,189.9115)"/>
<use data-text="0" xlink:href="#font_1_121" transform="matrix(9.9626,0,0,-9.962799,113.16029,189.9115)"/>
<path transform="matrix(1,0,0,-1.00002,113.16,16.569012)" stroke-width="1.59404" stroke-linecap="butt" stroke-miterlimit="10" stroke-linejoin="miter" fill="none" stroke="#000000" d="M24.54825-155.90746 12.27371-162.99416V-177.16754L24.54825-184.25424 36.8228-177.16754V-162.99416Z"/>
<use data-text="5" xlink:href="#font_1_56" transform="matrix(9.9626,0,0,-9.962799,132.727,189.86148)"/>
<use data-text="6" xlink:href="#font_1_101" transform="matrix(9.9626,0,0,-9.962799,137.7083,189.86148)"/>
<path transform="matrix(1,0,0,-1.00002,113.16,16.569012)" stroke-width="1.59404" stroke-linecap="butt" stroke-miterlimit="10" stroke-linejoin="miter" fill="none" stroke="#000000" d="M49.09651-155.90746 36.82196-162.99416V-177.16754L49.09651-184.25424 61.37106-177.16754V-162.99416Z"/>
<use data-text="2" xlink:href="#font_1_107" transform="matrix(9.9626,0,0,-9.962799,157.27501,189.86148)"/>
<use data-text="8" xlink:href="#font_1_51" transform="matrix(9.9626,0,0,-9.962799,162.2563,189.86148)"/>
<path transform="matrix(1,0,0,-1.00002,113.16,16.569012)" stroke-width="1.59404" stroke-linecap="butt" stroke-miterlimit="10" stroke-linejoin="miter" fill="none" stroke="#000000" d="M73.64478-155.90746 61.37022-162.99416V-177.16754L73.64478-184.25424 85.91933-177.16754V-162.99416Z"/>
<use data-text="8" xlink:href="#font_1_51" transform="matrix(9.9626,0,0,-9.962799,184.314,189.86148)"/>
<path transform="matrix(1,0,0,-1.00002,113.16,16.569012)" stroke-width="1.59404" stroke-linecap="butt" stroke-miterlimit="10" stroke-linejoin="miter" fill="none" stroke="#000000" d="M98.19304-155.90746 85.91849-162.99416V-177.16754L98.19304-184.25424 110.46759-177.16754V-162.99416Z"/>
<use data-text="1" xlink:href="#font_1_82" transform="matrix(9.9626,0,0,-9.962799,208.862,189.97049)"/>
</svg>
