<svg xmlns="http://www.w3.org/2000/svg" xmlns:xlink="http://www.w3.org/1999/xlink" version="1.1" width="264" height="168" viewBox="0 0 264 168">
<defs>
<path id="font_1_1" d="M.5779877 .27427674C.5249939 .3363037 .5089874 .353302 .47099305 .38031007 .4099884 .4243164 .34599305 .4413147 .29100038 .4413147 .16699219 .4413147 .07699585 .33529664 .07699585 .215271 .07699585 .098236087 .16299439-.009765625 .28799439-.009765625 .4269867-.009765625 .5239868 .10424805 .55999758 .15725708 .61299136 .09524536 .6289978 .07823181 .6669922 .051239015 .7279968 .007232666 .7919922-.009765625 .8470001-.009765625 .97099307-.009765625 1.0609894 .09623718 1.0609894 .21626282 1.0609894 .33329774 .97499087 .4413147 .84999087 .4413147 .71099856 .4413147 .6139984 .32730104 .5779877 .27427674M.6100006 .23727417C.6499939 .30229188 .7369995 .4033203 .85899356 .4033203 .96199038 .4033203 1.0329895 .31228639 1.0329895 .21626282 1.0329895 .12025452 .95500186 .04522705 .86299136 .04522705 .769989 .04522705 .70599368 .12124634 .6100006 .23727417M.5279999 .19425965C.48799134 .1292572 .40098573 .02822876 .2789917 .02822876 .17599488 .02822876 .10499573 .11924744 .10499573 .215271 .10499573 .31129457 .18299866 .38630677 .2749939 .38630677 .36799623 .38630677 .43199159 .31028749 .5279999 .19425965Z"/>
<path id="font_2_1" d="M1.2659912-1.4003906 1.3869934-1.0803223H1.3619995C1.322998-1.1843567 1.2169952-1.2523804 1.1019898-1.2823944 1.0809937-1.287384 .9830017-1.3134003 .79100039-1.3134003H.18798828L.69699099-.71621707C.70399478-.7082062 .70599368-.7052002 .70599368-.7002106 .70599368-.69821169 .70599368-.6952057 .69898989-.6851959L.23298645-.04800415H.7809906C.9149933-.04800415 1.0059967-.06199646 1.0149994-.06401062 1.0690003-.072006229 1.1559906-.089019779 1.2350006-.13902283 1.2599945-.1550293 1.3279877-.20004273 1.3619995-.2810669H1.3869934L1.2659912 0H.083999637C.06098938 0 .05999756-.0010070801 .056991579-.007003784 .055999757-.010009766 .055999757-.029006958 .055999757-.040008546L.58499148-.7642212 .066986087-1.3713989C.056991579-1.3833923 .056991579-1.3883972 .056991579-1.3894043 .056991579-1.4003906 .06599426-1.4003906 .083999637-1.4003906H1.2659912Z"/>
<path id="font_3_1" d="M.31298829 .66430667C.31399537 .66630557 .31698609 .67930606 .31698609 .68029788 .31698609 .68530276 .31298829 .6943054 .30099488 .6943054 .2809906 .6943054 .19799805 .6863098 .17298889 .6843109 .16499329 .68330386 .15098572 .682312 .15098572 .66130068 .15098572 .64730837 .16499329 .64730837 .1769867 .64730837 .22499085 .64730837 .22499085 .64030459 .22499085 .63230898 .22499085 .62532046 .22299195 .61932376 .22099304 .61032107L.07998657 .04425049C.07499695 .026229859 .07499695 .024230957 .07499695 .022232056 .07499695 .007232666 .08699036-.009765625 .10899353-.009765625 .13598633-.009765625 .14898682 .010223389 .15499878 .03224182 .15699768 .036239625 .19999695 .21234131 .20399475 .22636414 .2749939 .21936035 .33198548 .19633484 .33198548 .14430237 .33198548 .13929749 .33198548 .1342926 .32998658 .124298099 .32598878 .10928345 .32598878 .104278568 .32598878 .09327698 .32598878 .022232056 .38398744-.009765625 .43199159-.009765625 .5289917-.009765625 .5589905 .14230347 .5589905 .14331055 .5589905 .15631104 .54599 .15631104 .54299929 .15631104 .5289917 .15631104 .5279999 .15130615 .522995 .1322937 .5109863 .089263919 .48399354 .018234253 .43499757 .018234253 .4079895 .018234253 .3999939 .04324341 .3999939 .07026672 .3999939 .087265018 .3999939 .089263919 .4059906 .11528015 .40699769 .11828613 .41099549 .13529969 .41099549 .14630127 .41099549 .23536682 .29100038 .24937439 .24899292 .25238038 .27799989 .27038575 .31498719 .30340577 .33198548 .31840516 .3829956 .3664093 .43299867 .4133911 .4889984 .4133911 .5009918 .4133911 .5139923 .4104004 .5219879 .40040589 .47898866 .3934021 .46998597 .35940553 .46998597 .34440614 .46998597 .32240296 .4869995 .30740357 .5099945 .30740357 .5369873 .30740357 .5669861 .32940675 .5669861 .37139894 .5669861 .4044037 .54299929 .44140626 .48999024 .44140626 .43299867 .44140626 .3809967 .40040589 .32998658 .3534088 .28799439 .31340028 .25498963 .2823944 .21398926 .26538087L.31298829 .66430667Z"/>
<path id="font_4_2" d="M.7679901 .3359375C.7829895 .3359375 .80599978 .3359375 .80599978 .3609314 .80599978 .38493348 .7819977 .38493348 .7689972 .38493348H.10699463C.09399414 .38493348 .069992069 .38493348 .069992069 .3609314 .069992069 .3359375 .09298706 .3359375 .10798645 .3359375H.7679901M.7689972 .11602783C.7819977 .11602783 .80599978 .11602783 .80599978 .1400299 .80599978 .16503906 .7829895 .16503906 .7679901 .16503906H.10798645C.09298706 .16503906 .069992069 .16503906 .069992069 .1400299 .069992069 .11602783 .09399414 .11602783 .10699463 .11602783H.7689972Z"/>
<path id="font_4_1" d="M.5159912 .31925965C.5159912 .42918397 .5029907 .50813296 .45700074 .5780945 .42599488 .62405398 .3639984 .6640625 .28399659 .6640625 .051986696 .6640625 .051986696 .39120484 .051986696 .31925965 .051986696 .2472992 .051986696-.01953125 .28399659-.01953125 .5159912-.01953125 .5159912 .2472992 .5159912 .31925965M.28399659 .008468628C.23799134 .008468628 .1769867 .035446168 .15699768 .117385867 .14299011 .17634583 .14299011 .25830079 .14299011 .33224488 .14299011 .40519715 .14299011 .4811554 .1579895 .53611758 .1789856 .6150665 .24299622 .63604739 .28399659 .63604739 .33799745 .63604739 .3899994 .6030731 .4079895 .545105 .42399598 .4911499 .4249878 .41918946 .4249878 .33224488 .4249878 .25830079 .4249878 .18434143 .4119873 .12138367 .3919983 .030441285 .32398988 .008468628 .28399659 .008468628Z"/>
<path id="font_5_3" d="M.3959961 .37998963C.37998963 .37998963 .3659973 .37998963 .35198976 .36598207 .33599855 .35098268 .33399964 .33398438 .33399964 .3269806 .33399964 .30297853 .35198976 .2919922 .37098695 .2919922 .3999939 .2919922 .4269867 .315979 .4269867 .35598756 .4269867 .40522767 .37998963 .4423828 .30899049 .4423828 .17399597 .4423828 .040985109 .2989807 .040985109 .15811157 .040985109 .06819153 .09899902-.0107421879 .20298767-.0107421879 .34599305-.0107421879 .42999269 .09516907 .42999269 .107162479 .42999269 .11315918 .42399598 .120147708 .41799928 .120147708 .41299439 .120147708 .41099549 .1181488 .40499879 .1101532 .32598878 .011245728 .21699524 .011245728 .20498657 .011245728 .14199829 .011245728 .114990238 .06021118 .114990238 .120147708 .114990238 .1611023 .1349945 .25801087 .16899109 .31999208 .19999695 .37698365 .25498963 .42037965 .30999757 .42037965 .34399415 .42037965 .38198854 .40724183 .3959961 .37998963Z"/>
<path id="font_6_1" d="M.33099366-.2400055C.33099366-.23701477 .33099366-.23500061 .31399537-.21800232 .18899536-.0920105 .15699768 .09700012 .15699768 .25 .15699768 .42399598 .19499207 .59799197 .31799317 .72299197 .33099366 .73498538 .33099366 .7369995 .33099366 .73999026 .33099366 .746994 .32699586 .75 .32099916 .75 .31098939 .75 .22099304 .6819916 .1619873 .5549927 .11099243 .44499208 .09899902 .33399964 .09899902 .25 .09899902 .17199707 .10998535 .050994874 .16499329-.06201172 .22499085-.18501282 .31098939-.25 .32099916-.25 .32699586-.25 .33099366-.24700928 .33099366-.2400055Z"/>
<path id="font_5_5" d="M.33399964 .30233766C.33999635 .32835389 .36299134 .42037965 .43299867 .42037965 .43798829 .42037965 .46199037 .42037965 .48298646 .40734864 .45498658 .402359 .43499757 .37734986 .43499757 .35334779 .43499757 .33735658 .44599916 .31835938 .47299195 .31835938 .49499513 .31835938 .5269928 .3363495 .5269928 .37635804 .5269928 .42837525 .46798707 .4423828 .43399049 .4423828 .37599183 .4423828 .34098817 .38935853 .32899476 .36634828 .3039856 .43237306 .25 .4423828 .22099304 .4423828 .116989139 .4423828 .05999756 .3133545 .05999756 .28834535 .05999756 .27833558 .069992069 .27833558 .07199097 .27833558 .07998657 .27833558 .08299255 .28033448 .084991458 .28933717 .11898804 .39535523 .18499756 .42037965 .21899414 .42037965 .23799134 .42037965 .272995 .4113617 .272995 .35334779 .272995 .32235719 .2559967 .25532533 .21899414 .11528015 .20298767 .053268434 .16799927 .011245728 .12399292 .011245728 .117996219 .011245728 .09498596 .011245728 .07398987 .024276734 .09899902 .029266358 .12098694 .05027771 .12098694 .07827759 .12098694 .105270389 .09899902 .11328125 .083999637 .11328125 .053985597 .11328125 .0289917 .08728027 .0289917 .055267335 .0289917 .009246826 .07899475-.0107421879 .12298584-.0107421879 .18899536-.0107421879 .22499085 .059280397 .22799683 .0652771 .23999024 .028274537 .27598573-.0107421879 .33599855-.0107421879 .43899537-.0107421879 .49598695 .118270877 .49598695 .14328003 .49598695 .1532898 .4869995 .1532898 .48399354 .1532898 .47499085 .1532898 .47299195 .14929199 .47099305 .14228821 .43798829 .03527832 .36999513 .011245728 .33799745 .011245728 .29899598 .011245728 .2829895 .043273927 .2829895 .07727051 .2829895 .09927368 .2889862 .121276859 .2999878 .16529846L.33399964 .30233766Z"/>
<path id="font_7_1" d="M.6589966 .23046875C.6759949 .23046875 .69400027 .23046875 .69400027 .25045777 .69400027 .27046205 .6759949 .27046205 .6589966 .27046205H.117996219C.100997928 .27046205 .08299255 .27046205 .08299255 .25045777 .08299255 .23046875 .100997928 .23046875 .117996219 .23046875H.6589966Z"/>
<path id="font_5_2" d="M.37298585 .37835694C.35499574 .41537477 .32598878 .4423828 .2809906 .4423828 .1639862 .4423828 .039993287 .29533387 .039993287 .14929199 .039993287 .055267335 .09498596-.0107421879 .17298889-.0107421879 .19299317-.0107421879 .24299622-.0067443849 .30299378 .06427002 .31098939 .022247315 .34599305-.0107421879 .3939972-.0107421879 .42900086-.0107421879 .45199586 .012252808 .46798707 .044265748 .4850006 .08027649 .49798585 .14129639 .49798585 .14329529 .49798585 .1532898 .4889984 .1532898 .48599244 .1532898 .47599793 .1532898 .47499085 .14929199 .47200013 .13528443 .45498658 .07026672 .43699647 .011245728 .3959961 .011245728 .36898805 .011245728 .3659973 .037261964 .3659973 .057266237 .3659973 .07926941 .36799623 .08728027 .3789978 .13128662 .3899994 .17329407 .3919983 .18330384 .40098573 .22131348L.43699647 .36135865C.44400025 .38935853 .44400025 .39135743 .44400025 .39537049 .44400025 .41236878 .43199159 .42237855 .4149933 .42237855 .3909912 .42237855 .37599183 .4003601 .37298585 .37835694M.30799867 .119277957C.30299378 .10127258 .30299378 .09927368 .28799439 .08227539 .24398804 .027252198 .20298767 .011245728 .1749878 .011245728 .125 .011245728 .11099243 .06626892 .11099243 .105285648 .11099243 .1552887 .14299011 .27833558 .1659851 .32434083 .19699097 .38336183 .24198914 .42037965 .28199769 .42037965 .34700013 .42037965 .36099244 .3383484 .36099244 .33235169 .36099244 .32633973 .35899354 .32034303 .35798646 .31533814L.30799867 .119277957Z"/>
<path id="font_6_2" d="M.2889862 .25C.2889862 .32798768 .27799989 .44898988 .22299195 .56199648 .16299439 .68499758 .07699585 .75 .066986087 .75 .06098938 .75 .056991579 .74598696 .056991579 .73999026 .056991579 .7369995 .056991579 .73498538 .07598877 .71699526 .17399597 .6179962 .23098755 .45899964 .23098755 .25 .23098755 .07899475 .19400025-.09700012 .069992069-.2230072 .056991579-.23500061 .056991579-.23701477 .056991579-.2400055 .056991579-.2460022 .06098938-.25 .066986087-.25 .07699585-.25 .16699219-.18200684 .22599793-.055007936 .2769928 .054992677 .2889862 .16600037 .2889862 .25Z"/>
<path id="font_5_1" d="M.1789856 .114868167C.13899231 .047973634 .099990848 .033981325 .055999757 .0309906 .04399109 .02999878 .034988405 .02999878 .034988405 .010986328 .034988405 .004989624 .039993287 0 .04798889 0 .07499695 0 .10598755 .0029907227 .13398743 .0029907227 .16699219 .0029907227 .20199585 0 .23399353 0 .23999024 0 .25299073 0 .25299073 .018997193 .25299073 .02999878 .24398804 .0309906 .23699951 .0309906 .21398926 .032989503 .18998719 .04096985 .18998719 .06593323 .18998719 .077926639 .19599915 .088897708 .20399475 .102890018L.27999879 .23068238H.5309906C.5329895 .2097168 .5469971 .07392883 .5469971 .063949588 .5469971 .033981325 .49499513 .0309906 .47499085 .0309906 .46099855 .0309906 .45098878 .0309906 .45098878 .010986328 .45098878 0 .46299745 0 .46499635 0 .5059967 0 .548996 .0029907227 .58999636 .0029907227 .61499026 .0029907227 .6779938 0 .7029877 0 .70899966 0 .72099307 0 .72099307 .019989014 .72099307 .0309906 .71099856 .0309906 .69799807 .0309906 .6359863 .0309906 .6359863 .037979127 .6329956 .06694031L.57199099 .691803C.56999209 .71180728 .56999209 .7158203 .5529938 .7158203 .5369873 .7158203 .5329895 .7088165 .5269928 .69880679L.1789856 .114868167M.29899598 .26168824 .49598695 .5917816 .5279999 .26168824H.29899598Z"/>
<path id="font_8_28" d="M.48298646 .08912659V.14511109H.45799256V.08912659C.45799256 .03112793 .43299867 .025131226 .42199708 .025131226 .3889923 .025131226 .3849945 .070129398 .3849945 .07511902V.27508546C.3849945 .31707765 .3849945 .3560791 .34899903 .39312745 .30999757 .43223573 .2599945 .4482422 .21199036 .4482422 .12998963 .4482422 .06098938 .40115357 .06098938 .335083 .06098938 .30508424 .08099365 .28808595 .10699463 .28808595 .1349945 .28808595 .15299988 .30807496 .15299988 .33407594 .15299988 .3460846 .147995 .37908937 .101989749 .38008119 .1289978 .41519166 .17799378 .426239 .20999146 .426239 .25898744 .426239 .31599427 .38710023 .31599427 .29808045V.26107789C.2649994 .25808717 .19499207 .25508119 .13198853 .22509766 .056991579 .19110108 .03199768 .13911438 .03199768 .09512329 .03199768 .014251709 .1289978-.0107421879 .19198609-.0107421879 .2579956-.0107421879 .3039856 .029251099 .32299806 .07624817 .32699586 .036132814 .35398866-.005859375 .40098573-.005859375 .42199708-.005859375 .48298646 .008132935 .48298646 .08912659M.31599427 .14013672C.31599427 .04525757 .24398804 .011245728 .19898987 .011245728 .1499939 .011245728 .10899353 .04624939 .10899353 .09625244 .10899353 .15124512 .15098572 .23425293 .31599427 .24024964V.14013672Z"/>
<path id="font_8_84" d="M.5209961 .21636963C.5209961 .34336854 .42399598 .4423828 .31199647 .4423828 .23399353 .4423828 .19198609 .39837647 .17199707 .3763733V.4423828L.027999878 .43066407V.3996582C.09899902 .3996582 .10598755 .3936615 .10598755 .34973146V-.117996219C.10598755-.16308594 .09498596-.16308594 .027999878-.16308594V-.1940918L.13999939-.19110108 .25299073-.1940918V-.16308594C.18598938-.16308594 .1749878-.16308594 .1749878-.117996219V.050186159 .059173585C.17999268 .04319763 .22200012-.0107421879 .2979889-.0107421879 .4169922-.0107421879 .5209961 .087127689 .5209961 .21594239V.21636963M.43798829 .21594239C.43798829 .09512329 .36799623 .011245728 .2939911 .011245728 .2539978 .011245728 .21598816 .031219483 .18899536 .07215881 .1749878 .09312439 .1749878 .09411621 .1749878 .114089969V.33674623C.20399475 .38838197 .25299073 .41737367 .3039856 .41737367 .3769989 .41737367 .43798829 .32937623 .43798829 .21636963V.21594239Z"/>
<path id="font_8_72" d="M.25498963 0V.0309906C.18798828 .0309906 .1769867 .0309906 .1769867 .07601929V.69433596L.032989503 .6826172V.6516113C.102996829 .6516113 .11099243 .64460757 .11099243 .5956421V.07595825C.11099243 .0309906 .099990848 .0309906 .032989503 .0309906V0L.14399719 .0029907227 .25498963 0Z"/>
<path id="font_8_118" d="M.5079956 .3996582V.43066407C.4850006 .4286499 .45599366 .42765809 .43299867 .42765809L.34599305 .43066407V.3996582C.3769989 .39866639 .3929901 .3816681 .3929901 .35668946 .3929901 .34669496 .3919983 .34469605 .3869934 .33270265L.28599549 .08685303 .1749878 .35568238C.17098999 .36567689 .16899109 .36967469 .16899109 .3736725 .16899109 .3996582 .20599365 .3996582 .22499085 .3996582V.43066407L.115997318 .42765809C.08898926 .42765809 .04899597 .4286499 .018997193 .43066407V.3996582C.066986087 .3996582 .085998538 .3996582 .099990848 .36468507L.25-.000091552738 .22499085-.059066774C.20298767-.11407471 .1749878-.18309021 .11099243-.18309021 .10598755-.18309021 .08299255-.18309021 .06399536-.16503906 .09498596-.16104126 .102996829-.13905335 .102996829-.123046878 .102996829-.0970459 .083999637-.08103943 .06098938-.08103943 .040985109-.08103943 .018997193-.09403992 .018997193-.124053958 .018997193-.16905213 .06098938-.20507813 .11099243-.20507813 .17399597-.20507813 .21499634-.14804077 .23899842-.091049198L.4149933 .33569337C.44099427 .39865113 .49198915 .3996582 .5079956 .3996582Z"/>
<path id="font_8_81" d="M.47099305 .21424866C.47099305 .34223939 .37098695 .4482422 .25 .4482422 .125 .4482422 .027999878 .3392334 .027999878 .21424866 .027999878 .085250858 .13198853-.0107421879 .24899292-.0107421879 .36999513-.0107421879 .47099305 .087249759 .47099305 .21424866M.3880005 .22224427C.3880005 .18624878 .3880005 .13224793 .3659973 .08824158 .34399415 .04324341 .2999878 .014251709 .25 .014251709 .20698548 .014251709 .16299439 .035247804 .13598633 .08125305 .11099243 .12524414 .11099243 .18624878 .11099243 .22224427 .11099243 .26124574 .11099243 .31523133 .1349945 .35923768 .1619873 .40522767 .20899964 .426239 .24899292 .426239 .29299928 .426239 .33599855 .40423585 .3619995 .36123658 .3880005 .3182373 .3880005 .26023866 .3880005 .22224427Z"/>
<path id="font_8_50" d="M.4149933 .11933899C.4149933 .12934876 .40699769 .13134766 .4019928 .13134766 .3929901 .13134766 .3909912 .12535095 .3889923 .11734009 .35398866 .014251709 .2639923 .014251709 .2539978 .014251709 .20399475 .014251709 .1639862 .044281007 .14099121 .08131409 .11099243 .12934876 .11099243 .19540406 .11099243 .23144531H.3899994C.4119873 .23144531 .4149933 .23144531 .4149933 .2524414 .4149933 .35131837 .36099244 .4482422 .23599243 .4482422 .11999512 .4482422 .027999878 .34532167 .027999878 .22042847 .027999878 .08631897 .1329956-.0107421879 .24798584-.0107421879 .36999513-.0107421879 .4149933 .10032654 .4149933 .11933899M.34899903 .2524414H.11199951C.117996219 .40126039 .20199585 .426239 .23599243 .426239 .33898927 .426239 .34899903 .2913971 .34899903 .2524414Z"/>
<path id="font_8_96" d="M.3639984 .38137818C.3639984 .41337586 .33299256 .4423828 .2899933 .4423828 .21699524 .4423828 .18099976 .37538148 .16699219 .3323822V.4423828L.027999878 .43066407V.3996582C.09799194 .3996582 .10598755 .39266969 .10598755 .34370423V.07595825C.10598755 .0309906 .09498596 .0309906 .027999878 .0309906V0L.14199829 .0029907227C.18199158 .0029907227 .22898865 .0029907227 .2689972 0V.0309906H.24798584C.17399597 .0309906 .17199707 .04197693 .17199707 .07795715V.23181153C.17199707 .33137513 .21398926 .42037965 .2899933 .42037965 .29699708 .42037965 .29899598 .42037965 .30099488 .41937257 .2979889 .41838075 .27799989 .40637208 .27799989 .3803711 .27799989 .35237123 .29899598 .33737184 .32099916 .33737184 .33898927 .33737184 .3639984 .3493805 .3639984 .38137818Z"/>
<path id="font_8_105" d="M.33198548 .12385559V.18066406H.30699159V.12585449C.30699159 .052108766 .2769928 .014251709 .23999024 .014251709 .17298889 .014251709 .17298889 .10491943 .17298889 .12187195V.3996582H.31599427V.43066407H.17298889V.6142578H.147995C.14698792 .5324249 .116989139 .42565919 .018997193 .42166139V.3996582H.10398865V.12408447C.10398865 .0012512207 .19699097-.0107421879 .23298645-.0107421879 .3039856-.0107421879 .33198548 .060180665 .33198548 .12408447V.12385559Z"/>
<path id="font_8_66" d="M.24699402 0V.0309906C.18099976 .0309906 .1769867 .035995485 .1769867 .075042728V.4423828L.036987306 .43066407V.3996582C.101989749 .3996582 .11099243 .3936615 .11099243 .3447113V.07595825C.11099243 .0309906 .099990848 .0309906 .032989503 .0309906V0L.14299011 .0029907227C.17799378 .0029907227 .21299744 .0009918213 .24699402 0M.19198609 .603775C.19198609 .6307678 .16899109 .6567688 .13899231 .6567688 .10499573 .6567688 .084991458 .6287689 .084991458 .603775 .084991458 .57676699 .10798645 .55078127 .13798523 .55078127 .17199707 .55078127 .19198609 .5787811 .19198609 .603775Z"/>
<path id="font_8_77" d="M.5349884 0V.0309906C.48298646 .0309906 .45799256 .0309906 .45700074 .061019899V.25221253C.45700074 .3383026 .45700074 .36932374 .42599488 .405365 .4119873 .42237855 .3789978 .4423828 .32099916 .4423828 .24798584 .4423828 .20098877 .39935304 .17298889 .33729554V.4423828L.03199768 .43066407V.3996582C.101989749 .3996582 .10998535 .39266969 .10998535 .34370423V.07595825C.10998535 .0309906 .09899902 .0309906 .03199768 .0309906V0L.14498902 .0029907227 .25698854 0V.0309906C.18998719 .0309906 .1789856 .0309906 .1789856 .07595825V.25978089C.1789856 .36431886 .25 .42037965 .31399537 .42037965 .3769989 .42037965 .3880005 .36631776 .3880005 .30926515V.076034549C.3880005 .0309906 .3769989 .0309906 .30999757 .0309906V0L.4229889 .0029907227 .5349884 0Z"/>
<path id="font_9_104" d="M.67099 .45480348 .6529999 .6777344H.052993776L.034988405 .45480348H.056991579C.070999149 .6127472 .07998657 .6487274 .23799134 .6487274 .2559967 .6487274 .28399659 .6487274 .2919922 .6467285 .31199647 .64372256 .31298829 .6317291 .31298829 .6087494V.07696533C.31298829 .04298401 .31298829 .0289917 .21499634 .0289917H.1789856V0C.21099854 .0019989014 .31399537 .0019989014 .35299684 .0019989014 .3919983 .0019989014 .49598695 .0019989014 .5279999 0V.0289917H.49198915C.3939972 .0289917 .3939972 .04298401 .3939972 .07696533V.6087494C.3939972 .633728 .3959961 .6427307 .4119873 .6467285 .41999818 .6487274 .44898988 .6487274 .46798707 .6487274 .6259918 .6487274 .6349945 .6127472 .6489868 .45480348H.67099Z"/>
<path id="font_9_28" d="M.47399903 .08912659V.14515686H.45199586V.08912659C.45199586 .03211975 .42799378 .024108887 .4139862 .024108887 .37599183 .024108887 .37599183 .07713318 .37599183 .09213257V.26719667C.37599183 .3211975 .37599183 .36120606 .33198548 .40023805 .29699708 .43226625 .2519989 .44628907 .20799256 .44628907 .12599182 .44628907 .06298828 .39222718 .06298828 .32720948 .06298828 .2982025 .08198547 .2842102 .10499573 .2842102 .1289978 .2842102 .1459961 .3012085 .1459961 .32521058 .1459961 .36621095 .10998535 .36621095 .09498596 .36621095 .117996219 .4082489 .1659851 .42625428 .20599365 .42625428 .2519989 .42625428 .31098939 .38822938 .31098939 .2982025V.25819398C.10998535 .255188 .033996583 .17115784 .033996583 .09413147 .033996583 .0152282719 .12599182-.009765625 .18699646-.009765625 .25299073-.009765625 .2979889 .030227662 .31698609 .07823181 .32099916 .03111267 .35198976-.0048828127 .394989-.0048828127 .41600038-.0048828127 .47399903 .009109497 .47399903 .089141849V.08912659M.31098939 .14117432C.31098939 .043121339 .23799134 .010116577 .19499207 .010116577 .1459961 .010116577 .10499573 .04612732 .10499573 .09414673 .10499573 .22621155 .2749939 .23822022 .31098939 .24023438V.14117432Z"/>
<path id="font_9_118" d="M.49798585 .4016571V.43066407C.46899415 .4286499 .45498658 .4286499 .4229889 .4286499L.34199525 .43066407V.4016571C.3789978 .3996582 .3880005 .3766632 .3880005 .35865785 .3880005 .34965516 .38598634 .34465028 .38198854 .33465577L.27999879 .08265686 .16899109 .35466004C.16299439 .36865235 .16299439 .37565614 .16299439 .37565614 .16299439 .4016571 .19799805 .4016571 .21798706 .4016571V.43066407C.19198609 .4286499 .14299011 .4286499 .114990238 .4286499L.017990113 .43066407V.4016571C.07598877 .4016571 .083999637 .39665223 .09700012 .36567689L.24598694-.000076293948C.20199585-.10601807 .20199585-.10801697 .19799805-.11602783 .18099976-.14602661 .1539917-.184021 .10899353-.184021 .07798767-.184021 .05899048-.16601563 .05899048-.16601563 .05899048-.16601563 .09399414-.16201782 .09399414-.12702942 .09399414-.103027347 .07499695-.090026859 .056991579-.090026859 .039993287-.090148929 .018997193-.10014343 .018997193-.12913513 .018997193-.16712952 .055999757-.20410156 .10899353-.20410156 .16499329-.20410156 .20599365-.15512085 .23199463-.09214783L.40499879 .3336792C.43199159 .40065003 .47898866 .4016571 .49798585 .4016571Z"/>
<path id="font_9_72" d="M.24798584 0V.0289917C.18399048 .0289917 .17199707 .0289917 .17199707 .074020389V.69433596L.032989503 .6826172V.6536102C.100997928 .6536102 .10899353 .6466217 .10899353 .597641V.07395935C.10899353 .0289917 .09799194 .0289917 .032989503 .0289917V0C.06098938 .0019989014 .10998535 .0019989014 .13999939 .0019989014 .16999817 .0019989014 .21998596 .0019989014 .24798584 0Z"/>
<path id="font_9_81" d="M.45899964 .21424866C.45899964 .34326173 .36099244 .44628907 .24499512 .44628907 .125 .44628907 .02999878 .340271 .02999878 .21424866 .02999878 .086242679 .12998963-.009765625 .24398804-.009765625 .3619995-.009765625 .45899964 .08824158 .45899964 .21424866M.3829956 .22325135C.3829956 .18824768 .3829956 .12623596 .35699464 .07923889 .32899476 .031234742 .2829895 .01222229 .24499512 .01222229 .20799256 .01222229 .16299439 .02822876 .13398743 .07723999 .10699463 .12223816 .10598755 .1812439 .10598755 .22325135 .10598755 .261261 .10598755 .32226563 .13699341 .3672638 .16499329 .41027833 .20899964 .42626954 .24398804 .42626954 .2829895 .42626954 .32499696 .40827943 .35198976 .3692627 .3829956 .32325746 .3829956 .2602539 .3829956 .22325135Z"/>
<path id="font_9_96" d="M.35299684 .38339234C.35299684 .4133911 .32598878 .44140626 .2829895 .44140626 .19799805 .44140626 .16899109 .34939576 .16299439 .33039857H.1619873V.44140626L.027999878 .4303589V.4013672C.09599304 .4013672 .10398865 .39434815 .10398865 .3453064V.074035648C.10398865 .0289917 .09298706 .0289917 .027999878 .0289917V0C.055999757 .0019989014 .11099243 .0019989014 .14099121 .0019989014 .16799927 .0019989014 .23899842 .0019989014 .2619934 0V.0289917H.24198914C.16899109 .02973938 .16699219 .040740968 .16699219 .07673645V.23374939C.16699219 .3307495 .20698548 .42173768 .28399659 .42173768 .2919922 .42173768 .2939911 .42173768 .2979889 .42074586 .2899933 .41674806 .27398683 .41073609 .27398683 .3837433 .27398683 .35473634 .29699708 .34375 .31298829 .34375 .33299256 .34375 .35299684 .35673524 .35299684 .3837433V.38339234Z"/>
<path id="font_9_97" d="M.4889984 .18367005C.4889984 .24472046 .46598817 .28974916 .43899537 .32278443 .4019928 .36782838 .35699464 .37882997 .31799317 .38883973L.20799256 .41687013C.15699768 .42988587 .11199951 .47991944 .11199951 .54397585 .11199951 .6140442 .16799927 .6770935 .24598694 .6770935 .4099884 .6770935 .43199159 .5149536 .43798829 .47192384 .43998719 .4598999 .43998719 .4559021 .44999696 .4559021 .46099855 .4559021 .46099855 .46090699 .46099855 .4789276V.6810913C.46099855 .6990967 .46099855 .70410159 .45098878 .70410159 .44799806 .70410159 .44400025 .70410159 .43699647 .6911011L.4039917 .63005068C.35598756 .6920929 .2899933 .70410159 .24598694 .70410159 .1349945 .70410159 .053985597 .615036 .053985597 .5129547 .053985597 .4649048 .070999149 .42086793 .10798645 .38084413 .14299011 .34179688 .17799378 .3327942 .24899292 .31477357 .28399659 .30677796 .33898927 .29275514 .35299684 .28675843 .3999939 .2637329 .43099977 .20968628 .43099977 .15364075 .43099977 .078567508 .37799073 .007507324 .29499818 .007507324 .25 .007507324 .18798828 .01852417 .13899231 .061553956 .08099365 .113601688 .07699585 .18566895 .07598877 .21868897 .07499695 .22669983 .06498718 .22669983 .06498718 .22669983 .053985597 .22669983 .053985597 .22169495 .053985597 .20367432V.0015106201C.053985597-.016494751 .053985597-.021484375 .06399536-.021484375 .069992069-.021484375 .070999149-.019485474 .07798767-.0074920656L.11099243 .05255127C.14698792 .012512207 .20999146-.021484375 .29599-.021484375 .4079895-.021484375 .4889984 .07356262 .4889984 .18367005Z"/>
<path id="font_9_50" d="M.40699769 .11932373C.40699769 .1253357 .4019928 .1293335 .3959961 .1293335 .3880005 .1293335 .38598634 .12432861 .38398744 .11932373 .35798646 .035247804 .29100038 .01222229 .24899292 .01222229 .20698548 .01222229 .10598755 .040252687 .10598755 .21340943V.23242188H.3829956C.40499879 .23242188 .40699769 .23242188 .40699769 .25141908 .40699769 .3523407 .35299684 .44628907 .23199463 .44628907 .117996219 .44628907 .02999878 .34335328 .02999878 .21940613 .02999878 .08729553 .13198853-.009765625 .24299622-.009765625 .3619995-.009765625 .40699769 .09829712 .40699769 .11932373M.34498597 .25141908H.10699463C.114990238 .40830995 .20298767 .42630006 .23098755 .42630006 .33799745 .42630006 .34399415 .28538514 .34498597 .25141908Z"/>
<path id="font_9_66" d="M.24099732 0V.0289917C.17599488 .0289917 .17199707 .033996583 .17199707 .07304382V.44140626L.035995485 .4303589V.4013672C.099990848 .4013672 .10899353 .39535523 .10899353 .34629823V.074035648C.10899353 .0289917 .09799194 .0289917 .032989503 .0289917V0C.06098938 .0019989014 .10899353 .0019989014 .13798523 .0019989014 .14898682 .0019989014 .20698548 .0019989014 .24099732 0M.18499756 .6043091C.18499756 .63430789 .16099549 .6533203 .13699341 .6533203 .10899353 .6533203 .08799744 .63131716 .08799744 .6043091 .08799744 .5783081 .10998535 .55630496 .13598633 .55630496 .1659851 .55630496 .18499756 .580307 .18499756 .6043091Z"/>
<path id="font_9_98" d="M.35198976 .12739563C.35198976 .181427 .31900025 .21340943 .30999757 .22239685 .27398683 .25338746 .24699402 .25938417 .18099976 .27137757 .15098572 .27737428 .07798767 .29136659 .07798767 .35131837 .07798767 .38230897 .09899902 .4282837 .18899536 .4282837 .2979889 .4282837 .3039856 .33532716 .30599977 .3043518 .30699159 .2963562 .31399537 .2963562 .31698609 .2963562 .32798768 .2963562 .32798768 .30136109 .32798768 .3193512V.4232788C.32798768 .44128419 .32798768 .44628907 .31799317 .44628907 .30999757 .44628907 .29100038 .4242859 .28399659 .4152832 .25299073 .4402771 .22200012 .44628907 .18998719 .44628907 .068984989 .44628907 .032989503 .38031007 .032989503 .32533265 .032989503 .3143463 .032989503 .27937318 .070999149 .24438477 .102996829 .21640015 .13699341 .20941162 .18299866 .20040894 .23799134 .1894226 .25099183 .18641663 .27598573 .16642761 .2939911 .15142823 .30699159 .12940979 .30699159 .101364139 .30699159 .05831909 .28199769 .010253906 .19400025 .010253906 .12799073 .010253906 .07998657 .048294069 .057998659 .1484375 .053985597 .16642761 .052993776 .16842652 .052993776 .16842652 .050994874 .17242432 .04699707 .17242432 .04399109 .17242432 .032989503 .17242432 .032989503 .16743469 .032989503 .14942932V.013259888C.032989503-.004760742 .032989503-.009765625 .042999269-.009765625 .04798889-.009765625 .04899597-.008773804 .06599426 .012252808 .070999149 .019256592 .070999149 .021270752 .085998538 .03729248 .12399292-.009765625 .17799378-.009765625 .19499207-.009765625 .2999878-.009765625 .35198976 .048294069 .35198976 .12739563Z"/>
<path id="font_9_42" d="M.6519928 .23170471C.6519928 .24272156 .6519928 .24871826 .6409912 .24871826 .6309967 .24871826 .6299896 .24371338 .6299896 .2367096 .62098696 .07757568 .5049896 .007507324 .4079895 .007507324 .33799745 .007507324 .14698792 .049545289 .14698792 .34179688 .14698792 .63105776 .33499146 .6750946 .40699769 .6750946 .5119934 .6750946 .60398867 .5860138 .6239929 .43588258 .6259918 .4238739 .6259918 .42086793 .6380005 .42086793 .6519928 .42086793 .6519928 .4238739 .6519928 .44389344V.6810913C.6519928 .6990967 .6519928 .70410159 .6419983 .70410159 .6359863 .70410159 .6349945 .7020874 .6289978 .6920929L.5799866 .6130371C.5349884 .6690979 .46699525 .70410159 .394989 .70410159 .21199036 .70410159 .053985597 .54597476 .053985597 .34179688 .053985597 .13461304 .21398926-.021484375 .394989-.021484375 .5589905-.021484375 .6519928 .12161255 .6519928 .23170471Z"/>
<path id="font_9_77" d="M.5209961 0V.0289917C.47099305 .0289917 .44599916 .0289917 .44499208 .059051515V.24342346C.44499208 .3365631 .44499208 .36450196 .42199708 .39640809 .3929901 .4353943 .34599305 .44140626 .31199647 .44140626 .21499634 .44140626 .1769867 .35850526 .16899109 .338562H.16799927V.44140626L.03199768 .4303589V.4013672C.099990848 .4013672 .10798645 .39437867 .10798645 .34553529V.07408142C.10798645 .0289917 .09700012 .0289917 .03199768 .0289917V0C.057998659 .0019989014 .11199951 .0019989014 .13999939 .0019989014 .16899109 .0019989014 .22299195 .0019989014 .24899292 0V.0289917C.18499756 .0289917 .17298889 .0289917 .17298889 .07408142V.26046754C.17298889 .36547853 .24198914 .4213562 .3039856 .4213562 .3659973 .4213562 .37998963 .37045289 .37998963 .3095703V.07408142C.37998963 .0289917 .36898805 .0289917 .3039856 .0289917V0C.32998658 .0019989014 .38398744 .0019989014 .4119873 .0019989014 .44099427 .0019989014 .49499513 .0019989014 .5209961 0Z"/>
<path id="font_9_105" d="M.32598878 .124069217V.1809845H.3039856V.12606812C.3039856 .0541687 .2749939 .01222229 .23599243 .01222229 .16799927 .01222229 .16799927 .10508728 .16799927 .12207031V.4016571H.30899049V.43066407H.16799927V.6142578H.1459961C.14498902 .52046206 .10899353 .4246521 .017990113 .42166139V.4016571H.102996829V.124069217C.102996829 .01322937 .1769867-.009765625 .22999573-.009765625 .29299928-.009765625 .32598878 .0521698 .32598878 .124069217Z"/>
<path id="font_9_116" d="M.5059967 0V.0289917C.45298768 .0289917 .43499757 .0309906 .41099549 .06295776L.27999879 .23580933C.30899049 .2737732 .35099793 .32772828 .36999513 .3487091 .41099549 .39465333 .45799256 .4016571 .48999024 .4016571V.43066407C.44699098 .4286499 .44499208 .4286499 .4059906 .4286499L.31599427 .43066407V.4016571C.32899476 .3996582 .34498597 .3936615 .34498597 .37068177 .34498597 .35369874 .33599855 .3427124 .32998658 .3347168L.2659912 .25378419 .18798828 .35668946C.18499756 .36068727 .1789856 .36968995 .1789856 .37667848 .1789856 .38267518 .18399048 .40065003 .21398926 .4016571V.43066407C.18899536 .4286499 .13798523 .4286499 .11099243 .4286499L.01499939 .43066407V.4016571C.06599426 .4013672 .084991458 .39935304 .10598755 .37236024L.22299195 .21972656C.22499085 .2177124 .22898865 .2117157 .22898865 .20872498 .22898865 .205719 .15098572 .10786438 .14099121 .09487915 .09700012 .04096985 .052993776 .02998352 .009994507 .0289917V0C.04798889 .0019989014 .049987794 .0019989014 .09298706 .0019989014L.18299866 0V.0289917C.15899658 .031982423 .15499878 .046966554 .15499878 .060943605 .15499878 .0769043 .1619873 .0848999 .17199707 .09786987L.24398804 .1907196 .32598878 .08389282C.34298707 .061935426 .34298707 .059936525 .34298707 .053955079 .34298707 .045959474 .33499146 .02998352 .30799867 .0289917V0C.33399964 .0019989014 .3829956 .0019989014 .41099549 .0019989014L.5059967 0Z"/>
<path id="font_5_4" d="M.36698915 .3996582H.45298768C.47299195 .3996582 .48298646 .3996582 .48298646 .41966249 .48298646 .43066407 .47299195 .43066407 .45599366 .43066407H.37298585L.3939972 .5449524C.397995 .5660095 .4119873 .6370239 .41799928 .6490326 .4269867 .66804507 .44400025 .68307498 .46499635 .68307498 .46899415 .68307498 .49499513 .68307498 .5139923 .66503909 .46998597 .661026 .45999146 .6260376 .45999146 .6110382 .45999146 .58802798 .47799684 .57603457 .49699403 .57603457 .522995 .57603457 .5519867 .5980377 .5519867 .6360321 .5519867 .6820679 .5059967 .7050781 .46499635 .7050781 .43099977 .7050781 .36799623 .68707278 .33799745 .58802798 .33198548 .56700137 .32899476 .5569763 .30499269 .43066407H.23599243C.21699524 .43066407 .20599365 .43066407 .20599365 .4116516 .20599365 .3996582 .21499634 .3996582 .23399353 .3996582H.2999878L.22499085 .0048828127C.20698548-.09207153 .18998719-.18309021 .13798523-.18309021 .13398743-.18309021 .10899353-.18309021 .08999634-.16506958 .13598633-.1620636 .14498902-.12606812 .14498902-.111068729 .14498902-.08807373 .1269989-.07606506 .10798645-.07606506 .08198547-.07606506 .052993776-.09806824 .052993776-.13606262 .052993776-.18109131 .09700012-.20507813 .13798523-.20507813 .19299317-.20507813 .23298645-.14607239 .25099183-.108062747 .2829895-.04508972 .30599977 .07583618 .30699159 .082839969L.36698915 .3996582Z"/>
<path id="font_9_54" d="M.5970001 .45799256 .57099917 .68066409H.040985109V.6516571H.06098938C.1329956 .6516571 .13598633 .64167788 .13598633 .6047363V.07601929C.13598633 .039001466 .1329956 .0289917 .06098938 .0289917H.040985109V0C.06498718 .0019989014 .1539917 .0019989014 .18399048 .0019989014 .21899414 .0019989014 .30699159 .0019989014 .33599855 0V.0289917H.30599977C.21899414 .0289917 .21699524 .041000368 .21699524 .07702637V.32617188H.30499269C.39898683 .32617188 .40899659 .29315187 .40899659 .20909119H.43099977V.4719696H.40899659C.40899659 .3881073 .39898683 .35516358 .30499269 .35516358H.21699524V.61172488C.21699524 .6446686 .21899414 .6516571 .2630005 .6516571H.3880005C.5319977 .6516571 .5609894 .5987396 .57499697 .45799256H.5970001Z"/>
<path id="font_9_109" d="M.5209961 .00022888184V.029220581C.45298768 .029220581 .44499208 .036224367 .44499208 .085250858V.44140626L.3039856 .43040467V.4013977C.37199403 .4013977 .37998963 .39439393 .37998963 .34536744V.16629029C.37998963 .08125305 .33499146 .010223389 .2599945 .010223389 .17799378 .010223389 .17298889 .057235719 .17298889 .11026001V.44140626L.03199768 .43040467V.4013977C.10798645 .4013977 .10798645 .39839173 .10798645 .3093567V.1592865C.10798645 .09725952 .10798645 .06124878 .13798523 .02822876 .1619873 .0022277833 .20298767-.009765625 .2539978-.009765625 .2709961-.009765625 .30299378-.009765625 .33699037 .019226075 .3659973 .042236329 .38198854 .08024597 .38198854 .08024597V-.009765625L.5209961 .00022888184Z"/>
<path id="font_9_43" d="M.4059906 .1191864C.4059906 .12817383 .39898683 .12817383 .3959961 .12817383 .3869934 .12817383 .38598634 .1251831 .3829956 .1131897 .36099244 .04222107 .30699159 .01222229 .25299073 .01222229 .19198609 .01222229 .11099243 .065200809 .11099243 .21713257 .11099243 .3831482 .19599915 .4242859 .24598694 .4242859 .28399659 .4242859 .33898927 .40924073 .3619995 .3701172 .34999085 .3701172 .31298829 .3701172 .31298829 .32911683 .31298829 .30511476 .32998658 .28811646 .35398866 .28811646 .3769989 .28811646 .3959961 .30210877 .3959961 .33111573 .3959961 .39819337 .32598878 .44628907 .24499512 .44628907 .12799073 .44628907 .034988405 .34210206 .034988405 .21614075 .034988405 .0881958 .1309967-.009765625 .24398804-.009765625 .37599183-.009765625 .4059906 .110183719 .4059906 .1191864Z"/>
<path id="font_8_91" d="M.5269928-.1940918V-.16308594C.45999146-.16308594 .44898988-.16308594 .44898988-.117996219V.4423828H.4269867L.3889923 .35136415C.37599183 .379364 .33499146 .4423828 .25498963 .4423828 .13899231 .4423828 .033996583 .34535218 .033996583 .21531677 .033996583 .090270999 .1309967-.0107421879 .24699402-.0107421879 .31698609-.0107421879 .35798646 .03225708 .37998963 .061264039V-.117996219C.37998963-.16308594 .36898805-.16308594 .3019867-.16308594V-.1940918L.4139862-.19110108 .5269928-.1940918M.3829956 .1362915C.3829956 .104278568 .36499024 .07626343 .34298707 .052261354 .32998658 .038253786 .2979889 .011245728 .25099183 .011245728 .17799378 .011245728 .116989139 .10028076 .116989139 .21531677 .116989139 .3343506 .18699646 .41737367 .26098634 .41737367 .34098817 .41737367 .3829956 .33035279 .3829956 .2773285V.1362915Z"/>
<path id="font_8_109" d="M.5349884 0V.0309906C.46499635 .0309906 .45700074 .037994386 .45700074 .08705139V.4423828L.30999757 .43066407V.3996582C.37998963 .3996582 .3880005 .39266969 .3880005 .34373475V.16601563C.3880005 .07910156 .33999635 .011245728 .2669983 .011245728 .18299866 .011245728 .1789856 .058135988 .1789856 .11009216V.4423828L.03199768 .43066407V.3996582C.10998535 .3996582 .10998535 .39666749 .10998535 .3078003V.15802002C.10998535 .080093387 .10998535-.0107421879 .2619934-.0107421879 .31799317-.0107421879 .3619995 .017242432 .3909912 .07910156V-.0107421879L.5349884 0Z"/>
<path id="font_8_112" d="M.5079956 .3996582V.43066407C.4850006 .4286499 .45599366 .42765809 .43299867 .42765809L.34599305 .43066407V.3996582C.3829956 .39865113 .3939972 .37568666 .3939972 .35671998 .3939972 .34773255 .3919983 .34373475 .3880005 .3327484L.28599549 .078125 .17399597 .35671998C.16799927 .3697052 .16799927 .37368775 .16799927 .37368775 .16799927 .3996582 .20698548 .3996582 .22499085 .3996582V.43066407L.115997318 .42765809C.08898926 .42765809 .04899597 .4286499 .018997193 .43066407V.3996582C.08198547 .3996582 .085998538 .3936615 .09899902 .36271668L.24299622 .008224487C.24899292-.0057525637 .25099183-.0107421879 .2639923-.0107421879 .2769928-.0107421879 .2809906-.0017700195 .2849884 .008224487L.41600038 .3327484C.4249878 .3557129 .44198609 .39865113 .5079956 .3996582Z"/>
<path id="font_8_65" d="M.33299256 0V.0309906H.30699159C.22799683 .0309906 .22499085 .041992189 .22499085 .07795715V.6046295C.22499085 .64060977 .22799683 .6516113 .30699159 .6516113H.33299256V.6826172C.2979889 .6796112 .21899414 .6796112 .18099976 .6796112 .14199829 .6796112 .06298828 .6796112 .027999878 .6826172V.6516113H.053985597C.1329956 .6516113 .13598633 .64060977 .13598633 .6046295V.07795715C.13598633 .041992189 .1329956 .0309906 .053985597 .0309906H.027999878V0C.06298828 .0029907227 .14199829 .0029907227 .17999268 .0029907227 .21899414 .0029907227 .2979889 .0029907227 .33299256 0Z"/>
<path id="font_8_80" d="M.72099307 .3387909C.72099307 .5429535 .56999209 .7050781 .3880005 .7050781 .20899964 .7050781 .055999757 .5449524 .055999757 .3387909 .055999757 .13363648 .20999146-.022460938 .3880005-.022460938 .56999209-.022460938 .72099307 .13664246 .72099307 .3387909M.6179962 .35281373C.6179962 .08760071 .48098756 .0035247803 .3889923 .0035247803 .29299928 .0035247803 .15899658 .09159851 .15899658 .35281373 .15899658 .6120148 .30499269 .68006899 .3880005 .68006899 .47499085 .68006899 .6179962 .6090088 .6179962 .35281373Z"/>
<path id="font_8_42" d="M.6649933 .23271179C.6649933 .24272156 .6649933 .24972534 .6519928 .24972534 .6409912 .24972534 .6409912 .24372864 .6399994 .23371887 .6319885 .09059143 .5249939 .008529663 .41600038 .008529663 .35499574 .008529663 .15899658 .042556764 .15899658 .34080506 .15899658 .64004519 .35398866 .67407229 .4149933 .67407229 .5239868 .67407229 .61299136 .58299258 .6329956 .4368744 .6349945 .42286683 .6349945 .41986085 .6489868 .41986085 .6649933 .41986085 .6649933 .42286683 .6649933 .44387818V.68107607C.6649933 .69807437 .6649933 .7050781 .6539917 .7050781 .6499939 .7050781 .6459961 .7050781 .6380005 .69306948L.58799746 .61901858C.5509949 .6550598 .5 .7050781 .4039917 .7050781 .21699524 .7050781 .055999757 .5459595 .055999757 .34179688 .055999757 .1346283 .21798706-.022460938 .4039917-.022460938 .5669861-.022460938 .6649933 .116622928 .6649933 .23271179Z"/>
</defs>
<path transform="matrix(1.00005,0,0,-1.00002,25.272515,165.87107)" stroke-width=".3985" stroke-linecap="butt" stroke-miterlimit="10" stroke-linejoin="miter" fill="none" stroke="#085646" d="M0 0V141.73404"/>
<path transform="matrix(1.00005,0,0,-1.00002,25.272515,165.87107)" stroke-width=".3985" stroke-linecap="butt" stroke-miterlimit="10" stroke-linejoin="miter" fill="none" stroke="#085646" d="M0 141.73404H85.04042"/>
<path transform="matrix(1.00005,0,0,-1.00002,25.272515,165.87107)" stroke-width=".3985" stroke-linecap="butt" stroke-miterlimit="10" stroke-linejoin="miter" fill="none" stroke="#085646" d="M85.04042 141.73404V0"/>
<path transform="matrix(1.00005,0,0,-1.00002,25.272515,165.87107)" stroke-width=".3985" stroke-linecap="butt" stroke-miterlimit="10" stroke-linejoin="miter" fill="none" stroke="#085646" d="M85.04042 0H0"/>
<use data-text="&#x221e;" xlink:href="#font_1_1" transform="matrix(6.9741489,0,0,-6.97394,40.491266,32.03237)" fill="#085646"/>
<use data-text="&#x2211;" xlink:href="#font_2_1" transform="matrix(9.963098,0,0,-9.962799,37.267107,35.02143)" fill="#085646"/>
<use data-text="k" xlink:href="#font_3_1" transform="matrix(6.9741489,0,0,-6.97394,37.217103,56.468866)" fill="#085646"/>
<use data-text="=" xlink:href="#font_4_2" transform="matrix(6.9741489,0,0,-6.97394,41.621324,56.46987)" fill="#085646"/>
<use data-text="0" xlink:href="#font_4_1" transform="matrix(6.9741489,0,0,-6.97394,47.737649,56.46987)" fill="#085646"/>
<use data-text="c" xlink:href="#font_5_3" transform="matrix(9.963098,0,0,-9.962799,53.36891,44.48664)" fill="#085646"/>
<use data-text="k" xlink:href="#font_3_1" transform="matrix(6.9741489,0,0,-6.97394,57.68112,45.980676)" fill="#085646"/>
<use data-text="(" xlink:href="#font_6_1" transform="matrix(9.963098,0,0,-9.962799,62.582368,44.48664)" fill="#085646"/>
<use data-text="x" xlink:href="#font_5_5" transform="matrix(9.963098,0,0,-9.962799,66.457569,44.48664)" fill="#085646"/>
<use data-text="&#x2212;" xlink:href="#font_7_1" transform="matrix(9.963098,0,0,-9.962799,74.36597,44.48664)" fill="#085646"/>
<use data-text="a" xlink:href="#font_5_2" transform="matrix(9.963098,0,0,-9.962799,84.32846,44.48664)" fill="#085646"/>
<use data-text=")" xlink:href="#font_6_2" transform="matrix(9.963098,0,0,-9.962799,89.59473,44.48664)" fill="#085646"/>
<use data-text="k" xlink:href="#font_3_1" transform="matrix(6.9741489,0,0,-6.97394,93.469928,40.37255)" fill="#085646"/>
<use data-text="&#x221e;" xlink:href="#font_1_1" transform="matrix(6.9741489,0,0,-6.97394,32.880884,139.37253)" fill="#085646"/>
<use data-text="&#x2211;" xlink:href="#font_2_1" transform="matrix(9.963098,0,0,-9.962799,29.656723,142.36159)" fill="#085646"/>
<use data-text="k" xlink:href="#font_3_1" transform="matrix(6.9741489,0,0,-6.97394,29.60672,163.80902)" fill="#085646"/>
<use data-text="=" xlink:href="#font_4_2" transform="matrix(6.9741489,0,0,-6.97394,34.01094,163.81003)" fill="#085646"/>
<use data-text="0" xlink:href="#font_4_1" transform="matrix(6.9741489,0,0,-6.97394,40.127267,163.81003)" fill="#085646"/>
<use data-text="A" xlink:href="#font_5_1" transform="matrix(9.963098,0,0,-9.962799,45.75853,151.8268)" fill="#085646"/>
<use data-text="(" xlink:href="#font_6_1" transform="matrix(9.963098,0,0,-9.962799,53.230897,151.8268)" fill="#085646"/>
<use data-text="c" xlink:href="#font_5_3" transform="matrix(9.963098,0,0,-9.962799,57.106096,151.8268)" fill="#085646"/>
<use data-text="k" xlink:href="#font_3_1" transform="matrix(6.9741489,0,0,-6.97394,61.417314,153.32083)" fill="#085646"/>
<use data-text="(" xlink:href="#font_6_1" transform="matrix(9.963098,0,0,-9.962799,66.31955,151.8268)" fill="#085646"/>
<use data-text="x" xlink:href="#font_5_5" transform="matrix(9.963098,0,0,-9.962799,70.19374,151.8268)" fill="#085646"/>
<use data-text="&#x2212;" xlink:href="#font_7_1" transform="matrix(9.963098,0,0,-9.962799,78.10214,151.8268)" fill="#085646"/>
<use data-text="a" xlink:href="#font_5_2" transform="matrix(9.963098,0,0,-9.962799,88.06563,151.8268)" fill="#085646"/>
<use data-text=")" xlink:href="#font_6_2" transform="matrix(9.963098,0,0,-9.962799,93.33191,151.8268)" fill="#085646"/>
<use data-text="k" xlink:href="#font_3_1" transform="matrix(6.9741489,0,0,-6.97394,97.206089,147.7127)" fill="#085646"/>
<use data-text=")" xlink:href="#font_6_2" transform="matrix(9.963098,0,0,-9.962799,102.10832,151.8268)" fill="#085646"/>
<path transform="matrix(1.00005,0,0,-1.00002,25.272515,165.87107)" stroke-width="1.49442" stroke-linecap="butt" stroke-miterlimit="10" stroke-linejoin="miter" fill="none" stroke="#085646" d="M39.68535 104.88309V40.56157"/>
<path transform="matrix(0,1.00002,1.00005,0,64.95985,125.308689)" d="M6.54549 0C4.60605 .36362 1.45454 1.45454-.72726 2.72728V-2.72728C1.45454-1.45454 4.60605-.36362 6.54549 0" fill="#085646"/>
<use data-text="a" xlink:href="#font_8_28" transform="matrix(9.963098,0,0,-9.962799,68.479679,88.934528)" fill="#085646"/>
<use data-text="p" xlink:href="#font_8_84" transform="matrix(9.963098,0,0,-9.962799,73.46123,88.934528)" fill="#085646"/>
<use data-text="p" xlink:href="#font_8_84" transform="matrix(9.963098,0,0,-9.962799,79.00071,88.934528)" fill="#085646"/>
<use data-text="l" xlink:href="#font_8_72" transform="matrix(9.963098,0,0,-9.962799,84.54019,88.934528)" fill="#085646"/>
<use data-text="y" xlink:href="#font_8_118" transform="matrix(9.963098,0,0,-9.962799,87.309947,88.934528)" fill="#085646"/>
<use data-text="o" xlink:href="#font_8_81" transform="matrix(9.963098,0,0,-9.962799,68.479679,98.72672)" fill="#085646"/>
<use data-text="p" xlink:href="#font_8_84" transform="matrix(9.963098,0,0,-9.962799,73.46123,98.72672)" fill="#085646"/>
<use data-text="e" xlink:href="#font_8_50" transform="matrix(9.963098,0,0,-9.962799,79.27968,98.72672)" fill="#085646"/>
<use data-text="r" xlink:href="#font_8_96" transform="matrix(9.963098,0,0,-9.962799,83.70329,98.72672)" fill="#085646"/>
<use data-text="a" xlink:href="#font_8_28" transform="matrix(9.963098,0,0,-9.962799,87.60883,98.72672)" fill="#085646"/>
<use data-text="t" xlink:href="#font_8_105" transform="matrix(9.963098,0,0,-9.962799,92.59037,98.72672)" fill="#085646"/>
<use data-text="i" xlink:href="#font_8_66" transform="matrix(9.963098,0,0,-9.962799,96.46603,98.72672)" fill="#085646"/>
<use data-text="o" xlink:href="#font_8_81" transform="matrix(9.963098,0,0,-9.962799,99.23577,98.72672)" fill="#085646"/>
<use data-text="n" xlink:href="#font_8_77" transform="matrix(9.963098,0,0,-9.962799,104.21731,98.72672)" fill="#085646"/>
<use data-text="A" xlink:href="#font_5_1" transform="matrix(9.963098,0,0,-9.962799,68.479679,109.744937)" fill="#085646"/>
<use data-text="T" xlink:href="#font_9_104" transform="matrix(14.346916,0,0,-14.346487,1.217308,12.017975)" fill="#085646"/>
<use data-text="a" xlink:href="#font_9_28" transform="matrix(14.346916,0,0,-14.346487,10.198479,12.017975)" fill="#085646"/>
<use data-text="y" xlink:href="#font_9_118" transform="matrix(14.346916,0,0,-14.346487,16.841103,12.017975)" fill="#085646"/>
<use data-text="l" xlink:href="#font_9_72" transform="matrix(14.346916,0,0,-14.346487,24.258454,12.017975)" fill="#085646"/>
<use data-text="o" xlink:href="#font_9_81" transform="matrix(14.346916,0,0,-14.346487,28.160813,12.017975)" fill="#085646"/>
<use data-text="r" xlink:href="#font_9_96" transform="matrix(14.346916,0,0,-14.346487,35.190797,12.017975)" fill="#085646"/>
<use data-text="S" xlink:href="#font_9_97" transform="matrix(14.346916,0,0,-14.346487,45.319719,12.017975)" fill="#085646"/>
<use data-text="e" xlink:href="#font_9_50" transform="matrix(14.346916,0,0,-14.346487,53.12445,12.017975)" fill="#085646"/>
<use data-text="r" xlink:href="#font_9_96" transform="matrix(14.346916,0,0,-14.346487,59.365358,12.017975)" fill="#085646"/>
<use data-text="i" xlink:href="#font_9_66" transform="matrix(14.346916,0,0,-14.346487,64.83153,12.017975)" fill="#085646"/>
<use data-text="e" xlink:href="#font_9_50" transform="matrix(14.346916,0,0,-14.346487,68.73389,12.017975)" fill="#085646"/>
<use data-text="s" xlink:href="#font_9_98" transform="matrix(14.346916,0,0,-14.346487,74.97479,12.017975)" fill="#085646"/>
<use data-text="C" xlink:href="#font_9_42" transform="matrix(14.346916,0,0,-14.346487,85.189807,12.017975)" fill="#085646"/>
<use data-text="o" xlink:href="#font_9_81" transform="matrix(14.346916,0,0,-14.346487,95.33307,12.017975)" fill="#085646"/>
<use data-text="n" xlink:href="#font_9_77" transform="matrix(14.346916,0,0,-14.346487,102.36305,12.017975)" fill="#085646"/>
<use data-text="t" xlink:href="#font_9_105" transform="matrix(14.346916,0,0,-14.346487,109.794757,12.017975)" fill="#085646"/>
<use data-text="e" xlink:href="#font_9_50" transform="matrix(14.346916,0,0,-14.346487,115.260929,12.017975)" fill="#085646"/>
<use data-text="x" xlink:href="#font_9_116" transform="matrix(14.346916,0,0,-14.346487,121.50185,12.017975)" fill="#085646"/>
<use data-text="t" xlink:href="#font_9_105" transform="matrix(14.346916,0,0,-14.346487,128.9192,12.017975)" fill="#085646"/>
<path transform="matrix(1.00005,0,0,-1.00002,25.272515,165.87107)" stroke-width=".3985" stroke-linecap="butt" stroke-miterlimit="10" stroke-linejoin="miter" fill="none" stroke="#5762d5" d="M141.73404 0V141.73404"/>
<path transform="matrix(1.00005,0,0,-1.00002,25.272515,165.87107)" stroke-width=".3985" stroke-linecap="butt" stroke-miterlimit="10" stroke-linejoin="miter" fill="none" stroke="#5762d5" d="M141.73404 141.73404H226.77448"/>
<path transform="matrix(1.00005,0,0,-1.00002,25.272515,165.87107)" stroke-width=".3985" stroke-linecap="butt" stroke-miterlimit="10" stroke-linejoin="miter" fill="none" stroke="#5762d5" d="M226.77448 141.73404V0"/>
<path transform="matrix(1.00005,0,0,-1.00002,25.272515,165.87107)" stroke-width=".3985" stroke-linecap="butt" stroke-miterlimit="10" stroke-linejoin="miter" fill="none" stroke="#5762d5" d="M226.77448 0H141.73404"/>
<use data-text="f" xlink:href="#font_5_4" transform="matrix(9.963098,0,0,-9.962799,199.83924,46.470674)" fill="#5762d5"/>
<use data-text="(" xlink:href="#font_6_1" transform="matrix(9.963098,0,0,-9.962799,205.78952,46.470674)" fill="#5762d5"/>
<use data-text="x" xlink:href="#font_5_5" transform="matrix(9.963098,0,0,-9.962799,209.66371,46.470674)" fill="#5762d5"/>
<use data-text=")" xlink:href="#font_6_2" transform="matrix(9.963098,0,0,-9.962799,215.358,46.470674)" fill="#5762d5"/>
<use data-text="A" xlink:href="#font_5_1" transform="matrix(9.963098,0,0,-9.962799,192.22785,152.7678)" fill="#5762d5"/>
<use data-text="(" xlink:href="#font_6_1" transform="matrix(9.963098,0,0,-9.962799,199.70023,152.7678)" fill="#5762d5"/>
<use data-text="f" xlink:href="#font_5_4" transform="matrix(9.963098,0,0,-9.962799,203.57442,152.7678)" fill="#5762d5"/>
<use data-text="(" xlink:href="#font_6_1" transform="matrix(9.963098,0,0,-9.962799,209.52472,152.7678)" fill="#5762d5"/>
<use data-text="x" xlink:href="#font_5_5" transform="matrix(9.963098,0,0,-9.962799,213.3999,152.7678)" fill="#5762d5"/>
<use data-text=")" xlink:href="#font_6_2" transform="matrix(9.963098,0,0,-9.962799,219.0942,152.7678)" fill="#5762d5"/>
<use data-text=")" xlink:href="#font_6_2" transform="matrix(9.963098,0,0,-9.962799,222.95989,152.7678)" fill="#5762d5"/>
<path transform="matrix(1.00005,0,0,-1.00002,25.272515,165.87107)" stroke-width="1.49442" stroke-linecap="butt" stroke-miterlimit="10" stroke-linejoin="miter" fill="none" stroke="#5762d5" d="M181.4194 104.88309V40.56157"/>
<path transform="matrix(0,1.00002,1.00005,0,206.70099,125.308689)" d="M6.54549 0C4.60605 .36362 1.45454 1.45454-.72726 2.72728V-2.72728C1.45454-1.45454 4.60605-.36362 6.54549 0" fill="#5762d5"/>
<use data-text="a" xlink:href="#font_8_28" transform="matrix(9.963098,0,0,-9.962799,210.22074,88.934528)" fill="#5762d5"/>
<use data-text="p" xlink:href="#font_8_84" transform="matrix(9.963098,0,0,-9.962799,215.2023,88.934528)" fill="#5762d5"/>
<use data-text="p" xlink:href="#font_8_84" transform="matrix(9.963098,0,0,-9.962799,220.74178,88.934528)" fill="#5762d5"/>
<use data-text="l" xlink:href="#font_8_72" transform="matrix(9.963098,0,0,-9.962799,226.28125,88.934528)" fill="#5762d5"/>
<use data-text="y" xlink:href="#font_8_118" transform="matrix(9.963098,0,0,-9.962799,229.05101,88.934528)" fill="#5762d5"/>
<use data-text="o" xlink:href="#font_8_81" transform="matrix(9.963098,0,0,-9.962799,210.22074,98.72672)" fill="#5762d5"/>
<use data-text="p" xlink:href="#font_8_84" transform="matrix(9.963098,0,0,-9.962799,215.2023,98.72672)" fill="#5762d5"/>
<use data-text="e" xlink:href="#font_8_50" transform="matrix(9.963098,0,0,-9.962799,221.02075,98.72672)" fill="#5762d5"/>
<use data-text="r" xlink:href="#font_8_96" transform="matrix(9.963098,0,0,-9.962799,225.44437,98.72672)" fill="#5762d5"/>
<use data-text="a" xlink:href="#font_8_28" transform="matrix(9.963098,0,0,-9.962799,229.3499,98.72672)" fill="#5762d5"/>
<use data-text="t" xlink:href="#font_8_105" transform="matrix(9.963098,0,0,-9.962799,234.33144,98.72672)" fill="#5762d5"/>
<use data-text="i" xlink:href="#font_8_66" transform="matrix(9.963098,0,0,-9.962799,238.20709,98.72672)" fill="#5762d5"/>
<use data-text="o" xlink:href="#font_8_81" transform="matrix(9.963098,0,0,-9.962799,240.97684,98.72672)" fill="#5762d5"/>
<use data-text="n" xlink:href="#font_8_77" transform="matrix(9.963098,0,0,-9.962799,245.95838,98.72672)" fill="#5762d5"/>
<use data-text="A" xlink:href="#font_5_1" transform="matrix(9.963098,0,0,-9.962799,210.22074,109.744937)" fill="#5762d5"/>
<use data-text="F" xlink:href="#font_9_54" transform="matrix(14.346916,0,0,-14.346487,155.58402,14.644043)" fill="#5762d5"/>
<use data-text="u" xlink:href="#font_9_109" transform="matrix(14.346916,0,0,-14.346487,163.5896,14.644043)" fill="#5762d5"/>
<use data-text="n" xlink:href="#font_9_77" transform="matrix(14.346916,0,0,-14.346487,171.39432,14.644043)" fill="#5762d5"/>
<use data-text="c" xlink:href="#font_9_43" transform="matrix(14.346916,0,0,-14.346487,179.19905,14.644043)" fill="#5762d5"/>
<use data-text="t" xlink:href="#font_9_105" transform="matrix(14.346916,0,0,-14.346487,185.43997,14.644043)" fill="#5762d5"/>
<use data-text="i" xlink:href="#font_9_66" transform="matrix(14.346916,0,0,-14.346487,190.90615,14.644043)" fill="#5762d5"/>
<use data-text="o" xlink:href="#font_9_81" transform="matrix(14.346916,0,0,-14.346487,194.80849,14.644043)" fill="#5762d5"/>
<use data-text="n" xlink:href="#font_9_77" transform="matrix(14.346916,0,0,-14.346487,201.83847,14.644043)" fill="#5762d5"/>
<use data-text="C" xlink:href="#font_9_42" transform="matrix(14.346916,0,0,-14.346487,214.30596,14.644043)" fill="#5762d5"/>
<use data-text="o" xlink:href="#font_9_81" transform="matrix(14.346916,0,0,-14.346487,224.44922,14.644043)" fill="#5762d5"/>
<use data-text="n" xlink:href="#font_9_77" transform="matrix(14.346916,0,0,-14.346487,231.4792,14.644043)" fill="#5762d5"/>
<use data-text="t" xlink:href="#font_9_105" transform="matrix(14.346916,0,0,-14.346487,238.91092,14.644043)" fill="#5762d5"/>
<use data-text="e" xlink:href="#font_9_50" transform="matrix(14.346916,0,0,-14.346487,244.37709,14.644043)" fill="#5762d5"/>
<use data-text="x" xlink:href="#font_9_116" transform="matrix(14.346916,0,0,-14.346487,250.618,14.644043)" fill="#5762d5"/>
<use data-text="t" xlink:href="#font_9_105" transform="matrix(14.346916,0,0,-14.346487,258.03535,14.644043)" fill="#5762d5"/>
<path transform="matrix(1.00005,0,0,-1.00002,25.272515,165.87107)" stroke-width="1.19553" stroke-linecap="butt" stroke-miterlimit="10" stroke-linejoin="miter" fill="none" stroke="#ad343e" d="M87.9441 17.00824H150.16889"/>
<path transform="matrix(-1.00005,-0,0,1.00002,113.22101,148.86249)" d="M5.73854 0C4.0382 .31879 1.27522 1.27522-.6376 2.39105V-2.39105C1.27522-1.27522 4.0382-.31879 5.73854 0" fill="#ad343e"/>
<path transform="matrix(1.00005,0,0,-1.00002,175.44892,148.86249)" d="M5.73854 0C4.0382 .31879 1.27522 1.27522-.6376 2.39105V-2.39105C1.27522-1.27522 4.0382-.31879 5.73854 0" fill="#ad343e"/>
<use data-text="e" xlink:href="#font_8_50" transform="matrix(9.963098,0,0,-9.962799,116.66108,143.4096)" fill="#ad343e"/>
<use data-text="q" xlink:href="#font_8_91" transform="matrix(9.963098,0,0,-9.962799,121.084697,143.4096)" fill="#ad343e"/>
<use data-text="u" xlink:href="#font_8_109" transform="matrix(9.963098,0,0,-9.962799,126.34521,143.4096)" fill="#ad343e"/>
<use data-text="i" xlink:href="#font_8_66" transform="matrix(9.963098,0,0,-9.962799,131.8847,143.4096)" fill="#ad343e"/>
<use data-text="v" xlink:href="#font_8_112" transform="matrix(9.963098,0,0,-9.962799,134.65444,143.4096)" fill="#ad343e"/>
<use data-text="a" xlink:href="#font_8_28" transform="matrix(9.963098,0,0,-9.962799,139.36698,143.4096)" fill="#ad343e"/>
<use data-text="l" xlink:href="#font_8_72" transform="matrix(9.963098,0,0,-9.962799,144.34853,143.4096)" fill="#ad343e"/>
<use data-text="e" xlink:href="#font_8_50" transform="matrix(9.963098,0,0,-9.962799,147.11827,143.4096)" fill="#ad343e"/>
<use data-text="n" xlink:href="#font_8_77" transform="matrix(9.963098,0,0,-9.962799,151.54189,143.4096)" fill="#ad343e"/>
<use data-text="t" xlink:href="#font_8_105" transform="matrix(9.963098,0,0,-9.962799,156.8024,143.4096)" fill="#ad343e"/>
<use data-text="o" xlink:href="#font_8_81" transform="matrix(9.963098,0,0,-9.962799,122.475368,159.40593)" fill="#ad343e"/>
<use data-text="n" xlink:href="#font_8_77" transform="matrix(9.963098,0,0,-9.962799,127.45692,159.40593)" fill="#ad343e"/>
<use data-text="I" xlink:href="#font_8_65" transform="matrix(9.963098,0,0,-9.962799,136.31412,159.40593)" fill="#ad343e"/>
<use data-text="O" xlink:href="#font_8_80" transform="matrix(9.963098,0,0,-9.962799,139.91078,159.40593)" fill="#ad343e"/>
<use data-text="C" xlink:href="#font_8_42" transform="matrix(9.963098,0,0,-9.962799,147.66207,159.40593)" fill="#ad343e"/>
<path transform="matrix(1.00005,0,0,-1.00002,25.272515,165.87107)" stroke-width="1.19553" stroke-linecap="butt" stroke-miterlimit="10" stroke-linejoin="miter" fill="none" stroke="#ad343e" d="M87.9441 124.72578H150.16889"/>
<path transform="matrix(-1.00005,-0,0,1.00002,113.22101,41.14279)" d="M5.73854 0C4.0382 .31879 1.27522 1.27522-.6376 2.39105V-2.39105C1.27522-1.27522 4.0382-.31879 5.73854 0" fill="#ad343e"/>
<path transform="matrix(1.00005,0,0,-1.00002,175.44892,41.14279)" d="M5.73854 0C4.0382 .31879 1.27522 1.27522-.6376 2.39105V-2.39105C1.27522-1.27522 4.0382-.31879 5.73854 0" fill="#ad343e"/>
<use data-text="e" xlink:href="#font_8_50" transform="matrix(9.963098,0,0,-9.962799,116.66108,35.69046)" fill="#ad343e"/>
<use data-text="q" xlink:href="#font_8_91" transform="matrix(9.963098,0,0,-9.962799,121.084697,35.69046)" fill="#ad343e"/>
<use data-text="u" xlink:href="#font_8_109" transform="matrix(9.963098,0,0,-9.962799,126.34521,35.69046)" fill="#ad343e"/>
<use data-text="i" xlink:href="#font_8_66" transform="matrix(9.963098,0,0,-9.962799,131.8847,35.69046)" fill="#ad343e"/>
<use data-text="v" xlink:href="#font_8_112" transform="matrix(9.963098,0,0,-9.962799,134.65444,35.69046)" fill="#ad343e"/>
<use data-text="a" xlink:href="#font_8_28" transform="matrix(9.963098,0,0,-9.962799,139.36698,35.69046)" fill="#ad343e"/>
<use data-text="l" xlink:href="#font_8_72" transform="matrix(9.963098,0,0,-9.962799,144.34853,35.69046)" fill="#ad343e"/>
<use data-text="e" xlink:href="#font_8_50" transform="matrix(9.963098,0,0,-9.962799,147.11827,35.69046)" fill="#ad343e"/>
<use data-text="n" xlink:href="#font_8_77" transform="matrix(9.963098,0,0,-9.962799,151.54189,35.69046)" fill="#ad343e"/>
<use data-text="t" xlink:href="#font_8_105" transform="matrix(9.963098,0,0,-9.962799,156.8024,35.69046)" fill="#ad343e"/>
<use data-text="o" xlink:href="#font_8_81" transform="matrix(9.963098,0,0,-9.962799,122.475368,51.686777)" fill="#ad343e"/>
<use data-text="n" xlink:href="#font_8_77" transform="matrix(9.963098,0,0,-9.962799,127.45692,51.686777)" fill="#ad343e"/>
<use data-text="I" xlink:href="#font_8_65" transform="matrix(9.963098,0,0,-9.962799,136.31412,51.686777)" fill="#ad343e"/>
<use data-text="O" xlink:href="#font_8_80" transform="matrix(9.963098,0,0,-9.962799,139.91078,51.686777)" fill="#ad343e"/>
<use data-text="C" xlink:href="#font_8_42" transform="matrix(9.963098,0,0,-9.962799,147.66207,51.686777)" fill="#ad343e"/>
</svg>
