<svg xmlns="http://www.w3.org/2000/svg" xmlns:xlink="http://www.w3.org/1999/xlink" xmlns:inkscape="http://www.inkscape.org/namespaces/inkscape" version="1.1" width="231" height="165" viewBox="0 0 231 165">
<defs>
<path id="font_1_1" d="M.10398865-2.177124C.13598633-2.1751099 .15299988-2.1531068 .15299988-2.1281129 .15299988-2.095108 .12799073-2.0791016 .10499573-2.0791016 .08099365-2.0791016 .055999757-2.0941163 .055999757-2.1291047 .055999757-2.18013 .10598755-2.2221986 .16699219-2.2221986 .31900025-2.2221986 .37599183-1.9880982 .44699098-1.6980591 .5239868-1.382019 .58898928-1.062973 .6429901-.7419281 .6799927-.52890017 .71699526-.32887269 .7509918-.19985962 .7630005-.15084839 .7969971-.022003174 .83599856-.022003174 .86698916-.022003174 .8919983-.040893556 .8959961-.0448761 .86299136-.04685974 .84599307-.068862918 .84599307-.09385681 .84599307-.12686157 .87098696-.14285279 .8939972-.14285279 .91799929-.14285279 .94299319-.1278534 .94299319-.09286499 .94299319-.038909913 .8889923 0 .83399966 0 .7579956 0 .70199587-.1088562 .6469879-.3128662 .6439972-.3238678 .5079956-.825943 .397995-1.4800263 .37199403-1.6330414 .34298707-1.8000641 .30999757-1.9390869 .2919922-2.0121003 .24598694-2.2001954 .16499329-2.2001954 .1289978-2.2001954 .10499573-2.177124 .10398865-2.177124Z"/>
<path id="font_2_6" d="M.36698915 .3996582H.45298768C.47299195 .3996582 .48298646 .3996582 .48298646 .41966249 .48298646 .43066407 .47299195 .43066407 .45599366 .43066407H.37298585L.3939972 .5449524C.397995 .5660095 .4119873 .6370239 .41799928 .6490326 .4269867 .66804507 .44400025 .68307498 .46499635 .68307498 .46899415 .68307498 .49499513 .68307498 .5139923 .66503909 .46998597 .661026 .45999146 .6260376 .45999146 .6110382 .45999146 .58802798 .47799684 .57603457 .49699403 .57603457 .522995 .57603457 .5519867 .5980377 .5519867 .6360321 .5519867 .6820679 .5059967 .7050781 .46499635 .7050781 .43099977 .7050781 .36799623 .68707278 .33799745 .58802798 .33198548 .56700137 .32899476 .5569763 .30499269 .43066407H.23599243C.21699524 .43066407 .20599365 .43066407 .20599365 .4116516 .20599365 .3996582 .21499634 .3996582 .23399353 .3996582H.2999878L.22499085 .0048828127C.20698548-.09207153 .18998719-.18309021 .13798523-.18309021 .13398743-.18309021 .10899353-.18309021 .08999634-.16506958 .13598633-.1620636 .14498902-.12606812 .14498902-.111068729 .14498902-.08807373 .1269989-.07606506 .10798645-.07606506 .08198547-.07606506 .052993776-.09806824 .052993776-.13606262 .052993776-.18109131 .09700012-.20507813 .13798523-.20507813 .19299317-.20507813 .23298645-.14607239 .25099183-.108062747 .2829895-.04508972 .30599977 .07583618 .30699159 .082839969L.36698915 .3996582Z"/>
<path id="font_3_1" d="M.33099366-.2400055C.33099366-.23701477 .33099366-.23500061 .31399537-.21800232 .18899536-.0920105 .15699768 .09700012 .15699768 .25 .15699768 .42399598 .19499207 .59799197 .31799317 .72299197 .33099366 .73498538 .33099366 .7369995 .33099366 .73999026 .33099366 .746994 .32699586 .75 .32099916 .75 .31098939 .75 .22099304 .6819916 .1619873 .5549927 .11099243 .44499208 .09899902 .33399964 .09899902 .25 .09899902 .17199707 .10998535 .050994874 .16499329-.06201172 .22499085-.18501282 .31098939-.25 .32099916-.25 .32699586-.25 .33099366-.24700928 .33099366-.2400055Z"/>
<path id="font_2_9" d="M.33399964 .30233766C.33999635 .32835389 .36299134 .42037965 .43299867 .42037965 .43798829 .42037965 .46199037 .42037965 .48298646 .40734864 .45498658 .402359 .43499757 .37734986 .43499757 .35334779 .43499757 .33735658 .44599916 .31835938 .47299195 .31835938 .49499513 .31835938 .5269928 .3363495 .5269928 .37635804 .5269928 .42837525 .46798707 .4423828 .43399049 .4423828 .37599183 .4423828 .34098817 .38935853 .32899476 .36634828 .3039856 .43237306 .25 .4423828 .22099304 .4423828 .116989139 .4423828 .05999756 .3133545 .05999756 .28834535 .05999756 .27833558 .069992069 .27833558 .07199097 .27833558 .07998657 .27833558 .08299255 .28033448 .084991458 .28933717 .11898804 .39535523 .18499756 .42037965 .21899414 .42037965 .23799134 .42037965 .272995 .4113617 .272995 .35334779 .272995 .32235719 .2559967 .25532533 .21899414 .11528015 .20298767 .053268434 .16799927 .011245728 .12399292 .011245728 .117996219 .011245728 .09498596 .011245728 .07398987 .024276734 .09899902 .029266358 .12098694 .05027771 .12098694 .07827759 .12098694 .105270389 .09899902 .11328125 .083999637 .11328125 .053985597 .11328125 .0289917 .08728027 .0289917 .055267335 .0289917 .009246826 .07899475-.0107421879 .12298584-.0107421879 .18899536-.0107421879 .22499085 .059280397 .22799683 .0652771 .23999024 .028274537 .27598573-.0107421879 .33599855-.0107421879 .43899537-.0107421879 .49598695 .118270877 .49598695 .14328003 .49598695 .1532898 .4869995 .1532898 .48399354 .1532898 .47499085 .1532898 .47299195 .14929199 .47099305 .14228821 .43798829 .03527832 .36999513 .011245728 .33799745 .011245728 .29899598 .011245728 .2829895 .043273927 .2829895 .07727051 .2829895 .09927368 .2889862 .121276859 .2999878 .16529846L.33399964 .30233766Z"/>
<path id="font_3_2" d="M.2889862 .25C.2889862 .32798768 .27799989 .44898988 .22299195 .56199648 .16299439 .68499758 .07699585 .75 .066986087 .75 .06098938 .75 .056991579 .74598696 .056991579 .73999026 .056991579 .7369995 .056991579 .73498538 .07598877 .71699526 .17399597 .6179962 .23098755 .45899964 .23098755 .25 .23098755 .07899475 .19400025-.09700012 .069992069-.2230072 .056991579-.23500061 .056991579-.23701477 .056991579-.2400055 .056991579-.2460022 .06098938-.25 .066986087-.25 .07699585-.25 .16699219-.18200684 .22599793-.055007936 .2769928 .054992677 .2889862 .16600037 .2889862 .25Z"/>
<path id="font_2_5" d="M.5159912 .68333438C.5159912 .6843262 .5159912 .69433596 .5029907 .69433596 .48799134 .69433596 .3929901 .68533328 .37599183 .68333438 .36799623 .6823273 .3619995 .6773224 .3619995 .6643219 .3619995 .6523285 .37098695 .6523285 .38598634 .6523285 .43399049 .6523285 .43598939 .6453247 .43598939 .6353302L.43299867 .6153412 .37298585 .37835694C.35499574 .41537477 .32598878 .4423828 .2809906 .4423828 .1639862 .4423828 .039993287 .29533387 .039993287 .14929199 .039993287 .055267335 .09498596-.0107421879 .17298889-.0107421879 .19299317-.0107421879 .24299622-.0067443849 .30299378 .06427002 .31098939 .022247315 .34599305-.0107421879 .3939972-.0107421879 .42900086-.0107421879 .45199586 .012252808 .46798707 .044265748 .4850006 .08027649 .49798585 .14129639 .49798585 .14329529 .49798585 .1532898 .4889984 .1532898 .48599244 .1532898 .47599793 .1532898 .47499085 .14929199 .47200013 .13528443 .45498658 .07026672 .43699647 .011245728 .3959961 .011245728 .36898805 .011245728 .3659973 .037261964 .3659973 .057266237 .3659973 .08126831 .36799623 .088272098 .37199403 .105285648L.5159912 .68333438M.30799867 .119277957C.30299378 .10127258 .30299378 .09927368 .28799439 .08227539 .24398804 .027252198 .20298767 .011245728 .1749878 .011245728 .125 .011245728 .11099243 .06626892 .11099243 .105285648 .11099243 .1552887 .14299011 .27833558 .1659851 .32434083 .19699097 .38336183 .24198914 .42037965 .28199769 .42037965 .34700013 .42037965 .36099244 .3383484 .36099244 .33235169 .36099244 .32633973 .35899354 .32034303 .35798646 .31533814L.30799867 .119277957Z"/>
<path id="font_2_3" d="M.30299378 .3244629H.3999939C.47499085 .3244629 .48298646 .30848695 .48298646 .27954103 .48298646 .2725525 .48298646 .26057435 .47599793 .2306366 .47399903 .22564698 .47299195 .22164917 .47299195 .21965027 .47299195 .21166992 .47898866 .20767212 .4850006 .20767212 .49499513 .20767212 .49499513 .21066284 .5 .2286377L.5549927 .44551087C.55799868 .45651246 .55799868 .45851136 .55799868 .46151734 .55799868 .46351625 .55599978 .47251893 .54599 .47251893 .5359955 .47251893 .5349884 .46751405 .5309906 .45150758 .5099945 .37347413 .4869995 .35546876 .4019928 .35546876H.31098939L.375 .6095886C.38398744 .64460757 .3849945 .64860537 .42900086 .64860537H.5609894C.6839905 .64860537 .70700076 .6156006 .70700076 .53855898 .70700076 .5155487 .70700076 .51153567 .70399478 .4845276 .70199587 .4715271 .70199587 .46951295 .70199587 .46652223 .70199587 .46151734 .7049866 .45451356 .71398928 .45451356 .72499087 .45451356 .7259979 .46051026 .7279968 .4795227L.7480011 .65260317C.7509918 .6796112 .74598696 .6796112 .72099307 .6796112H.23098755C.21099854 .6796112 .20098877 .6796112 .20098877 .65960696 .20098877 .64860537 .20999146 .64860537 .22898865 .64860537 .2659912 .64860537 .2939911 .64860537 .2939911 .6306 .2939911 .6266022 .2939911 .6246033 .2889862 .60658267L.15699768 .07791138C.14698792 .038970949 .14498902 .0309906 .06599426 .0309906 .04899597 .0309906 .037994386 .0309906 .037994386 .011993408 .037994386 0 .049987794 0 .052993776 0 .08198547 0 .1559906 .0029907227 .18499756 .0029907227 .21798706 .0029907227 .30099488 0 .33399964 0 .34298707 0 .35499574 0 .35499574 .018997193 .35499574 .026992798 .34899903 .0289917 .34899903 .02999878 .34599305 .0309906 .34399415 .0309906 .32099916 .0309906 .29899598 .0309906 .2939911 .0309906 .2689972 .032989503 .23999024 .035980226 .23699951 .039978029 .23699951 .052947999 .23699951 .0549469 .23699951 .060943605 .24099732 .075912479L.30299378 .3244629Z"/>
<path id="font_3_3" d="M.40899659 .23046875H.6879883C.70199587 .23046875 .72099307 .23046875 .72099307 .25045777 .72099307 .27046205 .70199587 .27046205 .6879883 .27046205H.40899659V.5500183C.40899659 .56399539 .40899659 .5830078 .3889923 .5830078 .36898805 .5830078 .36898805 .56399539 .36898805 .5500183V.27046205H.08898926C.07499695 .27046205 .055999757 .27046205 .055999757 .25045777 .055999757 .23046875 .07499695 .23046875 .08898926 .23046875H.36898805V-.05000305C.36898805-.06401062 .36898805-.08300781 .3889923-.08300781 .40899659-.08300781 .40899659-.06401062 .40899659-.05000305V.23046875Z"/>
<path id="font_2_2" d="M.7599945 .69506838C.7599945 .69807437 .7579956 .7050781 .7489929 .7050781 .74598696 .7050781 .7449951 .70407107 .73399356 .69306948L.6639862 .61602786C.6549988 .6300354 .60899356 .7050781 .49798585 .7050781 .2749939 .7050781 .049987794 .48391725 .049987794 .25172425 .049987794 .08659363 .16799927-.022460938 .32099916-.022460938 .4079895-.022460938 .48399354 .017532349 .5369873 .063583377 .6299896 .14564514 .6469879 .2367096 .6469879 .23971558 .6469879 .24972534 .6369934 .24972534 .6349945 .24972534 .6289978 .24972534 .6239929 .24772644 .621994 .23971558 .61299136 .21069336 .58999636 .13963318 .5209961 .081588748 .45199586 .025543213 .3889923 .008529663 .33699037 .008529663 .24699402 .008529663 .14099121 .060577394 .14099121 .21670532 .14099121 .27374269 .1619873 .43588258 .2619934 .55296328 .32299806 .62402346 .4169922 .67407229 .5059967 .67407229 .60798647 .67407229 .6669922 .5970001 .6669922 .48091126 .6669922 .44088746 .6639862 .43988038 .6639862 .4298706 .6639862 .41986085 .6749878 .41986085 .67900088 .41986085 .69200137 .41986085 .69200137 .42185975 .69699099 .43988038L.7599945 .69506838Z"/>
<path id="font_4_2" d="M.47399903 .40820313C.44198609 .40219117 .42999269 .3781891 .42999269 .3591919 .42999269 .33518983 .44898988 .3271942 .46299745 .3271942 .49299623 .3271942 .5139923 .3531952 .5139923 .380188 .5139923 .4223938 .46598817 .44140626 .42399598 .44140626 .36299134 .44140626 .32899476 .38119508 .31999208 .36219789 .29699708 .4373932 .23498535 .44140626 .21699524 .44140626 .114990238 .44140626 .06098938 .31021119 .06098938 .28822328 .06098938 .28422547 .06498718 .27923585 .07199097 .27923585 .07998657 .27923585 .08198547 .28523255 .083999637 .2892151 .117996219 .40019227 .18499756 .42140199 .21398926 .42140199 .25898744 .42140199 .2679901 .37919618 .2679901 .3551941 .2679901 .33319093 .2619934 .31021119 .25 .26223756L.21598816 .12535095C.20098877 .06535339 .17199707 .010223389 .11898804 .010223389 .11399841 .010223389 .08898926 .010223389 .067993167 .023330689 .10398865 .03036499 .11199951 .06036377 .11199951 .07235718 .11199951 .09236145 .09700012 .10435486 .07798767 .10435486 .053985597 .10435486 .027999878 .083358768 .027999878 .051361085 .027999878 .009231567 .07499695-.009765625 .117996219-.009765625 .1659851-.009765625 .19999695 .028366089 .22099304 .069366458 .23699951 .010223389 .2869873-.009765625 .32398988-.009765625 .42599488-.009765625 .47999574 .12135315 .47999574 .1433258 .47999574 .14833069 .47599793 .15232849 .46998597 .15232849 .46099855 .15232849 .45999146 .14732361 .45700074 .139328 .42999269 .051361085 .37199403 .010223389 .32699586 .010223389 .2919922 .010223389 .272995 .036361696 .272995 .07736206 .272995 .099365238 .2769928 .115356449 .29299928 .18130493L.32798768 .3171997C.34298707 .37719728 .3769989 .42140199 .4229889 .42140199 .4249878 .42140199 .45298768 .42140199 .47399903 .40820313Z"/>
<path id="font_5_42" d="M.6519928 .23170471C.6519928 .24272156 .6519928 .24871826 .6409912 .24871826 .6309967 .24871826 .6299896 .24371338 .6299896 .2367096 .62098696 .07757568 .5049896 .007507324 .4079895 .007507324 .33799745 .007507324 .14698792 .049545289 .14698792 .34179688 .14698792 .63105776 .33499146 .6750946 .40699769 .6750946 .5119934 .6750946 .60398867 .5860138 .6239929 .43588258 .6259918 .4238739 .6259918 .42086793 .6380005 .42086793 .6519928 .42086793 .6519928 .4238739 .6519928 .44389344V.6810913C.6519928 .6990967 .6519928 .70410159 .6419983 .70410159 .6359863 .70410159 .6349945 .7020874 .6289978 .6920929L.5799866 .6130371C.5349884 .6690979 .46699525 .70410159 .394989 .70410159 .21199036 .70410159 .053985597 .54597476 .053985597 .34179688 .053985597 .13461304 .21398926-.021484375 .394989-.021484375 .5589905-.021484375 .6519928 .12161255 .6519928 .23170471Z"/>
<path id="font_5_81" d="M.45899964 .21424866C.45899964 .34326173 .36099244 .44628907 .24499512 .44628907 .125 .44628907 .02999878 .340271 .02999878 .21424866 .02999878 .086242679 .12998963-.009765625 .24398804-.009765625 .3619995-.009765625 .45899964 .08824158 .45899964 .21424866M.3829956 .22325135C.3829956 .18824768 .3829956 .12623596 .35699464 .07923889 .32899476 .031234742 .2829895 .01222229 .24499512 .01222229 .20799256 .01222229 .16299439 .02822876 .13398743 .07723999 .10699463 .12223816 .10598755 .1812439 .10598755 .22325135 .10598755 .261261 .10598755 .32226563 .13699341 .3672638 .16499329 .41027833 .20899964 .42626954 .24398804 .42626954 .2829895 .42626954 .32499696 .40827943 .35198976 .3692627 .3829956 .32325746 .3829956 .2602539 .3829956 .22325135Z"/>
<path id="font_5_77" d="M.5209961 0V.0289917C.47099305 .0289917 .44599916 .0289917 .44499208 .059051515V.24342346C.44499208 .3365631 .44499208 .36450196 .42199708 .39640809 .3929901 .4353943 .34599305 .44140626 .31199647 .44140626 .21499634 .44140626 .1769867 .35850526 .16899109 .338562H.16799927V.44140626L.03199768 .4303589V.4013672C.099990848 .4013672 .10798645 .39437867 .10798645 .34553529V.07408142C.10798645 .0289917 .09700012 .0289917 .03199768 .0289917V0C.057998659 .0019989014 .11199951 .0019989014 .13999939 .0019989014 .16899109 .0019989014 .22299195 .0019989014 .24899292 0V.0289917C.18499756 .0289917 .17298889 .0289917 .17298889 .07408142V.26046754C.17298889 .36547853 .24198914 .4213562 .3039856 .4213562 .3659973 .4213562 .37998963 .37045289 .37998963 .3095703V.07408142C.37998963 .0289917 .36898805 .0289917 .3039856 .0289917V0C.32998658 .0019989014 .38398744 .0019989014 .4119873 .0019989014 .44099427 .0019989014 .49499513 .0019989014 .5209961 0Z"/>
<path id="font_5_105" d="M.32598878 .124069217V.1809845H.3039856V.12606812C.3039856 .0541687 .2749939 .01222229 .23599243 .01222229 .16799927 .01222229 .16799927 .10508728 .16799927 .12207031V.4016571H.30899049V.43066407H.16799927V.6142578H.1459961C.14498902 .52046206 .10899353 .4246521 .017990113 .42166139V.4016571H.102996829V.124069217C.102996829 .01322937 .1769867-.009765625 .22999573-.009765625 .29299928-.009765625 .32598878 .0521698 .32598878 .124069217Z"/>
<path id="font_5_50" d="M.40699769 .11932373C.40699769 .1253357 .4019928 .1293335 .3959961 .1293335 .3880005 .1293335 .38598634 .12432861 .38398744 .11932373 .35798646 .035247804 .29100038 .01222229 .24899292 .01222229 .20698548 .01222229 .10598755 .040252687 .10598755 .21340943V.23242188H.3829956C.40499879 .23242188 .40699769 .23242188 .40699769 .25141908 .40699769 .3523407 .35299684 .44628907 .23199463 .44628907 .117996219 .44628907 .02999878 .34335328 .02999878 .21940613 .02999878 .08729553 .13198853-.009765625 .24299622-.009765625 .3619995-.009765625 .40699769 .09829712 .40699769 .11932373M.34498597 .25141908H.10699463C.114990238 .40830995 .20298767 .42630006 .23098755 .42630006 .33799745 .42630006 .34399415 .28538514 .34498597 .25141908Z"/>
<path id="font_5_116" d="M.5059967 0V.0289917C.45298768 .0289917 .43499757 .0309906 .41099549 .06295776L.27999879 .23580933C.30899049 .2737732 .35099793 .32772828 .36999513 .3487091 .41099549 .39465333 .45799256 .4016571 .48999024 .4016571V.43066407C.44699098 .4286499 .44499208 .4286499 .4059906 .4286499L.31599427 .43066407V.4016571C.32899476 .3996582 .34498597 .3936615 .34498597 .37068177 .34498597 .35369874 .33599855 .3427124 .32998658 .3347168L.2659912 .25378419 .18798828 .35668946C.18499756 .36068727 .1789856 .36968995 .1789856 .37667848 .1789856 .38267518 .18399048 .40065003 .21398926 .4016571V.43066407C.18899536 .4286499 .13798523 .4286499 .11099243 .4286499L.01499939 .43066407V.4016571C.06599426 .4013672 .084991458 .39935304 .10598755 .37236024L.22299195 .21972656C.22499085 .2177124 .22898865 .2117157 .22898865 .20872498 .22898865 .205719 .15098572 .10786438 .14099121 .09487915 .09700012 .04096985 .052993776 .02998352 .009994507 .0289917V0C.04798889 .0019989014 .049987794 .0019989014 .09298706 .0019989014L.18299866 0V.0289917C.15899658 .031982423 .15499878 .046966554 .15499878 .060943605 .15499878 .0769043 .1619873 .0848999 .17199707 .09786987L.24398804 .1907196 .32598878 .08389282C.34298707 .061935426 .34298707 .059936525 .34298707 .053955079 .34298707 .045959474 .33499146 .02998352 .30799867 .0289917V0C.33399964 .0019989014 .3829956 .0019989014 .41099549 .0019989014L.5059967 0Z"/>
<path id="font_2_7" d="M.47099305 .3773346C.47200013 .3833313 .47399903 .38833619 .47399903 .39535523 .47399903 .41236878 .46199037 .42237855 .44499208 .42237855 .43499757 .42237855 .4079895 .41537477 .4039917 .3793335 .38598634 .41636659 .35099793 .4423828 .31098939 .4423828 .19699097 .4423828 .07299805 .30226136 .07299805 .15812683 .07299805 .059020997 .13398743 0 .20599365 0 .2649994 0 .31199647 .04701233 .32199098 .058029176L.32299806 .057022096C.3019867-.031982423 .2899933-.07295227 .2899933-.07495117 .28599549-.08395386 .2519989-.18309021 .1459961-.18309021 .1269989-.18309021 .09399414-.18206787 .06599426-.17297364 .09599304-.16394043 .10699463-.13793946 .10699463-.12094116 .10699463-.10494995 .09599304-.0859375 .068984989-.0859375 .04699707-.0859375 .01499939-.10394287 .01499939-.14395142 .01499939-.18508911 .051986696-.20507813 .147995-.20507813 .272995-.20507813 .34498597-.12693787 .3600006-.06695557L.47099305 .3773346M.34098817 .12809754C.33499146 .10206604 .31199647 .077041629 .2899933 .058029176 .2689972 .040008546 .23799134 .021987915 .20899964 .021987915 .15899658 .021987915 .14399719 .074035648 .14399719 .11407471 .14399719 .16212464 .17298889 .28024293 .19999695 .33128358 .22698975 .38034059 .269989 .42037965 .31199647 .42037965 .37799073 .42037965 .3919983 .33929444 .3919983 .33428956 .3919983 .32928468 .3899994 .3232727 .3889923 .3192749L.34098817 .12809754Z"/>
<path id="font_2_8" d="M.34999085 .056259157C.36099244 .015258789 .3959961-.0107421879 .43899537-.0107421879 .47399903-.0107421879 .49699403 .012252808 .5130005 .044265748 .5299988 .08027649 .54299929 .14129639 .54299929 .14329529 .54299929 .1532898 .5339966 .1532898 .5309906 .1532898 .5209961 .1532898 .519989 .14929199 .5169983 .13528443 .5029907 .07926941 .48399354 .011245728 .44198609 .011245728 .42099 .011245728 .41099549 .024261475 .41099549 .057266237 .41099549 .07926941 .4229889 .12628174 .43099977 .16130066L.45899964 .2693329C.46199037 .28433229 .47200013 .32234193 .47599793 .3373413 .48098756 .36035157 .4909973 .3983612 .4909973 .40437318 .4909973 .42237855 .47698976 .43138124 .46199037 .43138124 .45700074 .43138124 .43099977 .43037416 .4229889 .3963623 .4039917 .323349 .3600006 .14828491 .34799195 .09527588 .34700013 .091278079 .30699159 .011245728 .23399353 .011245728 .18199158 .011245728 .17199707 .056259157 .17199707 .09327698 .17199707 .14929199 .19999695 .22831726 .22599793 .29733277 .23799134 .3273468 .24299622 .34135438 .24299622 .36035157 .24299622 .405365 .21099854 .4423828 .16099549 .4423828 .06599426 .4423828 .0289917 .29733277 .0289917 .28833009 .0289917 .27833558 .038986207 .27833558 .040985109 .27833558 .050994874 .27833558 .051986696 .28033448 .056991579 .29634095 .08198547 .38336183 .11999512 .42037965 .1579895 .42037965 .16699219 .42037965 .18299866 .41937257 .18299866 .38735963 .18299866 .36335755 .17199707 .3343506 .1659851 .31933595 .1289978 .2203064 .10798645 .15829468 .10798645 .10928345 .10798645 .014251709 .1769867-.0107421879 .23098755-.0107421879 .29699708-.0107421879 .33299256 .03425598 .34999085 .056259157Z"/>
<path id="font_2_4" d="M.7599945 .69506838C.7599945 .69807437 .7579956 .7050781 .7489929 .7050781 .74598696 .7050781 .7449951 .70407107 .73399356 .69306948L.6639862 .61598208C.6549988 .6300049 .60899356 .7050781 .49798585 .7050781 .2749939 .7050781 .049987794 .4837799 .049987794 .25144959 .049987794 .09249878 .16099549-.022460938 .32299806-.022460938 .36698915-.022460938 .4119873-.013473511 .44799806 .0015258789 .49798585 .021530152 .5169983 .042526246 .5349884 .06251526 .5439911 .037521364 .56999209 .0005340576 .5799866 .0005340576 .58499148 .0005340576 .58699038 .0035247803 .58699038 .0045318605 .58898928 .0065307619 .598999 .044525148 .60398867 .06550598L.6230011 .14248657C.6269989 .15948487 .6319885 .1764679 .6359863 .19346619 .6469879 .2384491 .647995 .240448 .7049866 .24145508 .70999148 .24145508 .72099307 .2424469 .72099307 .26145936 .72099307 .26844789 .71598818 .27246095 .70799258 .27246095 .68499758 .27246095 .6259918 .26945497 .6029968 .26945497 .57199099 .26945497 .49398805 .27246095 .46299745 .27246095 .45399476 .27246095 .44198609 .27246095 .44198609 .25245667 .44198609 .24145508 .44999696 .24145508 .47200013 .24145508 .47299195 .24145508 .5019989 .24145508 .5249939 .23945618 .5509949 .2364502 .55599978 .23345948 .55599978 .22045899 .55599978 .2114563 .54499819 .16647339 .5349884 .12948609 .5069885 .01953125 .3769989 .008529663 .34199525 .008529663 .24598694 .008529663 .14099121 .06550598 .14099121 .21846009 .14099121 .24945069 .15098572 .41467286 .2559967 .5448761 .30999757 .6129761 .40699769 .67407229 .5059967 .67407229 .60798647 .67407229 .6669922 .59695437 .6669922 .48077394 .6669922 .44070436 .6639862 .43971253 .6639862 .4296875 .6639862 .41967774 .6749878 .41967774 .67900088 .41967774 .69200137 .41967774 .69200137 .42167665 .69699099 .43971253L.7599945 .69506838Z"/>
<path id="font_4_1" d="M.34098817 .058151246C.35398866 .0022277833 .4019928-.009765625 .42599488-.009765625 .45799256-.009765625 .48199464 .011230469 .49798585 .045181276 .5149994 .08113098 .5279999 .14004517 .5279999 .14303589 .5279999 .14802552 .5239868 .15202332 .5179901 .15202332 .5089874 .15202332 .5079956 .14703369 .5039978 .13204956 .48599244 .06315613 .46798707 .010223389 .42799378 .010223389 .397995 .010223389 .397995 .043182374 .397995 .056167604 .397995 .07913208 .40098573 .08911133 .41099549 .13105774 .41799928 .15802002 .4249878 .1849823 .43099977 .2129364L.47200013 .3757019C.47898866 .40066529 .47898866 .40266419 .47898866 .4056549 .47898866 .4206543 .46699525 .43066407 .45199586 .43066407 .4229889 .43066407 .41600038 .4056549 .4099884 .38069154 .3999939 .3417511 .34599305 .12705994 .33898927 .09210205 .33799745 .09225464 .29899598 .010223389 .22599793 .010223389 .17399597 .010223389 .1639862 .055252077 .1639862 .09225464 .1639862 .14929199 .19198609 .22932434 .21798706 .29634095 .22999573 .32835389 .23498535 .34136964 .23498535 .3613739 .23498535 .40438844 .20399475 .44140626 .1559906 .44140626 .06399536 .44140626 .026992798 .29634095 .026992798 .28834535 .026992798 .28434754 .0309906 .27934266 .037994386 .27934266 .04699707 .27934266 .04798889 .28334046 .051986696 .29734803 .07598877 .38337709 .114990238 .42140199 .15299988 .42140199 .16299439 .42140199 .1789856 .4203949 .1789856 .38838197 .1789856 .36238099 .16799927 .33335877 .15299988 .29534913 .10899353 .17630005 .10398865 .13827515 .10398865 .10826111 .10398865 .006225586 .18099976-.009765625 .22200012-.009765625 .28599549-.009765625 .32099916 .034194948 .34098817 .058151246Z"/>
<path id="font_3_4" d="M.68699648 .32714845C.70199587 .32714845 .72099307 .32714845 .72099307 .34713746 .72099307 .36714173 .70199587 .36714173 .6879883 .36714173H.08898926C.07499695 .36714173 .055999757 .36714173 .055999757 .34713746 .055999757 .32714845 .07499695 .32714845 .08999634 .32714845H.68699648M.6879883 .13284302C.70199587 .13284302 .72099307 .13284302 .72099307 .15284729 .72099307 .17285156 .70199587 .17285156 .68699648 .17285156H.08999634C.07499695 .17285156 .055999757 .17285156 .055999757 .15284729 .055999757 .13284302 .07499695 .13284302 .08898926 .13284302H.6879883Z"/>
<path id="font_6_1" d="M.18899536 .34246827C.1769867 .3534546 .17098999 .3534546 .16799927 .3534546 .16099549 .3534546 .15899658 .3534546 .13899231 .3344574L.070999149 .27445985C.05899048 .26345826 .054992677 .25946046 .054992677 .25045777 .054992677 .23945618 .06498718 .23046875 .07499695 .23046875 .08099365 .23046875 .08299255 .23046875 .099990848 .24645996 .12098694 .26446534 .14099121 .28445436 .16799927 .30645753L.30499269 .1824646C.30699159 .18145752 .32499696 .16546631 .32998658 .1614685 .34399415 .14746094 .34599305 .14746094 .35299684 .14746094 .3600006 .14746094 .3619995 .14746094 .38398744 .16746521L.46299745 .23846436 .5379944 .30645753 .6119995 .24046326C.6230011 .23046875 .625 .23046875 .6459961 .23046875H.8619995C.8529968 .22245789 .79599 .17346192 .7609863 .083465579H.7919922C.8089905 .12945557 .84799197 .20045471 .94200137 .25045777 .84799197 .3014679 .80799868 .37246705 .7919922 .4174652H.7609863C.79599 .32746888 .8529968 .27845765 .8619995 .27046205H.6380005C.598999 .30645753 .58799746 .3174591 .5649872 .33746339 .5469971 .3534546 .54499819 .3534546 .5379944 .3534546 .5309906 .3534546 .5289917 .3514557 .5179901 .34246827 .5149994 .3404541 .375 .2134552 .35299684 .19445801L.18899536 .34246827Z"/>
<path id="font_2_1" d="M.19198609 .052993776C.19198609 .08198547 .16799927 .10598755 .13899231 .10598755 .10998535 .10598755 .085998538 .08198547 .085998538 .052993776 .085998538 .023986817 .10998535 0 .13899231 0 .16799927 0 .19198609 .023986817 .19198609 .052993776Z"/>
<path id="font_7_1" d="M.2899933 .4720459C.2979889 .4890442 .29899598 .49705506 .29899598 .5040436 .29899598 .53504946 .2709961 .5590515 .23999024 .5590515 .20199585 .5590515 .18998719 .52804568 .18499756 .51205447L.052993776 .07901001C.051986696 .07701111 .04798889 .06401062 .04798889 .06300354 .04798889 .05101013 .07899475 .041015626 .08699036 .041015626 .09399414 .041015626 .09498596 .043014528 .101989749 .058013917L.2899933 .4720459Z"/>
</defs>
<path transform="matrix(1.00003,0,0,-1.00003,2.0964967,163.24752)" stroke-width=".3985" stroke-linecap="butt" stroke-miterlimit="10" stroke-linejoin="miter" fill="none" stroke="#085646" d="M0 0V141.73404"/>
<path transform="matrix(1.00003,0,0,-1.00003,2.0964967,163.24752)" stroke-width=".3985" stroke-linecap="butt" stroke-miterlimit="10" stroke-linejoin="miter" fill="none" stroke="#085646" d="M0 141.73404H85.04042"/>
<path transform="matrix(1.00003,0,0,-1.00003,2.0964967,163.24752)" stroke-width=".3985" stroke-linecap="butt" stroke-miterlimit="10" stroke-linejoin="miter" fill="none" stroke="#085646" d="M85.04042 141.73404V0"/>
<path transform="matrix(1.00003,0,0,-1.00003,2.0964967,163.24752)" stroke-width=".3985" stroke-linecap="butt" stroke-miterlimit="10" stroke-linejoin="miter" fill="none" stroke="#085646" d="M85.04042 0H0"/>
<use data-text="&#x222b;" xlink:href="#font_1_1" transform="matrix(9.962899,0,0,-9.962899,22.286103,24.196328)" fill="#085646"/>
<use data-text="f" xlink:href="#font_2_6" transform="matrix(9.962899,0,0,-9.962899,33.909456,37.757745)" fill="#085646"/>
<use data-text="(" xlink:href="#font_3_1" transform="matrix(9.962899,0,0,-9.962899,39.859628,37.757745)" fill="#085646"/>
<use data-text="x" xlink:href="#font_2_9" transform="matrix(9.962899,0,0,-9.962899,43.73375,37.757745)" fill="#085646"/>
<use data-text=")" xlink:href="#font_3_2" transform="matrix(9.962899,0,0,-9.962899,49.427919,37.757745)" fill="#085646"/>
<use data-text="d" xlink:href="#font_2_5" transform="matrix(9.962899,0,0,-9.962899,56.070116,37.757745)" fill="#085646"/>
<use data-text="x" xlink:href="#font_2_9" transform="matrix(9.962899,0,0,-9.962899,61.250825,37.757745)" fill="#085646"/>
<use data-text="F" xlink:href="#font_2_3" transform="matrix(9.962899,0,0,-9.962899,23.996155,145.892)" fill="#085646"/>
<use data-text="(" xlink:href="#font_3_1" transform="matrix(9.962899,0,0,-9.962899,31.786393,145.892)" fill="#085646"/>
<use data-text="x" xlink:href="#font_2_9" transform="matrix(9.962899,0,0,-9.962899,35.661508,145.892)" fill="#085646"/>
<use data-text=")" xlink:href="#font_3_2" transform="matrix(9.962899,0,0,-9.962899,41.354684,145.892)" fill="#085646"/>
<use data-text="+" xlink:href="#font_3_3" transform="matrix(9.962899,0,0,-9.962899,47.432046,145.892)" fill="#085646"/>
<use data-text="C" xlink:href="#font_2_2" transform="matrix(9.962899,0,0,-9.962899,57.406167,145.892)" fill="#085646"/>
<path transform="matrix(1.00003,0,0,-1.00003,2.0964967,163.24752)" stroke-width="1.49442" stroke-linecap="butt" stroke-miterlimit="10" stroke-linejoin="miter" fill="none" stroke="#085646" d="M42.5202 113.38724V34.8923"/>
<path transform="matrix(0,1.00003,1.00003,0,44.617975,128.35416)" d="M6.54549 0C4.60605 .36362 1.45454 1.45454-.72726 2.72728V-2.72728C1.45454-1.45454 4.60605-.36362 6.54549 0" fill="#085646"/>
<use data-text="x" xlink:href="#font_4_2" transform="matrix(14.346631,0,0,-14.346631,13.697845,12.018967)" fill="#085646"/>
<use data-text="C" xlink:href="#font_5_42" transform="matrix(14.346631,0,0,-14.346631,26.357232,12.018967)" fill="#085646"/>
<use data-text="o" xlink:href="#font_5_81" transform="matrix(14.346631,0,0,-14.346631,36.500299,12.018967)" fill="#085646"/>
<use data-text="n" xlink:href="#font_5_77" transform="matrix(14.346631,0,0,-14.346631,43.53015,12.018967)" fill="#085646"/>
<use data-text="t" xlink:href="#font_5_105" transform="matrix(14.346631,0,0,-14.346631,50.961709,12.018967)" fill="#085646"/>
<use data-text="e" xlink:href="#font_5_50" transform="matrix(14.346631,0,0,-14.346631,56.427774,12.018967)" fill="#085646"/>
<use data-text="x" xlink:href="#font_5_116" transform="matrix(14.346631,0,0,-14.346631,62.668565,12.018967)" fill="#085646"/>
<use data-text="t" xlink:href="#font_5_105" transform="matrix(14.346631,0,0,-14.346631,70.085788,12.018967)" fill="#085646"/>
<path transform="matrix(1.00003,0,0,-1.00003,2.0964967,163.24752)" stroke-width=".3985" stroke-linecap="butt" stroke-miterlimit="10" stroke-linejoin="miter" fill="none" stroke="#5762d5" d="M141.73404 0V141.73404"/>
<path transform="matrix(1.00003,0,0,-1.00003,2.0964967,163.24752)" stroke-width=".3985" stroke-linecap="butt" stroke-miterlimit="10" stroke-linejoin="miter" fill="none" stroke="#5762d5" d="M141.73404 141.73404H226.77448"/>
<path transform="matrix(1.00003,0,0,-1.00003,2.0964967,163.24752)" stroke-width=".3985" stroke-linecap="butt" stroke-miterlimit="10" stroke-linejoin="miter" fill="none" stroke="#5762d5" d="M226.77448 141.73404V0"/>
<path transform="matrix(1.00003,0,0,-1.00003,2.0964967,163.24752)" stroke-width=".3985" stroke-linecap="butt" stroke-miterlimit="10" stroke-linejoin="miter" fill="none" stroke="#5762d5" d="M226.77448 0H141.73404"/>
<use data-text="&#x222b;" xlink:href="#font_1_1" transform="matrix(9.962899,0,0,-9.962899,164.43538,24.196328)" fill="#5762d5"/>
<use data-text="g" xlink:href="#font_2_7" transform="matrix(9.962899,0,0,-9.962899,176.05873,37.757745)" fill="#5762d5"/>
<use data-text="(" xlink:href="#font_3_1" transform="matrix(9.962899,0,0,-9.962899,181.16788,37.757745)" fill="#5762d5"/>
<use data-text="u" xlink:href="#font_2_8" transform="matrix(9.962899,0,0,-9.962899,185.043,37.757745)" fill="#5762d5"/>
<use data-text=")" xlink:href="#font_3_2" transform="matrix(9.962899,0,0,-9.962899,190.74619,37.757745)" fill="#5762d5"/>
<use data-text="d" xlink:href="#font_2_5" transform="matrix(9.962899,0,0,-9.962899,197.38837,37.757745)" fill="#5762d5"/>
<use data-text="u" xlink:href="#font_2_8" transform="matrix(9.962899,0,0,-9.962899,202.56908,37.757745)" fill="#5762d5"/>
<use data-text="G" xlink:href="#font_2_4" transform="matrix(9.962899,0,0,-9.962899,165.7084,145.892)" fill="#5762d5"/>
<use data-text="(" xlink:href="#font_3_1" transform="matrix(9.962899,0,0,-9.962899,173.54164,145.892)" fill="#5762d5"/>
<use data-text="u" xlink:href="#font_2_8" transform="matrix(9.962899,0,0,-9.962899,177.41576,145.892)" fill="#5762d5"/>
<use data-text=")" xlink:href="#font_3_2" transform="matrix(9.962899,0,0,-9.962899,183.11994,145.892)" fill="#5762d5"/>
<use data-text="+" xlink:href="#font_3_3" transform="matrix(9.962899,0,0,-9.962899,189.1973,145.892)" fill="#5762d5"/>
<use data-text="C" xlink:href="#font_2_2" transform="matrix(9.962899,0,0,-9.962899,199.17041,145.892)" fill="#5762d5"/>
<path transform="matrix(1.00003,0,0,-1.00003,2.0964967,163.24752)" stroke-width="1.49442" stroke-linecap="butt" stroke-miterlimit="10" stroke-linejoin="miter" fill="none" stroke="#5762d5" d="M184.25424 113.38724V34.8923"/>
<path transform="matrix(0,1.00003,1.00003,0,186.35628,128.35416)" d="M6.54549 0C4.60605 .36362 1.45454 1.45454-.72726 2.72728V-2.72728C1.45454-1.45454 4.60605-.36362 6.54549 0" fill="#5762d5"/>
<use data-text="u" xlink:href="#font_4_1" transform="matrix(14.346631,0,0,-14.346631,155.4301,12.018967)" fill="#5762d5"/>
<use data-text="C" xlink:href="#font_5_42" transform="matrix(14.346631,0,0,-14.346631,168.10248,12.018967)" fill="#5762d5"/>
<use data-text="o" xlink:href="#font_5_81" transform="matrix(14.346631,0,0,-14.346631,178.24555,12.018967)" fill="#5762d5"/>
<use data-text="n" xlink:href="#font_5_77" transform="matrix(14.346631,0,0,-14.346631,185.27539,12.018967)" fill="#5762d5"/>
<use data-text="t" xlink:href="#font_5_105" transform="matrix(14.346631,0,0,-14.346631,192.69261,12.018967)" fill="#5762d5"/>
<use data-text="e" xlink:href="#font_5_50" transform="matrix(14.346631,0,0,-14.346631,198.15868,12.018967)" fill="#5762d5"/>
<use data-text="x" xlink:href="#font_5_116" transform="matrix(14.346631,0,0,-14.346631,204.39946,12.018967)" fill="#5762d5"/>
<use data-text="t" xlink:href="#font_5_105" transform="matrix(14.346631,0,0,-14.346631,211.81668,12.018967)" fill="#5762d5"/>
<path transform="matrix(1.00003,0,0,-1.00003,2.0964967,163.24752)" stroke-width="1.19553" stroke-linecap="butt" stroke-miterlimit="10" stroke-linejoin="miter" fill="none" stroke="#ad343e" d="M70.867 127.56062C90.7097 141.73404 136.06476 141.73404 151.23813 130.89592"/>
<path transform="matrix(.8136944,.58121749,.58121749,-.8136944,153.33916,32.347658)" d="M5.73854 0C4.0382 .31879 1.27522 1.27522-.6376 2.39105V-2.39105C1.27522-1.27522 4.0382-.31879 5.73854 0" fill="#ad343e"/>
<use data-text="u" xlink:href="#font_2_8" transform="matrix(9.962899,0,0,-9.962899,96.860347,17.989151)" fill="#ad343e"/>
<use data-text="=" xlink:href="#font_3_4" transform="matrix(9.962899,0,0,-9.962899,105.330608,17.989151)" fill="#ad343e"/>
<use data-text="&#x21dd;" xlink:href="#font_6_1" transform="matrix(9.962899,0,0,-9.962899,113.079837,17.989151)" fill="#ad343e"/>
<use data-text="." xlink:href="#font_2_1" transform="matrix(9.962899,0,0,-9.962899,125.81021,17.989151)" fill="#ad343e"/>
<use data-text="." xlink:href="#font_2_1" transform="matrix(9.962899,0,0,-9.962899,128.56995,17.989151)" fill="#ad343e"/>
<use data-text="." xlink:href="#font_2_1" transform="matrix(9.962899,0,0,-9.962899,131.32967,17.989151)" fill="#ad343e"/>
<use data-text="d" xlink:href="#font_2_5" transform="matrix(9.962899,0,0,-9.962899,92.3272,38.18876)" fill="#ad343e"/>
<use data-text="u" xlink:href="#font_2_8" transform="matrix(9.962899,0,0,-9.962899,97.50791,38.18876)" fill="#ad343e"/>
<use data-text="=" xlink:href="#font_3_4" transform="matrix(9.962899,0,0,-9.962899,105.98361,38.18876)" fill="#ad343e"/>
<use data-text="u" xlink:href="#font_2_8" transform="matrix(9.962899,0,0,-9.962899,116.49992,38.18876)" fill="#ad343e"/>
<use data-text="&#x2032;" xlink:href="#font_7_1" transform="matrix(6.9740097,0,0,-6.9740097,122.2031,34.572656)" fill="#ad343e"/>
<use data-text="d" xlink:href="#font_2_5" transform="matrix(9.962899,0,0,-9.962899,127.76627,38.18876)" fill="#ad343e"/>
<use data-text="x" xlink:href="#font_2_9" transform="matrix(9.962899,0,0,-9.962899,132.94698,38.18876)" fill="#ad343e"/>
<path transform="matrix(1.00003,0,0,-1.00003,2.0964967,163.24752)" stroke-width="1.19553" stroke-linecap="butt" stroke-miterlimit="10" stroke-linejoin="miter" fill="none" stroke="#ad343e" d="M155.90744 19.84267C136.06476 5.66927 90.7097 5.66927 75.53632 16.50739"/>
<path transform="matrix(-.8136944,-.58121749,-.58121749,.8136944,77.63509,146.73963)" d="M5.73854 0C4.0382 .31879 1.27522 1.27522-.6376 2.39105V-2.39105C1.27522-1.27522 4.0382-.31879 5.73854 0" fill="#ad343e"/>
<use data-text="u" xlink:href="#font_2_8" transform="matrix(9.962899,0,0,-9.962899,96.860347,148.38907)" fill="#ad343e"/>
<use data-text="=" xlink:href="#font_3_4" transform="matrix(9.962899,0,0,-9.962899,105.330608,148.38907)" fill="#ad343e"/>
<use data-text="&#x21dd;" xlink:href="#font_6_1" transform="matrix(9.962899,0,0,-9.962899,113.079837,148.38907)" fill="#ad343e"/>
<use data-text="." xlink:href="#font_2_1" transform="matrix(9.962899,0,0,-9.962899,125.81021,148.38907)" fill="#ad343e"/>
<use data-text="." xlink:href="#font_2_1" transform="matrix(9.962899,0,0,-9.962899,128.56995,148.38907)" fill="#ad343e"/>
<use data-text="." xlink:href="#font_2_1" transform="matrix(9.962899,0,0,-9.962899,131.32967,148.38907)" fill="#ad343e"/>
</svg>
